M48
; DRILL file {KiCad (7.0.0)} date Tue Sep 26 17:09:24 2023
; FORMAT={-:-/ absolute / metric / decimal}
; #@! TF.CreationDate,2023-09-26T17:09:24-04:00
; #@! TF.GenerationSoftware,Kicad,Pcbnew,(7.0.0)
; #@! TF.FileFunction,Plated,1,4,PTH
FMAT,2
METRIC
; #@! TA.AperFunction,Plated,PTH,ComponentDrill
T1C0.200
; #@! TA.AperFunction,Plated,PTH,ViaDrill
T2C0.400
; #@! TA.AperFunction,Plated,PTH,ComponentDrill
T3C0.600
; #@! TA.AperFunction,Plated,PTH,ViaDrill
T4C0.762
; #@! TA.AperFunction,Plated,PTH,ComponentDrill
T5C1.100
; #@! TA.AperFunction,Plated,PTH,ComponentDrill
T6C1.200
%
G90
G05
T1
X51.788Y-64.125
X51.788Y-65.4
X51.788Y-66.675
X51.788Y-67.95
X51.788Y-69.225
X53.063Y-64.125
X53.063Y-65.4
X53.063Y-66.675
X53.063Y-67.95
X53.063Y-69.225
X54.338Y-64.125
X54.338Y-65.4
X54.338Y-66.675
X54.338Y-67.95
X54.338Y-69.225
X55.613Y-64.125
X55.613Y-65.4
X55.613Y-66.675
X55.613Y-67.95
X55.613Y-69.225
X56.888Y-64.125
X56.888Y-65.4
X56.888Y-66.675
X56.888Y-67.95
X56.888Y-69.225
T2
X40.081Y-78.435
X45.187Y-54.153
X45.915Y-64.297
X45.999Y-63.322
X46.736Y-47.244
X46.736Y-78.994
X46.787Y-64.287
X46.863Y-45.085
X46.99Y-59.411
X48.666Y-57.734
X48.793Y-66.802
X49.708Y-70.434
X49.733Y-59.741
X49.784Y-69.215
X51.054Y-48.006
X51.054Y-79.756
X51.549Y-72.879
X51.918Y-59.512
X52.019Y-62.128
X52.339Y-72.35
X52.96Y-71.628
X53.442Y-90.246
X53.721Y-72.923
X54.559Y-76.835
X54.61Y-44.958
X54.737Y-78.384
X55.982Y-59.512
X56.109Y-71.298
X57.277Y-77.343
X57.277Y-78.359
X57.277Y-79.375
X57.455Y-80.518
X57.887Y-48.971
X58.014Y-70.358
X58.979Y-76.505
X58.979Y-85.276
X58.979Y-86.326
X59.03Y-70.333
X59.055Y-66.269
X59.929Y-76.561
X60.63Y-60.897
X60.858Y-73.457
X61.011Y-65.075
X61.214Y-77.978
X61.214Y-78.994
X61.214Y-80.01
X61.493Y-60.173
X61.493Y-81.991
X64.008Y-62.763
X64.516Y-52.578
X64.541Y-49.073
X64.591Y-78.744
X64.591Y-80.014
X64.591Y-81.284
X64.795Y-59.36
X65.38Y-55.016
X65.861Y-78.744
X65.861Y-80.014
X65.861Y-81.284
X65.913Y-67.666
X66.446Y-62.916
X67.31Y-51.384
X67.512Y-87.38
X68.401Y-75.696
X68.401Y-76.966
X68.782Y-87.38
X69.671Y-64.266
X69.671Y-75.696
X69.671Y-76.966
X70.052Y-87.38
X70.585Y-68.101
X70.687Y-64.266
X70.739Y-47.981
X71.169Y-71.784
X71.322Y-87.38
X71.526Y-53.34
X71.703Y-64.266
X71.957Y-70.743
X72.541Y-66.73
X72.719Y-64.266
X72.846Y-70.743
X73.735Y-70.743
X75.005Y-65.257
X75.489Y-72.796
X75.819Y-61.83
X76.173Y-64.161
X76.454Y-72.796
X77.089Y-67.97
X78.486Y-47.244
X78.486Y-78.994
X82.804Y-48.006
X82.804Y-79.756
X86.36Y-44.958
X86.36Y-76.708
X110.236Y-47.244
X110.236Y-78.994
X114.554Y-48.006
X114.554Y-79.756
X118.11Y-44.958
X118.11Y-76.708
X141.986Y-47.244
X141.986Y-78.994
X146.304Y-48.006
X146.304Y-79.756
X149.86Y-44.958
X149.86Y-76.708
T4
X65.353Y-83.57
X67.385Y-83.57
T5
X82.042Y-62.175
X82.042Y-65.175
X82.042Y-68.175
X82.042Y-71.175
T6
X50.8Y-56.7
X50.8Y-88.45
X55.8Y-54.6
X55.8Y-86.35
X82.55Y-56.7
X82.55Y-88.45
X87.55Y-54.6
X87.55Y-86.35
X114.3Y-56.7
X114.3Y-88.45
X119.3Y-54.6
X119.3Y-86.35
X146.05Y-56.7
X146.05Y-88.45
X151.05Y-54.6
X151.05Y-86.35
T3
X41.239Y-62.355G85X39.939Y-62.355
G05
X41.239Y-70.995G85X39.939Y-70.995
G05
X44.914Y-62.355G85X43.914Y-62.355
G05
X44.914Y-70.995G85X43.914Y-70.995
G05
T0
M30
