G04 #@! TF.GenerationSoftware,KiCad,Pcbnew,(7.0.0)*
G04 #@! TF.CreationDate,2023-09-26T17:08:46-04:00*
G04 #@! TF.ProjectId,Switch Panel Rev 1,53776974-6368-4205-9061-6e656c205265,rev?*
G04 #@! TF.SameCoordinates,Original*
G04 #@! TF.FileFunction,Soldermask,Top*
G04 #@! TF.FilePolarity,Negative*
%FSLAX46Y46*%
G04 Gerber Fmt 4.6, Leading zero omitted, Abs format (unit mm)*
G04 Created by KiCad (PCBNEW (7.0.0)) date 2023-09-26 17:08:46*
%MOMM*%
%LPD*%
G01*
G04 APERTURE LIST*
G04 Aperture macros list*
%AMRoundRect*
0 Rectangle with rounded corners*
0 $1 Rounding radius*
0 $2 $3 $4 $5 $6 $7 $8 $9 X,Y pos of 4 corners*
0 Add a 4 corners polygon primitive as box body*
4,1,4,$2,$3,$4,$5,$6,$7,$8,$9,$2,$3,0*
0 Add four circle primitives for the rounded corners*
1,1,$1+$1,$2,$3*
1,1,$1+$1,$4,$5*
1,1,$1+$1,$6,$7*
1,1,$1+$1,$8,$9*
0 Add four rect primitives between the rounded corners*
20,1,$1+$1,$2,$3,$4,$5,0*
20,1,$1+$1,$4,$5,$6,$7,0*
20,1,$1+$1,$6,$7,$8,$9,0*
20,1,$1+$1,$8,$9,$2,$3,0*%
G04 Aperture macros list end*
%ADD10RoundRect,0.150000X0.625000X0.150000X-0.625000X0.150000X-0.625000X-0.150000X0.625000X-0.150000X0*%
%ADD11R,1.700000X0.800000*%
%ADD12RoundRect,0.237500X-0.250000X-0.237500X0.250000X-0.237500X0.250000X0.237500X-0.250000X0.237500X0*%
%ADD13RoundRect,0.237500X-0.300000X-0.237500X0.300000X-0.237500X0.300000X0.237500X-0.300000X0.237500X0*%
%ADD14R,0.650000X1.560000*%
%ADD15C,0.600000*%
%ADD16R,2.000000X1.000000*%
%ADD17O,0.600000X0.850000*%
%ADD18R,1.000000X0.520000*%
%ADD19R,1.000000X0.270000*%
%ADD20O,2.300000X1.300000*%
%ADD21O,2.600000X1.300000*%
%ADD22RoundRect,0.250000X0.337500X0.475000X-0.337500X0.475000X-0.337500X-0.475000X0.337500X-0.475000X0*%
%ADD23RoundRect,0.237500X-0.237500X0.300000X-0.237500X-0.300000X0.237500X-0.300000X0.237500X0.300000X0*%
%ADD24RoundRect,0.237500X0.237500X-0.300000X0.237500X0.300000X-0.237500X0.300000X-0.237500X-0.300000X0*%
%ADD25R,1.300000X1.600000*%
%ADD26RoundRect,0.237500X-0.237500X0.250000X-0.237500X-0.250000X0.237500X-0.250000X0.237500X0.250000X0*%
%ADD27RoundRect,0.150000X0.150000X-0.512500X0.150000X0.512500X-0.150000X0.512500X-0.150000X-0.512500X0*%
%ADD28RoundRect,0.237500X0.300000X0.237500X-0.300000X0.237500X-0.300000X-0.237500X0.300000X-0.237500X0*%
%ADD29RoundRect,0.237500X0.250000X0.237500X-0.250000X0.237500X-0.250000X-0.237500X0.250000X-0.237500X0*%
%ADD30C,3.200000*%
%ADD31RoundRect,0.012800X-0.317200X-0.147200X0.317200X-0.147200X0.317200X0.147200X-0.317200X0.147200X0*%
%ADD32C,4.000000*%
%ADD33C,2.100000*%
%ADD34C,0.990600*%
%ADD35C,0.787400*%
%ADD36RoundRect,0.062500X0.375000X0.062500X-0.375000X0.062500X-0.375000X-0.062500X0.375000X-0.062500X0*%
%ADD37RoundRect,0.062500X0.062500X0.375000X-0.062500X0.375000X-0.062500X-0.375000X0.062500X-0.375000X0*%
%ADD38R,5.600000X5.600000*%
%ADD39RoundRect,0.070000X0.650000X0.300000X-0.650000X0.300000X-0.650000X-0.300000X0.650000X-0.300000X0*%
%ADD40R,0.350000X0.650000*%
%ADD41R,2.400000X1.550000*%
%ADD42R,1.200000X3.300000*%
%ADD43RoundRect,0.237500X-0.287500X-0.237500X0.287500X-0.237500X0.287500X0.237500X-0.287500X0.237500X0*%
%ADD44R,1.800000X1.000000*%
%ADD45C,1.900000*%
%ADD46C,3.400000*%
%ADD47R,1.200000X0.900000*%
%ADD48C,2.200000*%
G04 APERTURE END LIST*
D10*
X66835400Y-58826400D03*
X66835400Y-57556400D03*
X66835400Y-56286400D03*
X66835400Y-55016400D03*
X61485400Y-55016400D03*
X61485400Y-56286400D03*
X61485400Y-57556400D03*
X61485400Y-58826400D03*
D11*
X69087999Y-51356999D03*
X69087999Y-47956999D03*
D12*
X46966500Y-65735200D03*
X48791500Y-65735200D03*
D13*
X111584400Y-79806800D03*
X113309400Y-79806800D03*
D14*
X69157599Y-78583999D03*
X68207599Y-78583999D03*
X67257599Y-78583999D03*
X67257599Y-81283999D03*
X68207599Y-81283999D03*
X69157599Y-81283999D03*
D15*
X43689200Y-63675000D03*
D16*
X40589199Y-65274999D03*
X40589199Y-68074999D03*
D17*
X43689199Y-69674999D03*
D18*
X44789199Y-63574999D03*
X44789199Y-64324999D03*
D19*
X44789199Y-64924999D03*
X44789199Y-66424999D03*
X44789199Y-67424999D03*
X44789199Y-68424999D03*
D18*
X44789199Y-69024999D03*
X44789199Y-69774999D03*
X44789199Y-69774999D03*
X44789199Y-69024999D03*
D19*
X44789199Y-67924999D03*
X44789199Y-66924999D03*
X44789199Y-65924999D03*
X44789199Y-65424999D03*
D18*
X44789199Y-64324999D03*
X44789199Y-63574999D03*
D20*
X44414199Y-62354999D03*
D21*
X40589199Y-62354999D03*
D20*
X44414199Y-70994999D03*
D21*
X40589199Y-70994999D03*
D22*
X63572300Y-83527800D03*
X61497300Y-83527800D03*
D23*
X70066800Y-65467300D03*
X70066800Y-67192300D03*
D24*
X58293000Y-73454600D03*
X58293000Y-71729600D03*
D25*
X62620399Y-66521599D03*
X62620399Y-63221599D03*
X60620399Y-63221599D03*
X60620399Y-66521599D03*
D13*
X53112500Y-58039000D03*
X54837500Y-58039000D03*
D24*
X70896200Y-80089100D03*
X70896200Y-78364100D03*
D22*
X74123700Y-76508800D03*
X72048700Y-76508800D03*
D26*
X47091600Y-69191500D03*
X47091600Y-71016500D03*
D27*
X71590800Y-67867300D03*
X72540800Y-67867300D03*
X73490800Y-67867300D03*
X73490800Y-65592300D03*
X71590800Y-65592300D03*
D28*
X65910800Y-70332600D03*
X64185800Y-70332600D03*
D29*
X54887500Y-60985400D03*
X53062500Y-60985400D03*
D12*
X59211200Y-50444400D03*
X61036200Y-50444400D03*
D30*
X130175000Y-92075000D03*
D22*
X63572300Y-85496400D03*
X61497300Y-85496400D03*
D13*
X48084400Y-48056800D03*
X49809400Y-48056800D03*
D12*
X68324500Y-53291000D03*
X70149500Y-53291000D03*
D13*
X49735400Y-60985400D03*
X51460400Y-60985400D03*
D29*
X70024300Y-71225600D03*
X68199300Y-71225600D03*
D31*
X72085200Y-71796400D03*
X72085200Y-72296400D03*
X72085200Y-72796400D03*
X72085200Y-73296400D03*
X73555200Y-73296400D03*
X73555200Y-72796400D03*
X73555200Y-72296400D03*
X73555200Y-71796400D03*
D32*
X92042000Y-73675000D03*
X92042000Y-59675000D03*
D33*
X82042000Y-71175000D03*
X82042000Y-68175000D03*
X82042000Y-65175000D03*
X82042000Y-62175000D03*
D34*
X41884600Y-74625200D03*
X42900600Y-79705200D03*
X40868600Y-79705200D03*
D35*
X41249600Y-75895200D03*
X42519600Y-75895200D03*
X41249600Y-77165200D03*
X42519600Y-77165200D03*
X41249600Y-78435200D03*
X42519600Y-78435200D03*
D13*
X53112500Y-59512200D03*
X54837500Y-59512200D03*
D28*
X66445300Y-65532000D03*
X64720300Y-65532000D03*
X66445300Y-64058800D03*
X64720300Y-64058800D03*
X65910800Y-68859400D03*
X64185800Y-68859400D03*
D13*
X79833300Y-79806800D03*
X81558300Y-79806800D03*
D24*
X74994400Y-67992300D03*
X74994400Y-66267300D03*
D13*
X63069300Y-60528200D03*
X64794300Y-60528200D03*
D36*
X57775600Y-69425000D03*
X57775600Y-68925000D03*
X57775600Y-68425000D03*
X57775600Y-67925000D03*
X57775600Y-67425000D03*
X57775600Y-66925000D03*
X57775600Y-66425000D03*
X57775600Y-65925000D03*
X57775600Y-65425000D03*
X57775600Y-64925000D03*
X57775600Y-64425000D03*
X57775600Y-63925000D03*
D37*
X57088100Y-63237500D03*
X56588100Y-63237500D03*
X56088100Y-63237500D03*
X55588100Y-63237500D03*
X55088100Y-63237500D03*
X54588100Y-63237500D03*
X54088100Y-63237500D03*
X53588100Y-63237500D03*
X53088100Y-63237500D03*
X52588100Y-63237500D03*
X52088100Y-63237500D03*
X51588100Y-63237500D03*
D36*
X50900600Y-63925000D03*
X50900600Y-64425000D03*
X50900600Y-64925000D03*
X50900600Y-65425000D03*
X50900600Y-65925000D03*
X50900600Y-66425000D03*
X50900600Y-66925000D03*
X50900600Y-67425000D03*
X50900600Y-67925000D03*
X50900600Y-68425000D03*
X50900600Y-68925000D03*
X50900600Y-69425000D03*
D37*
X51588100Y-70112500D03*
X52088100Y-70112500D03*
X52588100Y-70112500D03*
X53088100Y-70112500D03*
X53588100Y-70112500D03*
X54088100Y-70112500D03*
X54588100Y-70112500D03*
X55088100Y-70112500D03*
X55588100Y-70112500D03*
X56088100Y-70112500D03*
X56588100Y-70112500D03*
X57088100Y-70112500D03*
D38*
X54338099Y-66674999D03*
D24*
X59791600Y-73454600D03*
X59791600Y-71729600D03*
D13*
X143334400Y-48056800D03*
X145059400Y-48056800D03*
D39*
X56870600Y-91206400D03*
X56870600Y-89306400D03*
X54770600Y-90256400D03*
D30*
X66675000Y-92075000D03*
D13*
X143334400Y-79806800D03*
X145059400Y-79806800D03*
D30*
X98425000Y-41275000D03*
X130175000Y-41275000D03*
D12*
X45165000Y-60452000D03*
X46990000Y-60452000D03*
D11*
X64537999Y-51356999D03*
X64537999Y-47956999D03*
D40*
X60248799Y-77444599D03*
X59598799Y-77444599D03*
X58948799Y-77444599D03*
X58298799Y-77444599D03*
X58298799Y-80544599D03*
X58948799Y-80544599D03*
X59598799Y-80544599D03*
X60248799Y-80544599D03*
D41*
X59273799Y-78994599D03*
D13*
X58421100Y-75615800D03*
X60146100Y-75615800D03*
D30*
X66675000Y-41275000D03*
X98425000Y-92075000D03*
D42*
X71016199Y-83188999D03*
X74116199Y-83188999D03*
D24*
X48666400Y-70966500D03*
X48666400Y-69241500D03*
D43*
X59271200Y-48971200D03*
X61021200Y-48971200D03*
D13*
X79832200Y-48056800D03*
X81557200Y-48056800D03*
D27*
X46253400Y-56438800D03*
X47203400Y-56438800D03*
X48153400Y-56438800D03*
X48153400Y-54163800D03*
X46253400Y-54163800D03*
D13*
X111584400Y-48056800D03*
X113309400Y-48056800D03*
D12*
X68199300Y-72724200D03*
X70024300Y-72724200D03*
D24*
X56286400Y-80186700D03*
X56286400Y-78461700D03*
D44*
X61747399Y-68599999D03*
X61747399Y-71099999D03*
D13*
X48084400Y-79806800D03*
X49809400Y-79806800D03*
D26*
X75004600Y-69553000D03*
X75004600Y-71378000D03*
D45*
X88050000Y-50800000D03*
D46*
X82550000Y-50800000D03*
D45*
X77050000Y-50800000D03*
D47*
X80009999Y-46596999D03*
X80009999Y-45096999D03*
X85089999Y-45096999D03*
X85089999Y-46596999D03*
D48*
X82550000Y-56700000D03*
X87550000Y-54600000D03*
D45*
X119800000Y-82550000D03*
D46*
X114300000Y-82550000D03*
D45*
X108800000Y-82550000D03*
D47*
X111759999Y-78346999D03*
X111759999Y-76846999D03*
X116839999Y-76846999D03*
X116839999Y-78346999D03*
D48*
X114300000Y-88450000D03*
X119300000Y-86350000D03*
D45*
X151550000Y-50800000D03*
D46*
X146050000Y-50800000D03*
D45*
X140550000Y-50800000D03*
D47*
X143509999Y-46596999D03*
X143509999Y-45096999D03*
X148589999Y-45096999D03*
X148589999Y-46596999D03*
D48*
X146050000Y-56700000D03*
X151050000Y-54600000D03*
D45*
X151550000Y-82550000D03*
D46*
X146050000Y-82550000D03*
D45*
X140550000Y-82550000D03*
D47*
X143509999Y-78346999D03*
X143509999Y-76846999D03*
X148589999Y-76846999D03*
X148589999Y-78346999D03*
D48*
X146050000Y-88450000D03*
X151050000Y-86350000D03*
D45*
X119800000Y-50800000D03*
D46*
X114300000Y-50800000D03*
D45*
X108800000Y-50800000D03*
D47*
X111759999Y-46596999D03*
X111759999Y-45096999D03*
X116839999Y-45096999D03*
X116839999Y-46596999D03*
D48*
X114300000Y-56700000D03*
X119300000Y-54600000D03*
D45*
X56300000Y-50800000D03*
D46*
X50800000Y-50800000D03*
D45*
X45300000Y-50800000D03*
D47*
X48259999Y-46596999D03*
X48259999Y-45096999D03*
X53339999Y-45096999D03*
X53339999Y-46596999D03*
D48*
X50800000Y-56700000D03*
X55800000Y-54600000D03*
D45*
X56300000Y-82550000D03*
D46*
X50800000Y-82550000D03*
D45*
X45300000Y-82550000D03*
D47*
X48259999Y-78346999D03*
X48259999Y-76846999D03*
X53339999Y-76846999D03*
X53339999Y-78346999D03*
D48*
X50800000Y-88450000D03*
X55800000Y-86350000D03*
D45*
X88050000Y-82550000D03*
D46*
X82550000Y-82550000D03*
D45*
X77050000Y-82550000D03*
D47*
X80009999Y-78346999D03*
X80009999Y-76846999D03*
X85089999Y-76846999D03*
X85089999Y-78346999D03*
D48*
X82550000Y-88450000D03*
X87550000Y-86350000D03*
M02*
