G04 #@! TF.GenerationSoftware,KiCad,Pcbnew,(7.0.0)*
G04 #@! TF.CreationDate,2023-09-26T17:08:46-04:00*
G04 #@! TF.ProjectId,Switch Panel Rev 1,53776974-6368-4205-9061-6e656c205265,rev?*
G04 #@! TF.SameCoordinates,Original*
G04 #@! TF.FileFunction,Legend,Top*
G04 #@! TF.FilePolarity,Positive*
%FSLAX46Y46*%
G04 Gerber Fmt 4.6, Leading zero omitted, Abs format (unit mm)*
G04 Created by KiCad (PCBNEW (7.0.0)) date 2023-09-26 17:08:46*
%MOMM*%
%LPD*%
G01*
G04 APERTURE LIST*
G04 Aperture macros list*
%AMRoundRect*
0 Rectangle with rounded corners*
0 $1 Rounding radius*
0 $2 $3 $4 $5 $6 $7 $8 $9 X,Y pos of 4 corners*
0 Add a 4 corners polygon primitive as box body*
4,1,4,$2,$3,$4,$5,$6,$7,$8,$9,$2,$3,0*
0 Add four circle primitives for the rounded corners*
1,1,$1+$1,$2,$3*
1,1,$1+$1,$4,$5*
1,1,$1+$1,$6,$7*
1,1,$1+$1,$8,$9*
0 Add four rect primitives between the rounded corners*
20,1,$1+$1,$2,$3,$4,$5,0*
20,1,$1+$1,$4,$5,$6,$7,0*
20,1,$1+$1,$6,$7,$8,$9,0*
20,1,$1+$1,$8,$9,$2,$3,0*%
G04 Aperture macros list end*
%ADD10C,0.150000*%
%ADD11C,0.120000*%
%ADD12C,0.100000*%
%ADD13C,0.127000*%
%ADD14C,0.200000*%
%ADD15C,0.010000*%
%ADD16RoundRect,0.150000X0.625000X0.150000X-0.625000X0.150000X-0.625000X-0.150000X0.625000X-0.150000X0*%
%ADD17R,1.700000X0.800000*%
%ADD18RoundRect,0.237500X-0.250000X-0.237500X0.250000X-0.237500X0.250000X0.237500X-0.250000X0.237500X0*%
%ADD19RoundRect,0.237500X-0.300000X-0.237500X0.300000X-0.237500X0.300000X0.237500X-0.300000X0.237500X0*%
%ADD20R,0.650000X1.560000*%
%ADD21C,0.600000*%
%ADD22R,2.000000X1.000000*%
%ADD23O,0.600000X0.850000*%
%ADD24R,1.000000X0.520000*%
%ADD25R,1.000000X0.270000*%
%ADD26O,2.300000X1.300000*%
%ADD27O,2.600000X1.300000*%
%ADD28RoundRect,0.250000X0.337500X0.475000X-0.337500X0.475000X-0.337500X-0.475000X0.337500X-0.475000X0*%
%ADD29RoundRect,0.237500X-0.237500X0.300000X-0.237500X-0.300000X0.237500X-0.300000X0.237500X0.300000X0*%
%ADD30RoundRect,0.237500X0.237500X-0.300000X0.237500X0.300000X-0.237500X0.300000X-0.237500X-0.300000X0*%
%ADD31R,1.300000X1.600000*%
%ADD32RoundRect,0.237500X-0.237500X0.250000X-0.237500X-0.250000X0.237500X-0.250000X0.237500X0.250000X0*%
%ADD33RoundRect,0.150000X0.150000X-0.512500X0.150000X0.512500X-0.150000X0.512500X-0.150000X-0.512500X0*%
%ADD34RoundRect,0.237500X0.300000X0.237500X-0.300000X0.237500X-0.300000X-0.237500X0.300000X-0.237500X0*%
%ADD35RoundRect,0.237500X0.250000X0.237500X-0.250000X0.237500X-0.250000X-0.237500X0.250000X-0.237500X0*%
%ADD36C,3.200000*%
%ADD37RoundRect,0.012800X-0.317200X-0.147200X0.317200X-0.147200X0.317200X0.147200X-0.317200X0.147200X0*%
%ADD38C,4.000000*%
%ADD39C,2.100000*%
%ADD40C,0.990600*%
%ADD41C,0.787400*%
%ADD42RoundRect,0.062500X0.375000X0.062500X-0.375000X0.062500X-0.375000X-0.062500X0.375000X-0.062500X0*%
%ADD43RoundRect,0.062500X0.062500X0.375000X-0.062500X0.375000X-0.062500X-0.375000X0.062500X-0.375000X0*%
%ADD44R,5.600000X5.600000*%
%ADD45RoundRect,0.070000X0.650000X0.300000X-0.650000X0.300000X-0.650000X-0.300000X0.650000X-0.300000X0*%
%ADD46R,0.350000X0.650000*%
%ADD47R,2.400000X1.550000*%
%ADD48R,1.200000X3.300000*%
%ADD49RoundRect,0.237500X-0.287500X-0.237500X0.287500X-0.237500X0.287500X0.237500X-0.287500X0.237500X0*%
%ADD50R,1.800000X1.000000*%
%ADD51C,1.900000*%
%ADD52C,3.400000*%
%ADD53R,1.200000X0.900000*%
%ADD54C,2.200000*%
G04 APERTURE END LIST*
D10*
X77111123Y-68419542D02*
X77063504Y-68467161D01*
X77063504Y-68467161D02*
X76920647Y-68514780D01*
X76920647Y-68514780D02*
X76825409Y-68514780D01*
X76825409Y-68514780D02*
X76682552Y-68467161D01*
X76682552Y-68467161D02*
X76587314Y-68371923D01*
X76587314Y-68371923D02*
X76539695Y-68276685D01*
X76539695Y-68276685D02*
X76492076Y-68086209D01*
X76492076Y-68086209D02*
X76492076Y-67943352D01*
X76492076Y-67943352D02*
X76539695Y-67752876D01*
X76539695Y-67752876D02*
X76587314Y-67657638D01*
X76587314Y-67657638D02*
X76682552Y-67562400D01*
X76682552Y-67562400D02*
X76825409Y-67514780D01*
X76825409Y-67514780D02*
X76920647Y-67514780D01*
X76920647Y-67514780D02*
X77063504Y-67562400D01*
X77063504Y-67562400D02*
X77111123Y-67610019D01*
X77968266Y-68514780D02*
X77968266Y-67990971D01*
X77968266Y-67990971D02*
X77920647Y-67895733D01*
X77920647Y-67895733D02*
X77825409Y-67848114D01*
X77825409Y-67848114D02*
X77634933Y-67848114D01*
X77634933Y-67848114D02*
X77539695Y-67895733D01*
X77968266Y-68467161D02*
X77873028Y-68514780D01*
X77873028Y-68514780D02*
X77634933Y-68514780D01*
X77634933Y-68514780D02*
X77539695Y-68467161D01*
X77539695Y-68467161D02*
X77492076Y-68371923D01*
X77492076Y-68371923D02*
X77492076Y-68276685D01*
X77492076Y-68276685D02*
X77539695Y-68181447D01*
X77539695Y-68181447D02*
X77634933Y-68133828D01*
X77634933Y-68133828D02*
X77873028Y-68133828D01*
X77873028Y-68133828D02*
X77968266Y-68086209D01*
X78444457Y-67848114D02*
X78444457Y-68514780D01*
X78444457Y-67943352D02*
X78492076Y-67895733D01*
X78492076Y-67895733D02*
X78587314Y-67848114D01*
X78587314Y-67848114D02*
X78730171Y-67848114D01*
X78730171Y-67848114D02*
X78825409Y-67895733D01*
X78825409Y-67895733D02*
X78873028Y-67990971D01*
X78873028Y-67990971D02*
X78873028Y-68514780D01*
X79825409Y-68514780D02*
X79349219Y-68514780D01*
X79349219Y-68514780D02*
X79349219Y-67514780D01*
X80301600Y-68514780D02*
X80206362Y-68467161D01*
X80206362Y-68467161D02*
X80158743Y-68419542D01*
X80158743Y-68419542D02*
X80111124Y-68324304D01*
X80111124Y-68324304D02*
X80111124Y-68038590D01*
X80111124Y-68038590D02*
X80158743Y-67943352D01*
X80158743Y-67943352D02*
X80206362Y-67895733D01*
X80206362Y-67895733D02*
X80301600Y-67848114D01*
X80301600Y-67848114D02*
X80444457Y-67848114D01*
X80444457Y-67848114D02*
X80539695Y-67895733D01*
X80539695Y-67895733D02*
X80587314Y-67943352D01*
X80587314Y-67943352D02*
X80634933Y-68038590D01*
X80634933Y-68038590D02*
X80634933Y-68324304D01*
X80634933Y-68324304D02*
X80587314Y-68419542D01*
X80587314Y-68419542D02*
X80539695Y-68467161D01*
X80539695Y-68467161D02*
X80444457Y-68514780D01*
X80444457Y-68514780D02*
X80301600Y-68514780D01*
X67779828Y-46248571D02*
X67922685Y-46296190D01*
X67922685Y-46296190D02*
X67970304Y-46343809D01*
X67970304Y-46343809D02*
X68017923Y-46439047D01*
X68017923Y-46439047D02*
X68017923Y-46581904D01*
X68017923Y-46581904D02*
X67970304Y-46677142D01*
X67970304Y-46677142D02*
X67922685Y-46724761D01*
X67922685Y-46724761D02*
X67827447Y-46772380D01*
X67827447Y-46772380D02*
X67446495Y-46772380D01*
X67446495Y-46772380D02*
X67446495Y-45772380D01*
X67446495Y-45772380D02*
X67779828Y-45772380D01*
X67779828Y-45772380D02*
X67875066Y-45820000D01*
X67875066Y-45820000D02*
X67922685Y-45867619D01*
X67922685Y-45867619D02*
X67970304Y-45962857D01*
X67970304Y-45962857D02*
X67970304Y-46058095D01*
X67970304Y-46058095D02*
X67922685Y-46153333D01*
X67922685Y-46153333D02*
X67875066Y-46200952D01*
X67875066Y-46200952D02*
X67779828Y-46248571D01*
X67779828Y-46248571D02*
X67446495Y-46248571D01*
X68589352Y-46772380D02*
X68494114Y-46724761D01*
X68494114Y-46724761D02*
X68446495Y-46677142D01*
X68446495Y-46677142D02*
X68398876Y-46581904D01*
X68398876Y-46581904D02*
X68398876Y-46296190D01*
X68398876Y-46296190D02*
X68446495Y-46200952D01*
X68446495Y-46200952D02*
X68494114Y-46153333D01*
X68494114Y-46153333D02*
X68589352Y-46105714D01*
X68589352Y-46105714D02*
X68732209Y-46105714D01*
X68732209Y-46105714D02*
X68827447Y-46153333D01*
X68827447Y-46153333D02*
X68875066Y-46200952D01*
X68875066Y-46200952D02*
X68922685Y-46296190D01*
X68922685Y-46296190D02*
X68922685Y-46581904D01*
X68922685Y-46581904D02*
X68875066Y-46677142D01*
X68875066Y-46677142D02*
X68827447Y-46724761D01*
X68827447Y-46724761D02*
X68732209Y-46772380D01*
X68732209Y-46772380D02*
X68589352Y-46772380D01*
X69494114Y-46772380D02*
X69398876Y-46724761D01*
X69398876Y-46724761D02*
X69351257Y-46677142D01*
X69351257Y-46677142D02*
X69303638Y-46581904D01*
X69303638Y-46581904D02*
X69303638Y-46296190D01*
X69303638Y-46296190D02*
X69351257Y-46200952D01*
X69351257Y-46200952D02*
X69398876Y-46153333D01*
X69398876Y-46153333D02*
X69494114Y-46105714D01*
X69494114Y-46105714D02*
X69636971Y-46105714D01*
X69636971Y-46105714D02*
X69732209Y-46153333D01*
X69732209Y-46153333D02*
X69779828Y-46200952D01*
X69779828Y-46200952D02*
X69827447Y-46296190D01*
X69827447Y-46296190D02*
X69827447Y-46581904D01*
X69827447Y-46581904D02*
X69779828Y-46677142D01*
X69779828Y-46677142D02*
X69732209Y-46724761D01*
X69732209Y-46724761D02*
X69636971Y-46772380D01*
X69636971Y-46772380D02*
X69494114Y-46772380D01*
X70113162Y-46105714D02*
X70494114Y-46105714D01*
X70256019Y-45772380D02*
X70256019Y-46629523D01*
X70256019Y-46629523D02*
X70303638Y-46724761D01*
X70303638Y-46724761D02*
X70398876Y-46772380D01*
X70398876Y-46772380D02*
X70494114Y-46772380D01*
X70589353Y-46867619D02*
X71351257Y-46867619D01*
X71779829Y-45772380D02*
X71875067Y-45772380D01*
X71875067Y-45772380D02*
X71970305Y-45820000D01*
X71970305Y-45820000D02*
X72017924Y-45867619D01*
X72017924Y-45867619D02*
X72065543Y-45962857D01*
X72065543Y-45962857D02*
X72113162Y-46153333D01*
X72113162Y-46153333D02*
X72113162Y-46391428D01*
X72113162Y-46391428D02*
X72065543Y-46581904D01*
X72065543Y-46581904D02*
X72017924Y-46677142D01*
X72017924Y-46677142D02*
X71970305Y-46724761D01*
X71970305Y-46724761D02*
X71875067Y-46772380D01*
X71875067Y-46772380D02*
X71779829Y-46772380D01*
X71779829Y-46772380D02*
X71684591Y-46724761D01*
X71684591Y-46724761D02*
X71636972Y-46677142D01*
X71636972Y-46677142D02*
X71589353Y-46581904D01*
X71589353Y-46581904D02*
X71541734Y-46391428D01*
X71541734Y-46391428D02*
X71541734Y-46153333D01*
X71541734Y-46153333D02*
X71589353Y-45962857D01*
X71589353Y-45962857D02*
X71636972Y-45867619D01*
X71636972Y-45867619D02*
X71684591Y-45820000D01*
X71684591Y-45820000D02*
X71779829Y-45772380D01*
X77263523Y-71492942D02*
X77215904Y-71540561D01*
X77215904Y-71540561D02*
X77073047Y-71588180D01*
X77073047Y-71588180D02*
X76977809Y-71588180D01*
X76977809Y-71588180D02*
X76834952Y-71540561D01*
X76834952Y-71540561D02*
X76739714Y-71445323D01*
X76739714Y-71445323D02*
X76692095Y-71350085D01*
X76692095Y-71350085D02*
X76644476Y-71159609D01*
X76644476Y-71159609D02*
X76644476Y-71016752D01*
X76644476Y-71016752D02*
X76692095Y-70826276D01*
X76692095Y-70826276D02*
X76739714Y-70731038D01*
X76739714Y-70731038D02*
X76834952Y-70635800D01*
X76834952Y-70635800D02*
X76977809Y-70588180D01*
X76977809Y-70588180D02*
X77073047Y-70588180D01*
X77073047Y-70588180D02*
X77215904Y-70635800D01*
X77215904Y-70635800D02*
X77263523Y-70683419D01*
X78120666Y-71588180D02*
X78120666Y-71064371D01*
X78120666Y-71064371D02*
X78073047Y-70969133D01*
X78073047Y-70969133D02*
X77977809Y-70921514D01*
X77977809Y-70921514D02*
X77787333Y-70921514D01*
X77787333Y-70921514D02*
X77692095Y-70969133D01*
X78120666Y-71540561D02*
X78025428Y-71588180D01*
X78025428Y-71588180D02*
X77787333Y-71588180D01*
X77787333Y-71588180D02*
X77692095Y-71540561D01*
X77692095Y-71540561D02*
X77644476Y-71445323D01*
X77644476Y-71445323D02*
X77644476Y-71350085D01*
X77644476Y-71350085D02*
X77692095Y-71254847D01*
X77692095Y-71254847D02*
X77787333Y-71207228D01*
X77787333Y-71207228D02*
X78025428Y-71207228D01*
X78025428Y-71207228D02*
X78120666Y-71159609D01*
X78596857Y-70921514D02*
X78596857Y-71588180D01*
X78596857Y-71016752D02*
X78644476Y-70969133D01*
X78644476Y-70969133D02*
X78739714Y-70921514D01*
X78739714Y-70921514D02*
X78882571Y-70921514D01*
X78882571Y-70921514D02*
X78977809Y-70969133D01*
X78977809Y-70969133D02*
X79025428Y-71064371D01*
X79025428Y-71064371D02*
X79025428Y-71588180D01*
X79501619Y-71588180D02*
X79501619Y-70588180D01*
X79501619Y-71064371D02*
X80073047Y-71064371D01*
X80073047Y-71588180D02*
X80073047Y-70588180D01*
X80549238Y-71588180D02*
X80549238Y-70921514D01*
X80549238Y-70588180D02*
X80501619Y-70635800D01*
X80501619Y-70635800D02*
X80549238Y-70683419D01*
X80549238Y-70683419D02*
X80596857Y-70635800D01*
X80596857Y-70635800D02*
X80549238Y-70588180D01*
X80549238Y-70588180D02*
X80549238Y-70683419D01*
X77022295Y-65365228D02*
X77784200Y-65365228D01*
X77403247Y-65746180D02*
X77403247Y-64984276D01*
X78784199Y-65746180D02*
X78212771Y-65746180D01*
X78498485Y-65746180D02*
X78498485Y-64746180D01*
X78498485Y-64746180D02*
X78403247Y-64889038D01*
X78403247Y-64889038D02*
X78308009Y-64984276D01*
X78308009Y-64984276D02*
X78212771Y-65031895D01*
X79165152Y-64841419D02*
X79212771Y-64793800D01*
X79212771Y-64793800D02*
X79308009Y-64746180D01*
X79308009Y-64746180D02*
X79546104Y-64746180D01*
X79546104Y-64746180D02*
X79641342Y-64793800D01*
X79641342Y-64793800D02*
X79688961Y-64841419D01*
X79688961Y-64841419D02*
X79736580Y-64936657D01*
X79736580Y-64936657D02*
X79736580Y-65031895D01*
X79736580Y-65031895D02*
X79688961Y-65174752D01*
X79688961Y-65174752D02*
X79117533Y-65746180D01*
X79117533Y-65746180D02*
X79736580Y-65746180D01*
X80022295Y-64746180D02*
X80355628Y-65746180D01*
X80355628Y-65746180D02*
X80688961Y-64746180D01*
X62785523Y-46772380D02*
X62452190Y-46296190D01*
X62214095Y-46772380D02*
X62214095Y-45772380D01*
X62214095Y-45772380D02*
X62595047Y-45772380D01*
X62595047Y-45772380D02*
X62690285Y-45820000D01*
X62690285Y-45820000D02*
X62737904Y-45867619D01*
X62737904Y-45867619D02*
X62785523Y-45962857D01*
X62785523Y-45962857D02*
X62785523Y-46105714D01*
X62785523Y-46105714D02*
X62737904Y-46200952D01*
X62737904Y-46200952D02*
X62690285Y-46248571D01*
X62690285Y-46248571D02*
X62595047Y-46296190D01*
X62595047Y-46296190D02*
X62214095Y-46296190D01*
X63595047Y-46724761D02*
X63499809Y-46772380D01*
X63499809Y-46772380D02*
X63309333Y-46772380D01*
X63309333Y-46772380D02*
X63214095Y-46724761D01*
X63214095Y-46724761D02*
X63166476Y-46629523D01*
X63166476Y-46629523D02*
X63166476Y-46248571D01*
X63166476Y-46248571D02*
X63214095Y-46153333D01*
X63214095Y-46153333D02*
X63309333Y-46105714D01*
X63309333Y-46105714D02*
X63499809Y-46105714D01*
X63499809Y-46105714D02*
X63595047Y-46153333D01*
X63595047Y-46153333D02*
X63642666Y-46248571D01*
X63642666Y-46248571D02*
X63642666Y-46343809D01*
X63642666Y-46343809D02*
X63166476Y-46439047D01*
X64023619Y-46724761D02*
X64118857Y-46772380D01*
X64118857Y-46772380D02*
X64309333Y-46772380D01*
X64309333Y-46772380D02*
X64404571Y-46724761D01*
X64404571Y-46724761D02*
X64452190Y-46629523D01*
X64452190Y-46629523D02*
X64452190Y-46581904D01*
X64452190Y-46581904D02*
X64404571Y-46486666D01*
X64404571Y-46486666D02*
X64309333Y-46439047D01*
X64309333Y-46439047D02*
X64166476Y-46439047D01*
X64166476Y-46439047D02*
X64071238Y-46391428D01*
X64071238Y-46391428D02*
X64023619Y-46296190D01*
X64023619Y-46296190D02*
X64023619Y-46248571D01*
X64023619Y-46248571D02*
X64071238Y-46153333D01*
X64071238Y-46153333D02*
X64166476Y-46105714D01*
X64166476Y-46105714D02*
X64309333Y-46105714D01*
X64309333Y-46105714D02*
X64404571Y-46153333D01*
X65261714Y-46724761D02*
X65166476Y-46772380D01*
X65166476Y-46772380D02*
X64976000Y-46772380D01*
X64976000Y-46772380D02*
X64880762Y-46724761D01*
X64880762Y-46724761D02*
X64833143Y-46629523D01*
X64833143Y-46629523D02*
X64833143Y-46248571D01*
X64833143Y-46248571D02*
X64880762Y-46153333D01*
X64880762Y-46153333D02*
X64976000Y-46105714D01*
X64976000Y-46105714D02*
X65166476Y-46105714D01*
X65166476Y-46105714D02*
X65261714Y-46153333D01*
X65261714Y-46153333D02*
X65309333Y-46248571D01*
X65309333Y-46248571D02*
X65309333Y-46343809D01*
X65309333Y-46343809D02*
X64833143Y-46439047D01*
X65595048Y-46105714D02*
X65976000Y-46105714D01*
X65737905Y-45772380D02*
X65737905Y-46629523D01*
X65737905Y-46629523D02*
X65785524Y-46724761D01*
X65785524Y-46724761D02*
X65880762Y-46772380D01*
X65880762Y-46772380D02*
X65976000Y-46772380D01*
X78612904Y-61669600D02*
X78517666Y-61621980D01*
X78517666Y-61621980D02*
X78374809Y-61621980D01*
X78374809Y-61621980D02*
X78231952Y-61669600D01*
X78231952Y-61669600D02*
X78136714Y-61764838D01*
X78136714Y-61764838D02*
X78089095Y-61860076D01*
X78089095Y-61860076D02*
X78041476Y-62050552D01*
X78041476Y-62050552D02*
X78041476Y-62193409D01*
X78041476Y-62193409D02*
X78089095Y-62383885D01*
X78089095Y-62383885D02*
X78136714Y-62479123D01*
X78136714Y-62479123D02*
X78231952Y-62574361D01*
X78231952Y-62574361D02*
X78374809Y-62621980D01*
X78374809Y-62621980D02*
X78470047Y-62621980D01*
X78470047Y-62621980D02*
X78612904Y-62574361D01*
X78612904Y-62574361D02*
X78660523Y-62526742D01*
X78660523Y-62526742D02*
X78660523Y-62193409D01*
X78660523Y-62193409D02*
X78470047Y-62193409D01*
X79089095Y-61955314D02*
X79089095Y-62621980D01*
X79089095Y-62050552D02*
X79136714Y-62002933D01*
X79136714Y-62002933D02*
X79231952Y-61955314D01*
X79231952Y-61955314D02*
X79374809Y-61955314D01*
X79374809Y-61955314D02*
X79470047Y-62002933D01*
X79470047Y-62002933D02*
X79517666Y-62098171D01*
X79517666Y-62098171D02*
X79517666Y-62621980D01*
X80422428Y-62621980D02*
X80422428Y-61621980D01*
X80422428Y-62574361D02*
X80327190Y-62621980D01*
X80327190Y-62621980D02*
X80136714Y-62621980D01*
X80136714Y-62621980D02*
X80041476Y-62574361D01*
X80041476Y-62574361D02*
X79993857Y-62526742D01*
X79993857Y-62526742D02*
X79946238Y-62431504D01*
X79946238Y-62431504D02*
X79946238Y-62145790D01*
X79946238Y-62145790D02*
X79993857Y-62050552D01*
X79993857Y-62050552D02*
X80041476Y-62002933D01*
X80041476Y-62002933D02*
X80136714Y-61955314D01*
X80136714Y-61955314D02*
X80327190Y-61955314D01*
X80327190Y-61955314D02*
X80422428Y-62002933D01*
X126098276Y-71292161D02*
X126241133Y-71339780D01*
X126241133Y-71339780D02*
X126479228Y-71339780D01*
X126479228Y-71339780D02*
X126574466Y-71292161D01*
X126574466Y-71292161D02*
X126622085Y-71244542D01*
X126622085Y-71244542D02*
X126669704Y-71149304D01*
X126669704Y-71149304D02*
X126669704Y-71054066D01*
X126669704Y-71054066D02*
X126622085Y-70958828D01*
X126622085Y-70958828D02*
X126574466Y-70911209D01*
X126574466Y-70911209D02*
X126479228Y-70863590D01*
X126479228Y-70863590D02*
X126288752Y-70815971D01*
X126288752Y-70815971D02*
X126193514Y-70768352D01*
X126193514Y-70768352D02*
X126145895Y-70720733D01*
X126145895Y-70720733D02*
X126098276Y-70625495D01*
X126098276Y-70625495D02*
X126098276Y-70530257D01*
X126098276Y-70530257D02*
X126145895Y-70435019D01*
X126145895Y-70435019D02*
X126193514Y-70387400D01*
X126193514Y-70387400D02*
X126288752Y-70339780D01*
X126288752Y-70339780D02*
X126526847Y-70339780D01*
X126526847Y-70339780D02*
X126669704Y-70387400D01*
X127003038Y-70673114D02*
X127193514Y-71339780D01*
X127193514Y-71339780D02*
X127383990Y-70863590D01*
X127383990Y-70863590D02*
X127574466Y-71339780D01*
X127574466Y-71339780D02*
X127764942Y-70673114D01*
X128145895Y-71339780D02*
X128145895Y-70673114D01*
X128145895Y-70339780D02*
X128098276Y-70387400D01*
X128098276Y-70387400D02*
X128145895Y-70435019D01*
X128145895Y-70435019D02*
X128193514Y-70387400D01*
X128193514Y-70387400D02*
X128145895Y-70339780D01*
X128145895Y-70339780D02*
X128145895Y-70435019D01*
X128479228Y-70673114D02*
X128860180Y-70673114D01*
X128622085Y-70339780D02*
X128622085Y-71196923D01*
X128622085Y-71196923D02*
X128669704Y-71292161D01*
X128669704Y-71292161D02*
X128764942Y-71339780D01*
X128764942Y-71339780D02*
X128860180Y-71339780D01*
X129622085Y-71292161D02*
X129526847Y-71339780D01*
X129526847Y-71339780D02*
X129336371Y-71339780D01*
X129336371Y-71339780D02*
X129241133Y-71292161D01*
X129241133Y-71292161D02*
X129193514Y-71244542D01*
X129193514Y-71244542D02*
X129145895Y-71149304D01*
X129145895Y-71149304D02*
X129145895Y-70863590D01*
X129145895Y-70863590D02*
X129193514Y-70768352D01*
X129193514Y-70768352D02*
X129241133Y-70720733D01*
X129241133Y-70720733D02*
X129336371Y-70673114D01*
X129336371Y-70673114D02*
X129526847Y-70673114D01*
X129526847Y-70673114D02*
X129622085Y-70720733D01*
X130050657Y-71339780D02*
X130050657Y-70339780D01*
X130479228Y-71339780D02*
X130479228Y-70815971D01*
X130479228Y-70815971D02*
X130431609Y-70720733D01*
X130431609Y-70720733D02*
X130336371Y-70673114D01*
X130336371Y-70673114D02*
X130193514Y-70673114D01*
X130193514Y-70673114D02*
X130098276Y-70720733D01*
X130098276Y-70720733D02*
X130050657Y-70768352D01*
X131555419Y-71339780D02*
X131555419Y-70339780D01*
X131555419Y-70339780D02*
X131936371Y-70339780D01*
X131936371Y-70339780D02*
X132031609Y-70387400D01*
X132031609Y-70387400D02*
X132079228Y-70435019D01*
X132079228Y-70435019D02*
X132126847Y-70530257D01*
X132126847Y-70530257D02*
X132126847Y-70673114D01*
X132126847Y-70673114D02*
X132079228Y-70768352D01*
X132079228Y-70768352D02*
X132031609Y-70815971D01*
X132031609Y-70815971D02*
X131936371Y-70863590D01*
X131936371Y-70863590D02*
X131555419Y-70863590D01*
X132983990Y-71339780D02*
X132983990Y-70815971D01*
X132983990Y-70815971D02*
X132936371Y-70720733D01*
X132936371Y-70720733D02*
X132841133Y-70673114D01*
X132841133Y-70673114D02*
X132650657Y-70673114D01*
X132650657Y-70673114D02*
X132555419Y-70720733D01*
X132983990Y-71292161D02*
X132888752Y-71339780D01*
X132888752Y-71339780D02*
X132650657Y-71339780D01*
X132650657Y-71339780D02*
X132555419Y-71292161D01*
X132555419Y-71292161D02*
X132507800Y-71196923D01*
X132507800Y-71196923D02*
X132507800Y-71101685D01*
X132507800Y-71101685D02*
X132555419Y-71006447D01*
X132555419Y-71006447D02*
X132650657Y-70958828D01*
X132650657Y-70958828D02*
X132888752Y-70958828D01*
X132888752Y-70958828D02*
X132983990Y-70911209D01*
X133460181Y-70673114D02*
X133460181Y-71339780D01*
X133460181Y-70768352D02*
X133507800Y-70720733D01*
X133507800Y-70720733D02*
X133603038Y-70673114D01*
X133603038Y-70673114D02*
X133745895Y-70673114D01*
X133745895Y-70673114D02*
X133841133Y-70720733D01*
X133841133Y-70720733D02*
X133888752Y-70815971D01*
X133888752Y-70815971D02*
X133888752Y-71339780D01*
X134745895Y-71292161D02*
X134650657Y-71339780D01*
X134650657Y-71339780D02*
X134460181Y-71339780D01*
X134460181Y-71339780D02*
X134364943Y-71292161D01*
X134364943Y-71292161D02*
X134317324Y-71196923D01*
X134317324Y-71196923D02*
X134317324Y-70815971D01*
X134317324Y-70815971D02*
X134364943Y-70720733D01*
X134364943Y-70720733D02*
X134460181Y-70673114D01*
X134460181Y-70673114D02*
X134650657Y-70673114D01*
X134650657Y-70673114D02*
X134745895Y-70720733D01*
X134745895Y-70720733D02*
X134793514Y-70815971D01*
X134793514Y-70815971D02*
X134793514Y-70911209D01*
X134793514Y-70911209D02*
X134317324Y-71006447D01*
X135364943Y-71339780D02*
X135269705Y-71292161D01*
X135269705Y-71292161D02*
X135222086Y-71196923D01*
X135222086Y-71196923D02*
X135222086Y-70339780D01*
X136345896Y-70958828D02*
X137107801Y-70958828D01*
X138755419Y-71339780D02*
X138422086Y-70863590D01*
X138183991Y-71339780D02*
X138183991Y-70339780D01*
X138183991Y-70339780D02*
X138564943Y-70339780D01*
X138564943Y-70339780D02*
X138660181Y-70387400D01*
X138660181Y-70387400D02*
X138707800Y-70435019D01*
X138707800Y-70435019D02*
X138755419Y-70530257D01*
X138755419Y-70530257D02*
X138755419Y-70673114D01*
X138755419Y-70673114D02*
X138707800Y-70768352D01*
X138707800Y-70768352D02*
X138660181Y-70815971D01*
X138660181Y-70815971D02*
X138564943Y-70863590D01*
X138564943Y-70863590D02*
X138183991Y-70863590D01*
X139564943Y-71292161D02*
X139469705Y-71339780D01*
X139469705Y-71339780D02*
X139279229Y-71339780D01*
X139279229Y-71339780D02*
X139183991Y-71292161D01*
X139183991Y-71292161D02*
X139136372Y-71196923D01*
X139136372Y-71196923D02*
X139136372Y-70815971D01*
X139136372Y-70815971D02*
X139183991Y-70720733D01*
X139183991Y-70720733D02*
X139279229Y-70673114D01*
X139279229Y-70673114D02*
X139469705Y-70673114D01*
X139469705Y-70673114D02*
X139564943Y-70720733D01*
X139564943Y-70720733D02*
X139612562Y-70815971D01*
X139612562Y-70815971D02*
X139612562Y-70911209D01*
X139612562Y-70911209D02*
X139136372Y-71006447D01*
X139945896Y-70673114D02*
X140183991Y-71339780D01*
X140183991Y-71339780D02*
X140422086Y-70673114D01*
X141926848Y-71339780D02*
X141355420Y-71339780D01*
X141641134Y-71339780D02*
X141641134Y-70339780D01*
X141641134Y-70339780D02*
X141545896Y-70482638D01*
X141545896Y-70482638D02*
X141450658Y-70577876D01*
X141450658Y-70577876D02*
X141355420Y-70625495D01*
X126098276Y-72055019D02*
X126145895Y-72007400D01*
X126145895Y-72007400D02*
X126241133Y-71959780D01*
X126241133Y-71959780D02*
X126479228Y-71959780D01*
X126479228Y-71959780D02*
X126574466Y-72007400D01*
X126574466Y-72007400D02*
X126622085Y-72055019D01*
X126622085Y-72055019D02*
X126669704Y-72150257D01*
X126669704Y-72150257D02*
X126669704Y-72245495D01*
X126669704Y-72245495D02*
X126622085Y-72388352D01*
X126622085Y-72388352D02*
X126050657Y-72959780D01*
X126050657Y-72959780D02*
X126669704Y-72959780D01*
X127288752Y-71959780D02*
X127383990Y-71959780D01*
X127383990Y-71959780D02*
X127479228Y-72007400D01*
X127479228Y-72007400D02*
X127526847Y-72055019D01*
X127526847Y-72055019D02*
X127574466Y-72150257D01*
X127574466Y-72150257D02*
X127622085Y-72340733D01*
X127622085Y-72340733D02*
X127622085Y-72578828D01*
X127622085Y-72578828D02*
X127574466Y-72769304D01*
X127574466Y-72769304D02*
X127526847Y-72864542D01*
X127526847Y-72864542D02*
X127479228Y-72912161D01*
X127479228Y-72912161D02*
X127383990Y-72959780D01*
X127383990Y-72959780D02*
X127288752Y-72959780D01*
X127288752Y-72959780D02*
X127193514Y-72912161D01*
X127193514Y-72912161D02*
X127145895Y-72864542D01*
X127145895Y-72864542D02*
X127098276Y-72769304D01*
X127098276Y-72769304D02*
X127050657Y-72578828D01*
X127050657Y-72578828D02*
X127050657Y-72340733D01*
X127050657Y-72340733D02*
X127098276Y-72150257D01*
X127098276Y-72150257D02*
X127145895Y-72055019D01*
X127145895Y-72055019D02*
X127193514Y-72007400D01*
X127193514Y-72007400D02*
X127288752Y-71959780D01*
X128003038Y-72055019D02*
X128050657Y-72007400D01*
X128050657Y-72007400D02*
X128145895Y-71959780D01*
X128145895Y-71959780D02*
X128383990Y-71959780D01*
X128383990Y-71959780D02*
X128479228Y-72007400D01*
X128479228Y-72007400D02*
X128526847Y-72055019D01*
X128526847Y-72055019D02*
X128574466Y-72150257D01*
X128574466Y-72150257D02*
X128574466Y-72245495D01*
X128574466Y-72245495D02*
X128526847Y-72388352D01*
X128526847Y-72388352D02*
X127955419Y-72959780D01*
X127955419Y-72959780D02*
X128574466Y-72959780D01*
X128907800Y-71959780D02*
X129526847Y-71959780D01*
X129526847Y-71959780D02*
X129193514Y-72340733D01*
X129193514Y-72340733D02*
X129336371Y-72340733D01*
X129336371Y-72340733D02*
X129431609Y-72388352D01*
X129431609Y-72388352D02*
X129479228Y-72435971D01*
X129479228Y-72435971D02*
X129526847Y-72531209D01*
X129526847Y-72531209D02*
X129526847Y-72769304D01*
X129526847Y-72769304D02*
X129479228Y-72864542D01*
X129479228Y-72864542D02*
X129431609Y-72912161D01*
X129431609Y-72912161D02*
X129336371Y-72959780D01*
X129336371Y-72959780D02*
X129050657Y-72959780D01*
X129050657Y-72959780D02*
X128955419Y-72912161D01*
X128955419Y-72912161D02*
X128907800Y-72864542D01*
X62204695Y-52961380D02*
X62204695Y-53770904D01*
X62204695Y-53770904D02*
X62252314Y-53866142D01*
X62252314Y-53866142D02*
X62299933Y-53913761D01*
X62299933Y-53913761D02*
X62395171Y-53961380D01*
X62395171Y-53961380D02*
X62585647Y-53961380D01*
X62585647Y-53961380D02*
X62680885Y-53913761D01*
X62680885Y-53913761D02*
X62728504Y-53866142D01*
X62728504Y-53866142D02*
X62776123Y-53770904D01*
X62776123Y-53770904D02*
X62776123Y-52961380D01*
X63204695Y-53056619D02*
X63252314Y-53009000D01*
X63252314Y-53009000D02*
X63347552Y-52961380D01*
X63347552Y-52961380D02*
X63585647Y-52961380D01*
X63585647Y-52961380D02*
X63680885Y-53009000D01*
X63680885Y-53009000D02*
X63728504Y-53056619D01*
X63728504Y-53056619D02*
X63776123Y-53151857D01*
X63776123Y-53151857D02*
X63776123Y-53247095D01*
X63776123Y-53247095D02*
X63728504Y-53389952D01*
X63728504Y-53389952D02*
X63157076Y-53961380D01*
X63157076Y-53961380D02*
X63776123Y-53961380D01*
X47712333Y-64672580D02*
X47379000Y-64196390D01*
X47140905Y-64672580D02*
X47140905Y-63672580D01*
X47140905Y-63672580D02*
X47521857Y-63672580D01*
X47521857Y-63672580D02*
X47617095Y-63720200D01*
X47617095Y-63720200D02*
X47664714Y-63767819D01*
X47664714Y-63767819D02*
X47712333Y-63863057D01*
X47712333Y-63863057D02*
X47712333Y-64005914D01*
X47712333Y-64005914D02*
X47664714Y-64101152D01*
X47664714Y-64101152D02*
X47617095Y-64148771D01*
X47617095Y-64148771D02*
X47521857Y-64196390D01*
X47521857Y-64196390D02*
X47140905Y-64196390D01*
X48569476Y-64005914D02*
X48569476Y-64672580D01*
X48331381Y-63624961D02*
X48093286Y-64339247D01*
X48093286Y-64339247D02*
X48712333Y-64339247D01*
X108602542Y-80713942D02*
X108554923Y-80761561D01*
X108554923Y-80761561D02*
X108412066Y-80809180D01*
X108412066Y-80809180D02*
X108316828Y-80809180D01*
X108316828Y-80809180D02*
X108173971Y-80761561D01*
X108173971Y-80761561D02*
X108078733Y-80666323D01*
X108078733Y-80666323D02*
X108031114Y-80571085D01*
X108031114Y-80571085D02*
X107983495Y-80380609D01*
X107983495Y-80380609D02*
X107983495Y-80237752D01*
X107983495Y-80237752D02*
X108031114Y-80047276D01*
X108031114Y-80047276D02*
X108078733Y-79952038D01*
X108078733Y-79952038D02*
X108173971Y-79856800D01*
X108173971Y-79856800D02*
X108316828Y-79809180D01*
X108316828Y-79809180D02*
X108412066Y-79809180D01*
X108412066Y-79809180D02*
X108554923Y-79856800D01*
X108554923Y-79856800D02*
X108602542Y-79904419D01*
X108983495Y-79904419D02*
X109031114Y-79856800D01*
X109031114Y-79856800D02*
X109126352Y-79809180D01*
X109126352Y-79809180D02*
X109364447Y-79809180D01*
X109364447Y-79809180D02*
X109459685Y-79856800D01*
X109459685Y-79856800D02*
X109507304Y-79904419D01*
X109507304Y-79904419D02*
X109554923Y-79999657D01*
X109554923Y-79999657D02*
X109554923Y-80094895D01*
X109554923Y-80094895D02*
X109507304Y-80237752D01*
X109507304Y-80237752D02*
X108935876Y-80809180D01*
X108935876Y-80809180D02*
X109554923Y-80809180D01*
X110459685Y-79809180D02*
X109983495Y-79809180D01*
X109983495Y-79809180D02*
X109935876Y-80285371D01*
X109935876Y-80285371D02*
X109983495Y-80237752D01*
X109983495Y-80237752D02*
X110078733Y-80190133D01*
X110078733Y-80190133D02*
X110316828Y-80190133D01*
X110316828Y-80190133D02*
X110412066Y-80237752D01*
X110412066Y-80237752D02*
X110459685Y-80285371D01*
X110459685Y-80285371D02*
X110507304Y-80380609D01*
X110507304Y-80380609D02*
X110507304Y-80618704D01*
X110507304Y-80618704D02*
X110459685Y-80713942D01*
X110459685Y-80713942D02*
X110412066Y-80761561D01*
X110412066Y-80761561D02*
X110316828Y-80809180D01*
X110316828Y-80809180D02*
X110078733Y-80809180D01*
X110078733Y-80809180D02*
X109983495Y-80761561D01*
X109983495Y-80761561D02*
X109935876Y-80713942D01*
X64592980Y-80695904D02*
X65402504Y-80695904D01*
X65402504Y-80695904D02*
X65497742Y-80648285D01*
X65497742Y-80648285D02*
X65545361Y-80600666D01*
X65545361Y-80600666D02*
X65592980Y-80505428D01*
X65592980Y-80505428D02*
X65592980Y-80314952D01*
X65592980Y-80314952D02*
X65545361Y-80219714D01*
X65545361Y-80219714D02*
X65497742Y-80172095D01*
X65497742Y-80172095D02*
X65402504Y-80124476D01*
X65402504Y-80124476D02*
X64592980Y-80124476D01*
X64592980Y-79743523D02*
X64592980Y-79124476D01*
X64592980Y-79124476D02*
X64973933Y-79457809D01*
X64973933Y-79457809D02*
X64973933Y-79314952D01*
X64973933Y-79314952D02*
X65021552Y-79219714D01*
X65021552Y-79219714D02*
X65069171Y-79172095D01*
X65069171Y-79172095D02*
X65164409Y-79124476D01*
X65164409Y-79124476D02*
X65402504Y-79124476D01*
X65402504Y-79124476D02*
X65497742Y-79172095D01*
X65497742Y-79172095D02*
X65545361Y-79219714D01*
X65545361Y-79219714D02*
X65592980Y-79314952D01*
X65592980Y-79314952D02*
X65592980Y-79600666D01*
X65592980Y-79600666D02*
X65545361Y-79695904D01*
X65545361Y-79695904D02*
X65497742Y-79743523D01*
X58462942Y-83736542D02*
X58415323Y-83784161D01*
X58415323Y-83784161D02*
X58272466Y-83831780D01*
X58272466Y-83831780D02*
X58177228Y-83831780D01*
X58177228Y-83831780D02*
X58034371Y-83784161D01*
X58034371Y-83784161D02*
X57939133Y-83688923D01*
X57939133Y-83688923D02*
X57891514Y-83593685D01*
X57891514Y-83593685D02*
X57843895Y-83403209D01*
X57843895Y-83403209D02*
X57843895Y-83260352D01*
X57843895Y-83260352D02*
X57891514Y-83069876D01*
X57891514Y-83069876D02*
X57939133Y-82974638D01*
X57939133Y-82974638D02*
X58034371Y-82879400D01*
X58034371Y-82879400D02*
X58177228Y-82831780D01*
X58177228Y-82831780D02*
X58272466Y-82831780D01*
X58272466Y-82831780D02*
X58415323Y-82879400D01*
X58415323Y-82879400D02*
X58462942Y-82927019D01*
X59415323Y-83831780D02*
X58843895Y-83831780D01*
X59129609Y-83831780D02*
X59129609Y-82831780D01*
X59129609Y-82831780D02*
X59034371Y-82974638D01*
X59034371Y-82974638D02*
X58939133Y-83069876D01*
X58939133Y-83069876D02*
X58843895Y-83117495D01*
X59796276Y-82927019D02*
X59843895Y-82879400D01*
X59843895Y-82879400D02*
X59939133Y-82831780D01*
X59939133Y-82831780D02*
X60177228Y-82831780D01*
X60177228Y-82831780D02*
X60272466Y-82879400D01*
X60272466Y-82879400D02*
X60320085Y-82927019D01*
X60320085Y-82927019D02*
X60367704Y-83022257D01*
X60367704Y-83022257D02*
X60367704Y-83117495D01*
X60367704Y-83117495D02*
X60320085Y-83260352D01*
X60320085Y-83260352D02*
X59748657Y-83831780D01*
X59748657Y-83831780D02*
X60367704Y-83831780D01*
X69080742Y-66886057D02*
X69128361Y-66933676D01*
X69128361Y-66933676D02*
X69175980Y-67076533D01*
X69175980Y-67076533D02*
X69175980Y-67171771D01*
X69175980Y-67171771D02*
X69128361Y-67314628D01*
X69128361Y-67314628D02*
X69033123Y-67409866D01*
X69033123Y-67409866D02*
X68937885Y-67457485D01*
X68937885Y-67457485D02*
X68747409Y-67505104D01*
X68747409Y-67505104D02*
X68604552Y-67505104D01*
X68604552Y-67505104D02*
X68414076Y-67457485D01*
X68414076Y-67457485D02*
X68318838Y-67409866D01*
X68318838Y-67409866D02*
X68223600Y-67314628D01*
X68223600Y-67314628D02*
X68175980Y-67171771D01*
X68175980Y-67171771D02*
X68175980Y-67076533D01*
X68175980Y-67076533D02*
X68223600Y-66933676D01*
X68223600Y-66933676D02*
X68271219Y-66886057D01*
X69175980Y-65933676D02*
X69175980Y-66505104D01*
X69175980Y-66219390D02*
X68175980Y-66219390D01*
X68175980Y-66219390D02*
X68318838Y-66314628D01*
X68318838Y-66314628D02*
X68414076Y-66409866D01*
X68414076Y-66409866D02*
X68461695Y-66505104D01*
X68175980Y-65600342D02*
X68175980Y-64933676D01*
X68175980Y-64933676D02*
X69175980Y-65362247D01*
X57135142Y-72758766D02*
X57182761Y-72806385D01*
X57182761Y-72806385D02*
X57230380Y-72949242D01*
X57230380Y-72949242D02*
X57230380Y-73044480D01*
X57230380Y-73044480D02*
X57182761Y-73187337D01*
X57182761Y-73187337D02*
X57087523Y-73282575D01*
X57087523Y-73282575D02*
X56992285Y-73330194D01*
X56992285Y-73330194D02*
X56801809Y-73377813D01*
X56801809Y-73377813D02*
X56658952Y-73377813D01*
X56658952Y-73377813D02*
X56468476Y-73330194D01*
X56468476Y-73330194D02*
X56373238Y-73282575D01*
X56373238Y-73282575D02*
X56278000Y-73187337D01*
X56278000Y-73187337D02*
X56230380Y-73044480D01*
X56230380Y-73044480D02*
X56230380Y-72949242D01*
X56230380Y-72949242D02*
X56278000Y-72806385D01*
X56278000Y-72806385D02*
X56325619Y-72758766D01*
X56658952Y-72187337D02*
X56611333Y-72282575D01*
X56611333Y-72282575D02*
X56563714Y-72330194D01*
X56563714Y-72330194D02*
X56468476Y-72377813D01*
X56468476Y-72377813D02*
X56420857Y-72377813D01*
X56420857Y-72377813D02*
X56325619Y-72330194D01*
X56325619Y-72330194D02*
X56278000Y-72282575D01*
X56278000Y-72282575D02*
X56230380Y-72187337D01*
X56230380Y-72187337D02*
X56230380Y-71996861D01*
X56230380Y-71996861D02*
X56278000Y-71901623D01*
X56278000Y-71901623D02*
X56325619Y-71854004D01*
X56325619Y-71854004D02*
X56420857Y-71806385D01*
X56420857Y-71806385D02*
X56468476Y-71806385D01*
X56468476Y-71806385D02*
X56563714Y-71854004D01*
X56563714Y-71854004D02*
X56611333Y-71901623D01*
X56611333Y-71901623D02*
X56658952Y-71996861D01*
X56658952Y-71996861D02*
X56658952Y-72187337D01*
X56658952Y-72187337D02*
X56706571Y-72282575D01*
X56706571Y-72282575D02*
X56754190Y-72330194D01*
X56754190Y-72330194D02*
X56849428Y-72377813D01*
X56849428Y-72377813D02*
X57039904Y-72377813D01*
X57039904Y-72377813D02*
X57135142Y-72330194D01*
X57135142Y-72330194D02*
X57182761Y-72282575D01*
X57182761Y-72282575D02*
X57230380Y-72187337D01*
X57230380Y-72187337D02*
X57230380Y-71996861D01*
X57230380Y-71996861D02*
X57182761Y-71901623D01*
X57182761Y-71901623D02*
X57135142Y-71854004D01*
X57135142Y-71854004D02*
X57039904Y-71806385D01*
X57039904Y-71806385D02*
X56849428Y-71806385D01*
X56849428Y-71806385D02*
X56754190Y-71854004D01*
X56754190Y-71854004D02*
X56706571Y-71901623D01*
X56706571Y-71901623D02*
X56658952Y-71996861D01*
X59174790Y-64382590D02*
X59650980Y-64382590D01*
X58650980Y-64715923D02*
X59174790Y-64382590D01*
X59174790Y-64382590D02*
X58650980Y-64049257D01*
X59650980Y-63192114D02*
X59650980Y-63763542D01*
X59650980Y-63477828D02*
X58650980Y-63477828D01*
X58650980Y-63477828D02*
X58793838Y-63573066D01*
X58793838Y-63573066D02*
X58889076Y-63668304D01*
X58889076Y-63668304D02*
X58936695Y-63763542D01*
X56424533Y-58463542D02*
X56376914Y-58511161D01*
X56376914Y-58511161D02*
X56234057Y-58558780D01*
X56234057Y-58558780D02*
X56138819Y-58558780D01*
X56138819Y-58558780D02*
X55995962Y-58511161D01*
X55995962Y-58511161D02*
X55900724Y-58415923D01*
X55900724Y-58415923D02*
X55853105Y-58320685D01*
X55853105Y-58320685D02*
X55805486Y-58130209D01*
X55805486Y-58130209D02*
X55805486Y-57987352D01*
X55805486Y-57987352D02*
X55853105Y-57796876D01*
X55853105Y-57796876D02*
X55900724Y-57701638D01*
X55900724Y-57701638D02*
X55995962Y-57606400D01*
X55995962Y-57606400D02*
X56138819Y-57558780D01*
X56138819Y-57558780D02*
X56234057Y-57558780D01*
X56234057Y-57558780D02*
X56376914Y-57606400D01*
X56376914Y-57606400D02*
X56424533Y-57654019D01*
X56900724Y-58558780D02*
X57091200Y-58558780D01*
X57091200Y-58558780D02*
X57186438Y-58511161D01*
X57186438Y-58511161D02*
X57234057Y-58463542D01*
X57234057Y-58463542D02*
X57329295Y-58320685D01*
X57329295Y-58320685D02*
X57376914Y-58130209D01*
X57376914Y-58130209D02*
X57376914Y-57749257D01*
X57376914Y-57749257D02*
X57329295Y-57654019D01*
X57329295Y-57654019D02*
X57281676Y-57606400D01*
X57281676Y-57606400D02*
X57186438Y-57558780D01*
X57186438Y-57558780D02*
X56995962Y-57558780D01*
X56995962Y-57558780D02*
X56900724Y-57606400D01*
X56900724Y-57606400D02*
X56853105Y-57654019D01*
X56853105Y-57654019D02*
X56805486Y-57749257D01*
X56805486Y-57749257D02*
X56805486Y-57987352D01*
X56805486Y-57987352D02*
X56853105Y-58082590D01*
X56853105Y-58082590D02*
X56900724Y-58130209D01*
X56900724Y-58130209D02*
X56995962Y-58177828D01*
X56995962Y-58177828D02*
X57186438Y-58177828D01*
X57186438Y-58177828D02*
X57281676Y-58130209D01*
X57281676Y-58130209D02*
X57329295Y-58082590D01*
X57329295Y-58082590D02*
X57376914Y-57987352D01*
X72482742Y-79869457D02*
X72530361Y-79917076D01*
X72530361Y-79917076D02*
X72577980Y-80059933D01*
X72577980Y-80059933D02*
X72577980Y-80155171D01*
X72577980Y-80155171D02*
X72530361Y-80298028D01*
X72530361Y-80298028D02*
X72435123Y-80393266D01*
X72435123Y-80393266D02*
X72339885Y-80440885D01*
X72339885Y-80440885D02*
X72149409Y-80488504D01*
X72149409Y-80488504D02*
X72006552Y-80488504D01*
X72006552Y-80488504D02*
X71816076Y-80440885D01*
X71816076Y-80440885D02*
X71720838Y-80393266D01*
X71720838Y-80393266D02*
X71625600Y-80298028D01*
X71625600Y-80298028D02*
X71577980Y-80155171D01*
X71577980Y-80155171D02*
X71577980Y-80059933D01*
X71577980Y-80059933D02*
X71625600Y-79917076D01*
X71625600Y-79917076D02*
X71673219Y-79869457D01*
X72577980Y-78917076D02*
X72577980Y-79488504D01*
X72577980Y-79202790D02*
X71577980Y-79202790D01*
X71577980Y-79202790D02*
X71720838Y-79298028D01*
X71720838Y-79298028D02*
X71816076Y-79393266D01*
X71816076Y-79393266D02*
X71863695Y-79488504D01*
X71911314Y-78059933D02*
X72577980Y-78059933D01*
X71530361Y-78298028D02*
X72244647Y-78536123D01*
X72244647Y-78536123D02*
X72244647Y-77917076D01*
X75885742Y-76857142D02*
X75838123Y-76904761D01*
X75838123Y-76904761D02*
X75695266Y-76952380D01*
X75695266Y-76952380D02*
X75600028Y-76952380D01*
X75600028Y-76952380D02*
X75457171Y-76904761D01*
X75457171Y-76904761D02*
X75361933Y-76809523D01*
X75361933Y-76809523D02*
X75314314Y-76714285D01*
X75314314Y-76714285D02*
X75266695Y-76523809D01*
X75266695Y-76523809D02*
X75266695Y-76380952D01*
X75266695Y-76380952D02*
X75314314Y-76190476D01*
X75314314Y-76190476D02*
X75361933Y-76095238D01*
X75361933Y-76095238D02*
X75457171Y-76000000D01*
X75457171Y-76000000D02*
X75600028Y-75952380D01*
X75600028Y-75952380D02*
X75695266Y-75952380D01*
X75695266Y-75952380D02*
X75838123Y-76000000D01*
X75838123Y-76000000D02*
X75885742Y-76047619D01*
X76838123Y-76952380D02*
X76266695Y-76952380D01*
X76552409Y-76952380D02*
X76552409Y-75952380D01*
X76552409Y-75952380D02*
X76457171Y-76095238D01*
X76457171Y-76095238D02*
X76361933Y-76190476D01*
X76361933Y-76190476D02*
X76266695Y-76238095D01*
X77742885Y-75952380D02*
X77266695Y-75952380D01*
X77266695Y-75952380D02*
X77219076Y-76428571D01*
X77219076Y-76428571D02*
X77266695Y-76380952D01*
X77266695Y-76380952D02*
X77361933Y-76333333D01*
X77361933Y-76333333D02*
X77600028Y-76333333D01*
X77600028Y-76333333D02*
X77695266Y-76380952D01*
X77695266Y-76380952D02*
X77742885Y-76428571D01*
X77742885Y-76428571D02*
X77790504Y-76523809D01*
X77790504Y-76523809D02*
X77790504Y-76761904D01*
X77790504Y-76761904D02*
X77742885Y-76857142D01*
X77742885Y-76857142D02*
X77695266Y-76904761D01*
X77695266Y-76904761D02*
X77600028Y-76952380D01*
X77600028Y-76952380D02*
X77361933Y-76952380D01*
X77361933Y-76952380D02*
X77266695Y-76904761D01*
X77266695Y-76904761D02*
X77219076Y-76857142D01*
X47662180Y-72759866D02*
X47185990Y-73093199D01*
X47662180Y-73331294D02*
X46662180Y-73331294D01*
X46662180Y-73331294D02*
X46662180Y-72950342D01*
X46662180Y-72950342D02*
X46709800Y-72855104D01*
X46709800Y-72855104D02*
X46757419Y-72807485D01*
X46757419Y-72807485D02*
X46852657Y-72759866D01*
X46852657Y-72759866D02*
X46995514Y-72759866D01*
X46995514Y-72759866D02*
X47090752Y-72807485D01*
X47090752Y-72807485D02*
X47138371Y-72855104D01*
X47138371Y-72855104D02*
X47185990Y-72950342D01*
X47185990Y-72950342D02*
X47185990Y-73331294D01*
X46662180Y-72426532D02*
X46662180Y-71807485D01*
X46662180Y-71807485D02*
X47043133Y-72140818D01*
X47043133Y-72140818D02*
X47043133Y-71997961D01*
X47043133Y-71997961D02*
X47090752Y-71902723D01*
X47090752Y-71902723D02*
X47138371Y-71855104D01*
X47138371Y-71855104D02*
X47233609Y-71807485D01*
X47233609Y-71807485D02*
X47471704Y-71807485D01*
X47471704Y-71807485D02*
X47566942Y-71855104D01*
X47566942Y-71855104D02*
X47614561Y-71902723D01*
X47614561Y-71902723D02*
X47662180Y-71997961D01*
X47662180Y-71997961D02*
X47662180Y-72283675D01*
X47662180Y-72283675D02*
X47614561Y-72378913D01*
X47614561Y-72378913D02*
X47566942Y-72426532D01*
X71728095Y-63557180D02*
X71728095Y-64366704D01*
X71728095Y-64366704D02*
X71775714Y-64461942D01*
X71775714Y-64461942D02*
X71823333Y-64509561D01*
X71823333Y-64509561D02*
X71918571Y-64557180D01*
X71918571Y-64557180D02*
X72109047Y-64557180D01*
X72109047Y-64557180D02*
X72204285Y-64509561D01*
X72204285Y-64509561D02*
X72251904Y-64461942D01*
X72251904Y-64461942D02*
X72299523Y-64366704D01*
X72299523Y-64366704D02*
X72299523Y-63557180D01*
X73251904Y-63557180D02*
X72775714Y-63557180D01*
X72775714Y-63557180D02*
X72728095Y-64033371D01*
X72728095Y-64033371D02*
X72775714Y-63985752D01*
X72775714Y-63985752D02*
X72870952Y-63938133D01*
X72870952Y-63938133D02*
X73109047Y-63938133D01*
X73109047Y-63938133D02*
X73204285Y-63985752D01*
X73204285Y-63985752D02*
X73251904Y-64033371D01*
X73251904Y-64033371D02*
X73299523Y-64128609D01*
X73299523Y-64128609D02*
X73299523Y-64366704D01*
X73299523Y-64366704D02*
X73251904Y-64461942D01*
X73251904Y-64461942D02*
X73204285Y-64509561D01*
X73204285Y-64509561D02*
X73109047Y-64557180D01*
X73109047Y-64557180D02*
X72870952Y-64557180D01*
X72870952Y-64557180D02*
X72775714Y-64509561D01*
X72775714Y-64509561D02*
X72728095Y-64461942D01*
X64881633Y-72034742D02*
X64834014Y-72082361D01*
X64834014Y-72082361D02*
X64691157Y-72129980D01*
X64691157Y-72129980D02*
X64595919Y-72129980D01*
X64595919Y-72129980D02*
X64453062Y-72082361D01*
X64453062Y-72082361D02*
X64357824Y-71987123D01*
X64357824Y-71987123D02*
X64310205Y-71891885D01*
X64310205Y-71891885D02*
X64262586Y-71701409D01*
X64262586Y-71701409D02*
X64262586Y-71558552D01*
X64262586Y-71558552D02*
X64310205Y-71368076D01*
X64310205Y-71368076D02*
X64357824Y-71272838D01*
X64357824Y-71272838D02*
X64453062Y-71177600D01*
X64453062Y-71177600D02*
X64595919Y-71129980D01*
X64595919Y-71129980D02*
X64691157Y-71129980D01*
X64691157Y-71129980D02*
X64834014Y-71177600D01*
X64834014Y-71177600D02*
X64881633Y-71225219D01*
X65214967Y-71129980D02*
X65834014Y-71129980D01*
X65834014Y-71129980D02*
X65500681Y-71510933D01*
X65500681Y-71510933D02*
X65643538Y-71510933D01*
X65643538Y-71510933D02*
X65738776Y-71558552D01*
X65738776Y-71558552D02*
X65786395Y-71606171D01*
X65786395Y-71606171D02*
X65834014Y-71701409D01*
X65834014Y-71701409D02*
X65834014Y-71939504D01*
X65834014Y-71939504D02*
X65786395Y-72034742D01*
X65786395Y-72034742D02*
X65738776Y-72082361D01*
X65738776Y-72082361D02*
X65643538Y-72129980D01*
X65643538Y-72129980D02*
X65357824Y-72129980D01*
X65357824Y-72129980D02*
X65262586Y-72082361D01*
X65262586Y-72082361D02*
X65214967Y-72034742D01*
X56062666Y-61032171D02*
X55729333Y-61032171D01*
X55729333Y-61555980D02*
X55729333Y-60555980D01*
X55729333Y-60555980D02*
X56205523Y-60555980D01*
X56919809Y-61032171D02*
X57062666Y-61079790D01*
X57062666Y-61079790D02*
X57110285Y-61127409D01*
X57110285Y-61127409D02*
X57157904Y-61222647D01*
X57157904Y-61222647D02*
X57157904Y-61365504D01*
X57157904Y-61365504D02*
X57110285Y-61460742D01*
X57110285Y-61460742D02*
X57062666Y-61508361D01*
X57062666Y-61508361D02*
X56967428Y-61555980D01*
X56967428Y-61555980D02*
X56586476Y-61555980D01*
X56586476Y-61555980D02*
X56586476Y-60555980D01*
X56586476Y-60555980D02*
X56919809Y-60555980D01*
X56919809Y-60555980D02*
X57015047Y-60603600D01*
X57015047Y-60603600D02*
X57062666Y-60651219D01*
X57062666Y-60651219D02*
X57110285Y-60746457D01*
X57110285Y-60746457D02*
X57110285Y-60841695D01*
X57110285Y-60841695D02*
X57062666Y-60936933D01*
X57062666Y-60936933D02*
X57015047Y-60984552D01*
X57015047Y-60984552D02*
X56919809Y-61032171D01*
X56919809Y-61032171D02*
X56586476Y-61032171D01*
X58110285Y-61555980D02*
X57538857Y-61555980D01*
X57824571Y-61555980D02*
X57824571Y-60555980D01*
X57824571Y-60555980D02*
X57729333Y-60698838D01*
X57729333Y-60698838D02*
X57634095Y-60794076D01*
X57634095Y-60794076D02*
X57538857Y-60841695D01*
X59980533Y-52208780D02*
X59647200Y-51732590D01*
X59409105Y-52208780D02*
X59409105Y-51208780D01*
X59409105Y-51208780D02*
X59790057Y-51208780D01*
X59790057Y-51208780D02*
X59885295Y-51256400D01*
X59885295Y-51256400D02*
X59932914Y-51304019D01*
X59932914Y-51304019D02*
X59980533Y-51399257D01*
X59980533Y-51399257D02*
X59980533Y-51542114D01*
X59980533Y-51542114D02*
X59932914Y-51637352D01*
X59932914Y-51637352D02*
X59885295Y-51684971D01*
X59885295Y-51684971D02*
X59790057Y-51732590D01*
X59790057Y-51732590D02*
X59409105Y-51732590D01*
X60932914Y-52208780D02*
X60361486Y-52208780D01*
X60647200Y-52208780D02*
X60647200Y-51208780D01*
X60647200Y-51208780D02*
X60551962Y-51351638D01*
X60551962Y-51351638D02*
X60456724Y-51446876D01*
X60456724Y-51446876D02*
X60361486Y-51494495D01*
X58462942Y-85768542D02*
X58415323Y-85816161D01*
X58415323Y-85816161D02*
X58272466Y-85863780D01*
X58272466Y-85863780D02*
X58177228Y-85863780D01*
X58177228Y-85863780D02*
X58034371Y-85816161D01*
X58034371Y-85816161D02*
X57939133Y-85720923D01*
X57939133Y-85720923D02*
X57891514Y-85625685D01*
X57891514Y-85625685D02*
X57843895Y-85435209D01*
X57843895Y-85435209D02*
X57843895Y-85292352D01*
X57843895Y-85292352D02*
X57891514Y-85101876D01*
X57891514Y-85101876D02*
X57939133Y-85006638D01*
X57939133Y-85006638D02*
X58034371Y-84911400D01*
X58034371Y-84911400D02*
X58177228Y-84863780D01*
X58177228Y-84863780D02*
X58272466Y-84863780D01*
X58272466Y-84863780D02*
X58415323Y-84911400D01*
X58415323Y-84911400D02*
X58462942Y-84959019D01*
X59415323Y-85863780D02*
X58843895Y-85863780D01*
X59129609Y-85863780D02*
X59129609Y-84863780D01*
X59129609Y-84863780D02*
X59034371Y-85006638D01*
X59034371Y-85006638D02*
X58939133Y-85101876D01*
X58939133Y-85101876D02*
X58843895Y-85149495D01*
X59748657Y-84863780D02*
X60367704Y-84863780D01*
X60367704Y-84863780D02*
X60034371Y-85244733D01*
X60034371Y-85244733D02*
X60177228Y-85244733D01*
X60177228Y-85244733D02*
X60272466Y-85292352D01*
X60272466Y-85292352D02*
X60320085Y-85339971D01*
X60320085Y-85339971D02*
X60367704Y-85435209D01*
X60367704Y-85435209D02*
X60367704Y-85673304D01*
X60367704Y-85673304D02*
X60320085Y-85768542D01*
X60320085Y-85768542D02*
X60272466Y-85816161D01*
X60272466Y-85816161D02*
X60177228Y-85863780D01*
X60177228Y-85863780D02*
X59891514Y-85863780D01*
X59891514Y-85863780D02*
X59796276Y-85816161D01*
X59796276Y-85816161D02*
X59748657Y-85768542D01*
X45178742Y-48887742D02*
X45131123Y-48935361D01*
X45131123Y-48935361D02*
X44988266Y-48982980D01*
X44988266Y-48982980D02*
X44893028Y-48982980D01*
X44893028Y-48982980D02*
X44750171Y-48935361D01*
X44750171Y-48935361D02*
X44654933Y-48840123D01*
X44654933Y-48840123D02*
X44607314Y-48744885D01*
X44607314Y-48744885D02*
X44559695Y-48554409D01*
X44559695Y-48554409D02*
X44559695Y-48411552D01*
X44559695Y-48411552D02*
X44607314Y-48221076D01*
X44607314Y-48221076D02*
X44654933Y-48125838D01*
X44654933Y-48125838D02*
X44750171Y-48030600D01*
X44750171Y-48030600D02*
X44893028Y-47982980D01*
X44893028Y-47982980D02*
X44988266Y-47982980D01*
X44988266Y-47982980D02*
X45131123Y-48030600D01*
X45131123Y-48030600D02*
X45178742Y-48078219D01*
X45559695Y-48078219D02*
X45607314Y-48030600D01*
X45607314Y-48030600D02*
X45702552Y-47982980D01*
X45702552Y-47982980D02*
X45940647Y-47982980D01*
X45940647Y-47982980D02*
X46035885Y-48030600D01*
X46035885Y-48030600D02*
X46083504Y-48078219D01*
X46083504Y-48078219D02*
X46131123Y-48173457D01*
X46131123Y-48173457D02*
X46131123Y-48268695D01*
X46131123Y-48268695D02*
X46083504Y-48411552D01*
X46083504Y-48411552D02*
X45512076Y-48982980D01*
X45512076Y-48982980D02*
X46131123Y-48982980D01*
X46750171Y-47982980D02*
X46845409Y-47982980D01*
X46845409Y-47982980D02*
X46940647Y-48030600D01*
X46940647Y-48030600D02*
X46988266Y-48078219D01*
X46988266Y-48078219D02*
X47035885Y-48173457D01*
X47035885Y-48173457D02*
X47083504Y-48363933D01*
X47083504Y-48363933D02*
X47083504Y-48602028D01*
X47083504Y-48602028D02*
X47035885Y-48792504D01*
X47035885Y-48792504D02*
X46988266Y-48887742D01*
X46988266Y-48887742D02*
X46940647Y-48935361D01*
X46940647Y-48935361D02*
X46845409Y-48982980D01*
X46845409Y-48982980D02*
X46750171Y-48982980D01*
X46750171Y-48982980D02*
X46654933Y-48935361D01*
X46654933Y-48935361D02*
X46607314Y-48887742D01*
X46607314Y-48887742D02*
X46559695Y-48792504D01*
X46559695Y-48792504D02*
X46512076Y-48602028D01*
X46512076Y-48602028D02*
X46512076Y-48363933D01*
X46512076Y-48363933D02*
X46559695Y-48173457D01*
X46559695Y-48173457D02*
X46607314Y-48078219D01*
X46607314Y-48078219D02*
X46654933Y-48030600D01*
X46654933Y-48030600D02*
X46750171Y-47982980D01*
X69149933Y-55078980D02*
X68816600Y-54602790D01*
X68578505Y-55078980D02*
X68578505Y-54078980D01*
X68578505Y-54078980D02*
X68959457Y-54078980D01*
X68959457Y-54078980D02*
X69054695Y-54126600D01*
X69054695Y-54126600D02*
X69102314Y-54174219D01*
X69102314Y-54174219D02*
X69149933Y-54269457D01*
X69149933Y-54269457D02*
X69149933Y-54412314D01*
X69149933Y-54412314D02*
X69102314Y-54507552D01*
X69102314Y-54507552D02*
X69054695Y-54555171D01*
X69054695Y-54555171D02*
X68959457Y-54602790D01*
X68959457Y-54602790D02*
X68578505Y-54602790D01*
X69530886Y-54174219D02*
X69578505Y-54126600D01*
X69578505Y-54126600D02*
X69673743Y-54078980D01*
X69673743Y-54078980D02*
X69911838Y-54078980D01*
X69911838Y-54078980D02*
X70007076Y-54126600D01*
X70007076Y-54126600D02*
X70054695Y-54174219D01*
X70054695Y-54174219D02*
X70102314Y-54269457D01*
X70102314Y-54269457D02*
X70102314Y-54364695D01*
X70102314Y-54364695D02*
X70054695Y-54507552D01*
X70054695Y-54507552D02*
X69483267Y-55078980D01*
X69483267Y-55078980D02*
X70102314Y-55078980D01*
X50431233Y-59827542D02*
X50383614Y-59875161D01*
X50383614Y-59875161D02*
X50240757Y-59922780D01*
X50240757Y-59922780D02*
X50145519Y-59922780D01*
X50145519Y-59922780D02*
X50002662Y-59875161D01*
X50002662Y-59875161D02*
X49907424Y-59779923D01*
X49907424Y-59779923D02*
X49859805Y-59684685D01*
X49859805Y-59684685D02*
X49812186Y-59494209D01*
X49812186Y-59494209D02*
X49812186Y-59351352D01*
X49812186Y-59351352D02*
X49859805Y-59160876D01*
X49859805Y-59160876D02*
X49907424Y-59065638D01*
X49907424Y-59065638D02*
X50002662Y-58970400D01*
X50002662Y-58970400D02*
X50145519Y-58922780D01*
X50145519Y-58922780D02*
X50240757Y-58922780D01*
X50240757Y-58922780D02*
X50383614Y-58970400D01*
X50383614Y-58970400D02*
X50431233Y-59018019D01*
X50764567Y-58922780D02*
X51431233Y-58922780D01*
X51431233Y-58922780D02*
X51002662Y-59922780D01*
X69073733Y-70496780D02*
X68740400Y-70020590D01*
X68502305Y-70496780D02*
X68502305Y-69496780D01*
X68502305Y-69496780D02*
X68883257Y-69496780D01*
X68883257Y-69496780D02*
X68978495Y-69544400D01*
X68978495Y-69544400D02*
X69026114Y-69592019D01*
X69026114Y-69592019D02*
X69073733Y-69687257D01*
X69073733Y-69687257D02*
X69073733Y-69830114D01*
X69073733Y-69830114D02*
X69026114Y-69925352D01*
X69026114Y-69925352D02*
X68978495Y-69972971D01*
X68978495Y-69972971D02*
X68883257Y-70020590D01*
X68883257Y-70020590D02*
X68502305Y-70020590D01*
X69930876Y-69496780D02*
X69740400Y-69496780D01*
X69740400Y-69496780D02*
X69645162Y-69544400D01*
X69645162Y-69544400D02*
X69597543Y-69592019D01*
X69597543Y-69592019D02*
X69502305Y-69734876D01*
X69502305Y-69734876D02*
X69454686Y-69925352D01*
X69454686Y-69925352D02*
X69454686Y-70306304D01*
X69454686Y-70306304D02*
X69502305Y-70401542D01*
X69502305Y-70401542D02*
X69549924Y-70449161D01*
X69549924Y-70449161D02*
X69645162Y-70496780D01*
X69645162Y-70496780D02*
X69835638Y-70496780D01*
X69835638Y-70496780D02*
X69930876Y-70449161D01*
X69930876Y-70449161D02*
X69978495Y-70401542D01*
X69978495Y-70401542D02*
X70026114Y-70306304D01*
X70026114Y-70306304D02*
X70026114Y-70068209D01*
X70026114Y-70068209D02*
X69978495Y-69972971D01*
X69978495Y-69972971D02*
X69930876Y-69925352D01*
X69930876Y-69925352D02*
X69835638Y-69877733D01*
X69835638Y-69877733D02*
X69645162Y-69877733D01*
X69645162Y-69877733D02*
X69549924Y-69925352D01*
X69549924Y-69925352D02*
X69502305Y-69972971D01*
X69502305Y-69972971D02*
X69454686Y-70068209D01*
X71982095Y-69957980D02*
X71982095Y-70767504D01*
X71982095Y-70767504D02*
X72029714Y-70862742D01*
X72029714Y-70862742D02*
X72077333Y-70910361D01*
X72077333Y-70910361D02*
X72172571Y-70957980D01*
X72172571Y-70957980D02*
X72363047Y-70957980D01*
X72363047Y-70957980D02*
X72458285Y-70910361D01*
X72458285Y-70910361D02*
X72505904Y-70862742D01*
X72505904Y-70862742D02*
X72553523Y-70767504D01*
X72553523Y-70767504D02*
X72553523Y-69957980D01*
X73458285Y-70291314D02*
X73458285Y-70957980D01*
X73220190Y-69910361D02*
X72982095Y-70624647D01*
X72982095Y-70624647D02*
X73601142Y-70624647D01*
X57110333Y-59987542D02*
X57062714Y-60035161D01*
X57062714Y-60035161D02*
X56919857Y-60082780D01*
X56919857Y-60082780D02*
X56824619Y-60082780D01*
X56824619Y-60082780D02*
X56681762Y-60035161D01*
X56681762Y-60035161D02*
X56586524Y-59939923D01*
X56586524Y-59939923D02*
X56538905Y-59844685D01*
X56538905Y-59844685D02*
X56491286Y-59654209D01*
X56491286Y-59654209D02*
X56491286Y-59511352D01*
X56491286Y-59511352D02*
X56538905Y-59320876D01*
X56538905Y-59320876D02*
X56586524Y-59225638D01*
X56586524Y-59225638D02*
X56681762Y-59130400D01*
X56681762Y-59130400D02*
X56824619Y-59082780D01*
X56824619Y-59082780D02*
X56919857Y-59082780D01*
X56919857Y-59082780D02*
X57062714Y-59130400D01*
X57062714Y-59130400D02*
X57110333Y-59178019D01*
X57967476Y-59082780D02*
X57777000Y-59082780D01*
X57777000Y-59082780D02*
X57681762Y-59130400D01*
X57681762Y-59130400D02*
X57634143Y-59178019D01*
X57634143Y-59178019D02*
X57538905Y-59320876D01*
X57538905Y-59320876D02*
X57491286Y-59511352D01*
X57491286Y-59511352D02*
X57491286Y-59892304D01*
X57491286Y-59892304D02*
X57538905Y-59987542D01*
X57538905Y-59987542D02*
X57586524Y-60035161D01*
X57586524Y-60035161D02*
X57681762Y-60082780D01*
X57681762Y-60082780D02*
X57872238Y-60082780D01*
X57872238Y-60082780D02*
X57967476Y-60035161D01*
X57967476Y-60035161D02*
X58015095Y-59987542D01*
X58015095Y-59987542D02*
X58062714Y-59892304D01*
X58062714Y-59892304D02*
X58062714Y-59654209D01*
X58062714Y-59654209D02*
X58015095Y-59558971D01*
X58015095Y-59558971D02*
X57967476Y-59511352D01*
X57967476Y-59511352D02*
X57872238Y-59463733D01*
X57872238Y-59463733D02*
X57681762Y-59463733D01*
X57681762Y-59463733D02*
X57586524Y-59511352D01*
X57586524Y-59511352D02*
X57538905Y-59558971D01*
X57538905Y-59558971D02*
X57491286Y-59654209D01*
X65416133Y-67234142D02*
X65368514Y-67281761D01*
X65368514Y-67281761D02*
X65225657Y-67329380D01*
X65225657Y-67329380D02*
X65130419Y-67329380D01*
X65130419Y-67329380D02*
X64987562Y-67281761D01*
X64987562Y-67281761D02*
X64892324Y-67186523D01*
X64892324Y-67186523D02*
X64844705Y-67091285D01*
X64844705Y-67091285D02*
X64797086Y-66900809D01*
X64797086Y-66900809D02*
X64797086Y-66757952D01*
X64797086Y-66757952D02*
X64844705Y-66567476D01*
X64844705Y-66567476D02*
X64892324Y-66472238D01*
X64892324Y-66472238D02*
X64987562Y-66377000D01*
X64987562Y-66377000D02*
X65130419Y-66329380D01*
X65130419Y-66329380D02*
X65225657Y-66329380D01*
X65225657Y-66329380D02*
X65368514Y-66377000D01*
X65368514Y-66377000D02*
X65416133Y-66424619D01*
X66368514Y-67329380D02*
X65797086Y-67329380D01*
X66082800Y-67329380D02*
X66082800Y-66329380D01*
X66082800Y-66329380D02*
X65987562Y-66472238D01*
X65987562Y-66472238D02*
X65892324Y-66567476D01*
X65892324Y-66567476D02*
X65797086Y-66615095D01*
X65289133Y-63162542D02*
X65241514Y-63210161D01*
X65241514Y-63210161D02*
X65098657Y-63257780D01*
X65098657Y-63257780D02*
X65003419Y-63257780D01*
X65003419Y-63257780D02*
X64860562Y-63210161D01*
X64860562Y-63210161D02*
X64765324Y-63114923D01*
X64765324Y-63114923D02*
X64717705Y-63019685D01*
X64717705Y-63019685D02*
X64670086Y-62829209D01*
X64670086Y-62829209D02*
X64670086Y-62686352D01*
X64670086Y-62686352D02*
X64717705Y-62495876D01*
X64717705Y-62495876D02*
X64765324Y-62400638D01*
X64765324Y-62400638D02*
X64860562Y-62305400D01*
X64860562Y-62305400D02*
X65003419Y-62257780D01*
X65003419Y-62257780D02*
X65098657Y-62257780D01*
X65098657Y-62257780D02*
X65241514Y-62305400D01*
X65241514Y-62305400D02*
X65289133Y-62353019D01*
X65670086Y-62353019D02*
X65717705Y-62305400D01*
X65717705Y-62305400D02*
X65812943Y-62257780D01*
X65812943Y-62257780D02*
X66051038Y-62257780D01*
X66051038Y-62257780D02*
X66146276Y-62305400D01*
X66146276Y-62305400D02*
X66193895Y-62353019D01*
X66193895Y-62353019D02*
X66241514Y-62448257D01*
X66241514Y-62448257D02*
X66241514Y-62543495D01*
X66241514Y-62543495D02*
X66193895Y-62686352D01*
X66193895Y-62686352D02*
X65622467Y-63257780D01*
X65622467Y-63257780D02*
X66241514Y-63257780D01*
X67270333Y-69182342D02*
X67222714Y-69229961D01*
X67222714Y-69229961D02*
X67079857Y-69277580D01*
X67079857Y-69277580D02*
X66984619Y-69277580D01*
X66984619Y-69277580D02*
X66841762Y-69229961D01*
X66841762Y-69229961D02*
X66746524Y-69134723D01*
X66746524Y-69134723D02*
X66698905Y-69039485D01*
X66698905Y-69039485D02*
X66651286Y-68849009D01*
X66651286Y-68849009D02*
X66651286Y-68706152D01*
X66651286Y-68706152D02*
X66698905Y-68515676D01*
X66698905Y-68515676D02*
X66746524Y-68420438D01*
X66746524Y-68420438D02*
X66841762Y-68325200D01*
X66841762Y-68325200D02*
X66984619Y-68277580D01*
X66984619Y-68277580D02*
X67079857Y-68277580D01*
X67079857Y-68277580D02*
X67222714Y-68325200D01*
X67222714Y-68325200D02*
X67270333Y-68372819D01*
X68127476Y-68610914D02*
X68127476Y-69277580D01*
X67889381Y-68229961D02*
X67651286Y-68944247D01*
X67651286Y-68944247D02*
X68270333Y-68944247D01*
X76979542Y-80663142D02*
X76931923Y-80710761D01*
X76931923Y-80710761D02*
X76789066Y-80758380D01*
X76789066Y-80758380D02*
X76693828Y-80758380D01*
X76693828Y-80758380D02*
X76550971Y-80710761D01*
X76550971Y-80710761D02*
X76455733Y-80615523D01*
X76455733Y-80615523D02*
X76408114Y-80520285D01*
X76408114Y-80520285D02*
X76360495Y-80329809D01*
X76360495Y-80329809D02*
X76360495Y-80186952D01*
X76360495Y-80186952D02*
X76408114Y-79996476D01*
X76408114Y-79996476D02*
X76455733Y-79901238D01*
X76455733Y-79901238D02*
X76550971Y-79806000D01*
X76550971Y-79806000D02*
X76693828Y-79758380D01*
X76693828Y-79758380D02*
X76789066Y-79758380D01*
X76789066Y-79758380D02*
X76931923Y-79806000D01*
X76931923Y-79806000D02*
X76979542Y-79853619D01*
X77360495Y-79853619D02*
X77408114Y-79806000D01*
X77408114Y-79806000D02*
X77503352Y-79758380D01*
X77503352Y-79758380D02*
X77741447Y-79758380D01*
X77741447Y-79758380D02*
X77836685Y-79806000D01*
X77836685Y-79806000D02*
X77884304Y-79853619D01*
X77884304Y-79853619D02*
X77931923Y-79948857D01*
X77931923Y-79948857D02*
X77931923Y-80044095D01*
X77931923Y-80044095D02*
X77884304Y-80186952D01*
X77884304Y-80186952D02*
X77312876Y-80758380D01*
X77312876Y-80758380D02*
X77931923Y-80758380D01*
X78312876Y-79853619D02*
X78360495Y-79806000D01*
X78360495Y-79806000D02*
X78455733Y-79758380D01*
X78455733Y-79758380D02*
X78693828Y-79758380D01*
X78693828Y-79758380D02*
X78789066Y-79806000D01*
X78789066Y-79806000D02*
X78836685Y-79853619D01*
X78836685Y-79853619D02*
X78884304Y-79948857D01*
X78884304Y-79948857D02*
X78884304Y-80044095D01*
X78884304Y-80044095D02*
X78836685Y-80186952D01*
X78836685Y-80186952D02*
X78265257Y-80758380D01*
X78265257Y-80758380D02*
X78884304Y-80758380D01*
X75405342Y-64879457D02*
X75452961Y-64927076D01*
X75452961Y-64927076D02*
X75500580Y-65069933D01*
X75500580Y-65069933D02*
X75500580Y-65165171D01*
X75500580Y-65165171D02*
X75452961Y-65308028D01*
X75452961Y-65308028D02*
X75357723Y-65403266D01*
X75357723Y-65403266D02*
X75262485Y-65450885D01*
X75262485Y-65450885D02*
X75072009Y-65498504D01*
X75072009Y-65498504D02*
X74929152Y-65498504D01*
X74929152Y-65498504D02*
X74738676Y-65450885D01*
X74738676Y-65450885D02*
X74643438Y-65403266D01*
X74643438Y-65403266D02*
X74548200Y-65308028D01*
X74548200Y-65308028D02*
X74500580Y-65165171D01*
X74500580Y-65165171D02*
X74500580Y-65069933D01*
X74500580Y-65069933D02*
X74548200Y-64927076D01*
X74548200Y-64927076D02*
X74595819Y-64879457D01*
X75500580Y-63927076D02*
X75500580Y-64498504D01*
X75500580Y-64212790D02*
X74500580Y-64212790D01*
X74500580Y-64212790D02*
X74643438Y-64308028D01*
X74643438Y-64308028D02*
X74738676Y-64403266D01*
X74738676Y-64403266D02*
X74786295Y-64498504D01*
X74500580Y-63069933D02*
X74500580Y-63260409D01*
X74500580Y-63260409D02*
X74548200Y-63355647D01*
X74548200Y-63355647D02*
X74595819Y-63403266D01*
X74595819Y-63403266D02*
X74738676Y-63498504D01*
X74738676Y-63498504D02*
X74929152Y-63546123D01*
X74929152Y-63546123D02*
X75310104Y-63546123D01*
X75310104Y-63546123D02*
X75405342Y-63498504D01*
X75405342Y-63498504D02*
X75452961Y-63450885D01*
X75452961Y-63450885D02*
X75500580Y-63355647D01*
X75500580Y-63355647D02*
X75500580Y-63165171D01*
X75500580Y-63165171D02*
X75452961Y-63069933D01*
X75452961Y-63069933D02*
X75405342Y-63022314D01*
X75405342Y-63022314D02*
X75310104Y-62974695D01*
X75310104Y-62974695D02*
X75072009Y-62974695D01*
X75072009Y-62974695D02*
X74976771Y-63022314D01*
X74976771Y-63022314D02*
X74929152Y-63069933D01*
X74929152Y-63069933D02*
X74881533Y-63165171D01*
X74881533Y-63165171D02*
X74881533Y-63355647D01*
X74881533Y-63355647D02*
X74929152Y-63450885D01*
X74929152Y-63450885D02*
X74976771Y-63498504D01*
X74976771Y-63498504D02*
X75072009Y-63546123D01*
X66311542Y-60978142D02*
X66263923Y-61025761D01*
X66263923Y-61025761D02*
X66121066Y-61073380D01*
X66121066Y-61073380D02*
X66025828Y-61073380D01*
X66025828Y-61073380D02*
X65882971Y-61025761D01*
X65882971Y-61025761D02*
X65787733Y-60930523D01*
X65787733Y-60930523D02*
X65740114Y-60835285D01*
X65740114Y-60835285D02*
X65692495Y-60644809D01*
X65692495Y-60644809D02*
X65692495Y-60501952D01*
X65692495Y-60501952D02*
X65740114Y-60311476D01*
X65740114Y-60311476D02*
X65787733Y-60216238D01*
X65787733Y-60216238D02*
X65882971Y-60121000D01*
X65882971Y-60121000D02*
X66025828Y-60073380D01*
X66025828Y-60073380D02*
X66121066Y-60073380D01*
X66121066Y-60073380D02*
X66263923Y-60121000D01*
X66263923Y-60121000D02*
X66311542Y-60168619D01*
X67263923Y-61073380D02*
X66692495Y-61073380D01*
X66978209Y-61073380D02*
X66978209Y-60073380D01*
X66978209Y-60073380D02*
X66882971Y-60216238D01*
X66882971Y-60216238D02*
X66787733Y-60311476D01*
X66787733Y-60311476D02*
X66692495Y-60359095D01*
X68216304Y-61073380D02*
X67644876Y-61073380D01*
X67930590Y-61073380D02*
X67930590Y-60073380D01*
X67930590Y-60073380D02*
X67835352Y-60216238D01*
X67835352Y-60216238D02*
X67740114Y-60311476D01*
X67740114Y-60311476D02*
X67644876Y-60359095D01*
X61511542Y-73769457D02*
X61559161Y-73817076D01*
X61559161Y-73817076D02*
X61606780Y-73959933D01*
X61606780Y-73959933D02*
X61606780Y-74055171D01*
X61606780Y-74055171D02*
X61559161Y-74198028D01*
X61559161Y-74198028D02*
X61463923Y-74293266D01*
X61463923Y-74293266D02*
X61368685Y-74340885D01*
X61368685Y-74340885D02*
X61178209Y-74388504D01*
X61178209Y-74388504D02*
X61035352Y-74388504D01*
X61035352Y-74388504D02*
X60844876Y-74340885D01*
X60844876Y-74340885D02*
X60749638Y-74293266D01*
X60749638Y-74293266D02*
X60654400Y-74198028D01*
X60654400Y-74198028D02*
X60606780Y-74055171D01*
X60606780Y-74055171D02*
X60606780Y-73959933D01*
X60606780Y-73959933D02*
X60654400Y-73817076D01*
X60654400Y-73817076D02*
X60702019Y-73769457D01*
X61606780Y-72817076D02*
X61606780Y-73388504D01*
X61606780Y-73102790D02*
X60606780Y-73102790D01*
X60606780Y-73102790D02*
X60749638Y-73198028D01*
X60749638Y-73198028D02*
X60844876Y-73293266D01*
X60844876Y-73293266D02*
X60892495Y-73388504D01*
X60606780Y-72198028D02*
X60606780Y-72102790D01*
X60606780Y-72102790D02*
X60654400Y-72007552D01*
X60654400Y-72007552D02*
X60702019Y-71959933D01*
X60702019Y-71959933D02*
X60797257Y-71912314D01*
X60797257Y-71912314D02*
X60987733Y-71864695D01*
X60987733Y-71864695D02*
X61225828Y-71864695D01*
X61225828Y-71864695D02*
X61416304Y-71912314D01*
X61416304Y-71912314D02*
X61511542Y-71959933D01*
X61511542Y-71959933D02*
X61559161Y-72007552D01*
X61559161Y-72007552D02*
X61606780Y-72102790D01*
X61606780Y-72102790D02*
X61606780Y-72198028D01*
X61606780Y-72198028D02*
X61559161Y-72293266D01*
X61559161Y-72293266D02*
X61511542Y-72340885D01*
X61511542Y-72340885D02*
X61416304Y-72388504D01*
X61416304Y-72388504D02*
X61225828Y-72436123D01*
X61225828Y-72436123D02*
X60987733Y-72436123D01*
X60987733Y-72436123D02*
X60797257Y-72388504D01*
X60797257Y-72388504D02*
X60702019Y-72340885D01*
X60702019Y-72340885D02*
X60654400Y-72293266D01*
X60654400Y-72293266D02*
X60606780Y-72198028D01*
X140403342Y-48786142D02*
X140355723Y-48833761D01*
X140355723Y-48833761D02*
X140212866Y-48881380D01*
X140212866Y-48881380D02*
X140117628Y-48881380D01*
X140117628Y-48881380D02*
X139974771Y-48833761D01*
X139974771Y-48833761D02*
X139879533Y-48738523D01*
X139879533Y-48738523D02*
X139831914Y-48643285D01*
X139831914Y-48643285D02*
X139784295Y-48452809D01*
X139784295Y-48452809D02*
X139784295Y-48309952D01*
X139784295Y-48309952D02*
X139831914Y-48119476D01*
X139831914Y-48119476D02*
X139879533Y-48024238D01*
X139879533Y-48024238D02*
X139974771Y-47929000D01*
X139974771Y-47929000D02*
X140117628Y-47881380D01*
X140117628Y-47881380D02*
X140212866Y-47881380D01*
X140212866Y-47881380D02*
X140355723Y-47929000D01*
X140355723Y-47929000D02*
X140403342Y-47976619D01*
X140784295Y-47976619D02*
X140831914Y-47929000D01*
X140831914Y-47929000D02*
X140927152Y-47881380D01*
X140927152Y-47881380D02*
X141165247Y-47881380D01*
X141165247Y-47881380D02*
X141260485Y-47929000D01*
X141260485Y-47929000D02*
X141308104Y-47976619D01*
X141308104Y-47976619D02*
X141355723Y-48071857D01*
X141355723Y-48071857D02*
X141355723Y-48167095D01*
X141355723Y-48167095D02*
X141308104Y-48309952D01*
X141308104Y-48309952D02*
X140736676Y-48881380D01*
X140736676Y-48881380D02*
X141355723Y-48881380D01*
X141689057Y-47881380D02*
X142355723Y-47881380D01*
X142355723Y-47881380D02*
X141927152Y-48881380D01*
X55057505Y-93998780D02*
X55057505Y-92998780D01*
X55057505Y-92998780D02*
X55295600Y-92998780D01*
X55295600Y-92998780D02*
X55438457Y-93046400D01*
X55438457Y-93046400D02*
X55533695Y-93141638D01*
X55533695Y-93141638D02*
X55581314Y-93236876D01*
X55581314Y-93236876D02*
X55628933Y-93427352D01*
X55628933Y-93427352D02*
X55628933Y-93570209D01*
X55628933Y-93570209D02*
X55581314Y-93760685D01*
X55581314Y-93760685D02*
X55533695Y-93855923D01*
X55533695Y-93855923D02*
X55438457Y-93951161D01*
X55438457Y-93951161D02*
X55295600Y-93998780D01*
X55295600Y-93998780D02*
X55057505Y-93998780D01*
X56009886Y-93094019D02*
X56057505Y-93046400D01*
X56057505Y-93046400D02*
X56152743Y-92998780D01*
X56152743Y-92998780D02*
X56390838Y-92998780D01*
X56390838Y-92998780D02*
X56486076Y-93046400D01*
X56486076Y-93046400D02*
X56533695Y-93094019D01*
X56533695Y-93094019D02*
X56581314Y-93189257D01*
X56581314Y-93189257D02*
X56581314Y-93284495D01*
X56581314Y-93284495D02*
X56533695Y-93427352D01*
X56533695Y-93427352D02*
X55962267Y-93998780D01*
X55962267Y-93998780D02*
X56581314Y-93998780D01*
X140377942Y-80637742D02*
X140330323Y-80685361D01*
X140330323Y-80685361D02*
X140187466Y-80732980D01*
X140187466Y-80732980D02*
X140092228Y-80732980D01*
X140092228Y-80732980D02*
X139949371Y-80685361D01*
X139949371Y-80685361D02*
X139854133Y-80590123D01*
X139854133Y-80590123D02*
X139806514Y-80494885D01*
X139806514Y-80494885D02*
X139758895Y-80304409D01*
X139758895Y-80304409D02*
X139758895Y-80161552D01*
X139758895Y-80161552D02*
X139806514Y-79971076D01*
X139806514Y-79971076D02*
X139854133Y-79875838D01*
X139854133Y-79875838D02*
X139949371Y-79780600D01*
X139949371Y-79780600D02*
X140092228Y-79732980D01*
X140092228Y-79732980D02*
X140187466Y-79732980D01*
X140187466Y-79732980D02*
X140330323Y-79780600D01*
X140330323Y-79780600D02*
X140377942Y-79828219D01*
X140758895Y-79828219D02*
X140806514Y-79780600D01*
X140806514Y-79780600D02*
X140901752Y-79732980D01*
X140901752Y-79732980D02*
X141139847Y-79732980D01*
X141139847Y-79732980D02*
X141235085Y-79780600D01*
X141235085Y-79780600D02*
X141282704Y-79828219D01*
X141282704Y-79828219D02*
X141330323Y-79923457D01*
X141330323Y-79923457D02*
X141330323Y-80018695D01*
X141330323Y-80018695D02*
X141282704Y-80161552D01*
X141282704Y-80161552D02*
X140711276Y-80732980D01*
X140711276Y-80732980D02*
X141330323Y-80732980D01*
X142187466Y-79732980D02*
X141996990Y-79732980D01*
X141996990Y-79732980D02*
X141901752Y-79780600D01*
X141901752Y-79780600D02*
X141854133Y-79828219D01*
X141854133Y-79828219D02*
X141758895Y-79971076D01*
X141758895Y-79971076D02*
X141711276Y-80161552D01*
X141711276Y-80161552D02*
X141711276Y-80542504D01*
X141711276Y-80542504D02*
X141758895Y-80637742D01*
X141758895Y-80637742D02*
X141806514Y-80685361D01*
X141806514Y-80685361D02*
X141901752Y-80732980D01*
X141901752Y-80732980D02*
X142092228Y-80732980D01*
X142092228Y-80732980D02*
X142187466Y-80685361D01*
X142187466Y-80685361D02*
X142235085Y-80637742D01*
X142235085Y-80637742D02*
X142282704Y-80542504D01*
X142282704Y-80542504D02*
X142282704Y-80304409D01*
X142282704Y-80304409D02*
X142235085Y-80209171D01*
X142235085Y-80209171D02*
X142187466Y-80161552D01*
X142187466Y-80161552D02*
X142092228Y-80113933D01*
X142092228Y-80113933D02*
X141901752Y-80113933D01*
X141901752Y-80113933D02*
X141806514Y-80161552D01*
X141806514Y-80161552D02*
X141758895Y-80209171D01*
X141758895Y-80209171D02*
X141711276Y-80304409D01*
X45244166Y-58865571D02*
X44910833Y-58865571D01*
X44910833Y-59389380D02*
X44910833Y-58389380D01*
X44910833Y-58389380D02*
X45387023Y-58389380D01*
X46101309Y-58865571D02*
X46244166Y-58913190D01*
X46244166Y-58913190D02*
X46291785Y-58960809D01*
X46291785Y-58960809D02*
X46339404Y-59056047D01*
X46339404Y-59056047D02*
X46339404Y-59198904D01*
X46339404Y-59198904D02*
X46291785Y-59294142D01*
X46291785Y-59294142D02*
X46244166Y-59341761D01*
X46244166Y-59341761D02*
X46148928Y-59389380D01*
X46148928Y-59389380D02*
X45767976Y-59389380D01*
X45767976Y-59389380D02*
X45767976Y-58389380D01*
X45767976Y-58389380D02*
X46101309Y-58389380D01*
X46101309Y-58389380D02*
X46196547Y-58437000D01*
X46196547Y-58437000D02*
X46244166Y-58484619D01*
X46244166Y-58484619D02*
X46291785Y-58579857D01*
X46291785Y-58579857D02*
X46291785Y-58675095D01*
X46291785Y-58675095D02*
X46244166Y-58770333D01*
X46244166Y-58770333D02*
X46196547Y-58817952D01*
X46196547Y-58817952D02*
X46101309Y-58865571D01*
X46101309Y-58865571D02*
X45767976Y-58865571D01*
X46720357Y-58484619D02*
X46767976Y-58437000D01*
X46767976Y-58437000D02*
X46863214Y-58389380D01*
X46863214Y-58389380D02*
X47101309Y-58389380D01*
X47101309Y-58389380D02*
X47196547Y-58437000D01*
X47196547Y-58437000D02*
X47244166Y-58484619D01*
X47244166Y-58484619D02*
X47291785Y-58579857D01*
X47291785Y-58579857D02*
X47291785Y-58675095D01*
X47291785Y-58675095D02*
X47244166Y-58817952D01*
X47244166Y-58817952D02*
X46672738Y-59389380D01*
X46672738Y-59389380D02*
X47291785Y-59389380D01*
X61191180Y-79756504D02*
X62000704Y-79756504D01*
X62000704Y-79756504D02*
X62095942Y-79708885D01*
X62095942Y-79708885D02*
X62143561Y-79661266D01*
X62143561Y-79661266D02*
X62191180Y-79566028D01*
X62191180Y-79566028D02*
X62191180Y-79375552D01*
X62191180Y-79375552D02*
X62143561Y-79280314D01*
X62143561Y-79280314D02*
X62095942Y-79232695D01*
X62095942Y-79232695D02*
X62000704Y-79185076D01*
X62000704Y-79185076D02*
X61191180Y-79185076D01*
X61191180Y-78280314D02*
X61191180Y-78470790D01*
X61191180Y-78470790D02*
X61238800Y-78566028D01*
X61238800Y-78566028D02*
X61286419Y-78613647D01*
X61286419Y-78613647D02*
X61429276Y-78708885D01*
X61429276Y-78708885D02*
X61619752Y-78756504D01*
X61619752Y-78756504D02*
X62000704Y-78756504D01*
X62000704Y-78756504D02*
X62095942Y-78708885D01*
X62095942Y-78708885D02*
X62143561Y-78661266D01*
X62143561Y-78661266D02*
X62191180Y-78566028D01*
X62191180Y-78566028D02*
X62191180Y-78375552D01*
X62191180Y-78375552D02*
X62143561Y-78280314D01*
X62143561Y-78280314D02*
X62095942Y-78232695D01*
X62095942Y-78232695D02*
X62000704Y-78185076D01*
X62000704Y-78185076D02*
X61762609Y-78185076D01*
X61762609Y-78185076D02*
X61667371Y-78232695D01*
X61667371Y-78232695D02*
X61619752Y-78280314D01*
X61619752Y-78280314D02*
X61572133Y-78375552D01*
X61572133Y-78375552D02*
X61572133Y-78566028D01*
X61572133Y-78566028D02*
X61619752Y-78661266D01*
X61619752Y-78661266D02*
X61667371Y-78708885D01*
X61667371Y-78708885D02*
X61762609Y-78756504D01*
X61536342Y-76116542D02*
X61488723Y-76164161D01*
X61488723Y-76164161D02*
X61345866Y-76211780D01*
X61345866Y-76211780D02*
X61250628Y-76211780D01*
X61250628Y-76211780D02*
X61107771Y-76164161D01*
X61107771Y-76164161D02*
X61012533Y-76068923D01*
X61012533Y-76068923D02*
X60964914Y-75973685D01*
X60964914Y-75973685D02*
X60917295Y-75783209D01*
X60917295Y-75783209D02*
X60917295Y-75640352D01*
X60917295Y-75640352D02*
X60964914Y-75449876D01*
X60964914Y-75449876D02*
X61012533Y-75354638D01*
X61012533Y-75354638D02*
X61107771Y-75259400D01*
X61107771Y-75259400D02*
X61250628Y-75211780D01*
X61250628Y-75211780D02*
X61345866Y-75211780D01*
X61345866Y-75211780D02*
X61488723Y-75259400D01*
X61488723Y-75259400D02*
X61536342Y-75307019D01*
X62488723Y-76211780D02*
X61917295Y-76211780D01*
X62203009Y-76211780D02*
X62203009Y-75211780D01*
X62203009Y-75211780D02*
X62107771Y-75354638D01*
X62107771Y-75354638D02*
X62012533Y-75449876D01*
X62012533Y-75449876D02*
X61917295Y-75497495D01*
X62964914Y-76211780D02*
X63155390Y-76211780D01*
X63155390Y-76211780D02*
X63250628Y-76164161D01*
X63250628Y-76164161D02*
X63298247Y-76116542D01*
X63298247Y-76116542D02*
X63393485Y-75973685D01*
X63393485Y-75973685D02*
X63441104Y-75783209D01*
X63441104Y-75783209D02*
X63441104Y-75402257D01*
X63441104Y-75402257D02*
X63393485Y-75307019D01*
X63393485Y-75307019D02*
X63345866Y-75259400D01*
X63345866Y-75259400D02*
X63250628Y-75211780D01*
X63250628Y-75211780D02*
X63060152Y-75211780D01*
X63060152Y-75211780D02*
X62964914Y-75259400D01*
X62964914Y-75259400D02*
X62917295Y-75307019D01*
X62917295Y-75307019D02*
X62869676Y-75402257D01*
X62869676Y-75402257D02*
X62869676Y-75640352D01*
X62869676Y-75640352D02*
X62917295Y-75735590D01*
X62917295Y-75735590D02*
X62964914Y-75783209D01*
X62964914Y-75783209D02*
X63060152Y-75830828D01*
X63060152Y-75830828D02*
X63250628Y-75830828D01*
X63250628Y-75830828D02*
X63345866Y-75783209D01*
X63345866Y-75783209D02*
X63393485Y-75735590D01*
X63393485Y-75735590D02*
X63441104Y-75640352D01*
X72805933Y-86731380D02*
X72329743Y-86731380D01*
X72329743Y-86731380D02*
X72329743Y-85731380D01*
X73663076Y-86731380D02*
X73091648Y-86731380D01*
X73377362Y-86731380D02*
X73377362Y-85731380D01*
X73377362Y-85731380D02*
X73282124Y-85874238D01*
X73282124Y-85874238D02*
X73186886Y-85969476D01*
X73186886Y-85969476D02*
X73091648Y-86017095D01*
X49116342Y-72785266D02*
X49163961Y-72832885D01*
X49163961Y-72832885D02*
X49211580Y-72975742D01*
X49211580Y-72975742D02*
X49211580Y-73070980D01*
X49211580Y-73070980D02*
X49163961Y-73213837D01*
X49163961Y-73213837D02*
X49068723Y-73309075D01*
X49068723Y-73309075D02*
X48973485Y-73356694D01*
X48973485Y-73356694D02*
X48783009Y-73404313D01*
X48783009Y-73404313D02*
X48640152Y-73404313D01*
X48640152Y-73404313D02*
X48449676Y-73356694D01*
X48449676Y-73356694D02*
X48354438Y-73309075D01*
X48354438Y-73309075D02*
X48259200Y-73213837D01*
X48259200Y-73213837D02*
X48211580Y-73070980D01*
X48211580Y-73070980D02*
X48211580Y-72975742D01*
X48211580Y-72975742D02*
X48259200Y-72832885D01*
X48259200Y-72832885D02*
X48306819Y-72785266D01*
X48211580Y-71880504D02*
X48211580Y-72356694D01*
X48211580Y-72356694D02*
X48687771Y-72404313D01*
X48687771Y-72404313D02*
X48640152Y-72356694D01*
X48640152Y-72356694D02*
X48592533Y-72261456D01*
X48592533Y-72261456D02*
X48592533Y-72023361D01*
X48592533Y-72023361D02*
X48640152Y-71928123D01*
X48640152Y-71928123D02*
X48687771Y-71880504D01*
X48687771Y-71880504D02*
X48783009Y-71832885D01*
X48783009Y-71832885D02*
X49021104Y-71832885D01*
X49021104Y-71832885D02*
X49116342Y-71880504D01*
X49116342Y-71880504D02*
X49163961Y-71928123D01*
X49163961Y-71928123D02*
X49211580Y-72023361D01*
X49211580Y-72023361D02*
X49211580Y-72261456D01*
X49211580Y-72261456D02*
X49163961Y-72356694D01*
X49163961Y-72356694D02*
X49116342Y-72404313D01*
X59408105Y-47908580D02*
X59408105Y-46908580D01*
X59408105Y-46908580D02*
X59646200Y-46908580D01*
X59646200Y-46908580D02*
X59789057Y-46956200D01*
X59789057Y-46956200D02*
X59884295Y-47051438D01*
X59884295Y-47051438D02*
X59931914Y-47146676D01*
X59931914Y-47146676D02*
X59979533Y-47337152D01*
X59979533Y-47337152D02*
X59979533Y-47480009D01*
X59979533Y-47480009D02*
X59931914Y-47670485D01*
X59931914Y-47670485D02*
X59884295Y-47765723D01*
X59884295Y-47765723D02*
X59789057Y-47860961D01*
X59789057Y-47860961D02*
X59646200Y-47908580D01*
X59646200Y-47908580D02*
X59408105Y-47908580D01*
X60931914Y-47908580D02*
X60360486Y-47908580D01*
X60646200Y-47908580D02*
X60646200Y-46908580D01*
X60646200Y-46908580D02*
X60550962Y-47051438D01*
X60550962Y-47051438D02*
X60455724Y-47146676D01*
X60455724Y-47146676D02*
X60360486Y-47194295D01*
X76801742Y-48913142D02*
X76754123Y-48960761D01*
X76754123Y-48960761D02*
X76611266Y-49008380D01*
X76611266Y-49008380D02*
X76516028Y-49008380D01*
X76516028Y-49008380D02*
X76373171Y-48960761D01*
X76373171Y-48960761D02*
X76277933Y-48865523D01*
X76277933Y-48865523D02*
X76230314Y-48770285D01*
X76230314Y-48770285D02*
X76182695Y-48579809D01*
X76182695Y-48579809D02*
X76182695Y-48436952D01*
X76182695Y-48436952D02*
X76230314Y-48246476D01*
X76230314Y-48246476D02*
X76277933Y-48151238D01*
X76277933Y-48151238D02*
X76373171Y-48056000D01*
X76373171Y-48056000D02*
X76516028Y-48008380D01*
X76516028Y-48008380D02*
X76611266Y-48008380D01*
X76611266Y-48008380D02*
X76754123Y-48056000D01*
X76754123Y-48056000D02*
X76801742Y-48103619D01*
X77182695Y-48103619D02*
X77230314Y-48056000D01*
X77230314Y-48056000D02*
X77325552Y-48008380D01*
X77325552Y-48008380D02*
X77563647Y-48008380D01*
X77563647Y-48008380D02*
X77658885Y-48056000D01*
X77658885Y-48056000D02*
X77706504Y-48103619D01*
X77706504Y-48103619D02*
X77754123Y-48198857D01*
X77754123Y-48198857D02*
X77754123Y-48294095D01*
X77754123Y-48294095D02*
X77706504Y-48436952D01*
X77706504Y-48436952D02*
X77135076Y-49008380D01*
X77135076Y-49008380D02*
X77754123Y-49008380D01*
X78087457Y-48008380D02*
X78706504Y-48008380D01*
X78706504Y-48008380D02*
X78373171Y-48389333D01*
X78373171Y-48389333D02*
X78516028Y-48389333D01*
X78516028Y-48389333D02*
X78611266Y-48436952D01*
X78611266Y-48436952D02*
X78658885Y-48484571D01*
X78658885Y-48484571D02*
X78706504Y-48579809D01*
X78706504Y-48579809D02*
X78706504Y-48817904D01*
X78706504Y-48817904D02*
X78658885Y-48913142D01*
X78658885Y-48913142D02*
X78611266Y-48960761D01*
X78611266Y-48960761D02*
X78516028Y-49008380D01*
X78516028Y-49008380D02*
X78230314Y-49008380D01*
X78230314Y-49008380D02*
X78135076Y-48960761D01*
X78135076Y-48960761D02*
X78087457Y-48913142D01*
X44170780Y-56539394D02*
X44980304Y-56539394D01*
X44980304Y-56539394D02*
X45075542Y-56491775D01*
X45075542Y-56491775D02*
X45123161Y-56444156D01*
X45123161Y-56444156D02*
X45170780Y-56348918D01*
X45170780Y-56348918D02*
X45170780Y-56158442D01*
X45170780Y-56158442D02*
X45123161Y-56063204D01*
X45123161Y-56063204D02*
X45075542Y-56015585D01*
X45075542Y-56015585D02*
X44980304Y-55967966D01*
X44980304Y-55967966D02*
X44170780Y-55967966D01*
X45170780Y-54967966D02*
X45170780Y-55539394D01*
X45170780Y-55253680D02*
X44170780Y-55253680D01*
X44170780Y-55253680D02*
X44313638Y-55348918D01*
X44313638Y-55348918D02*
X44408876Y-55444156D01*
X44408876Y-55444156D02*
X44456495Y-55539394D01*
X44170780Y-54110823D02*
X44170780Y-54301299D01*
X44170780Y-54301299D02*
X44218400Y-54396537D01*
X44218400Y-54396537D02*
X44266019Y-54444156D01*
X44266019Y-54444156D02*
X44408876Y-54539394D01*
X44408876Y-54539394D02*
X44599352Y-54587013D01*
X44599352Y-54587013D02*
X44980304Y-54587013D01*
X44980304Y-54587013D02*
X45075542Y-54539394D01*
X45075542Y-54539394D02*
X45123161Y-54491775D01*
X45123161Y-54491775D02*
X45170780Y-54396537D01*
X45170780Y-54396537D02*
X45170780Y-54206061D01*
X45170780Y-54206061D02*
X45123161Y-54110823D01*
X45123161Y-54110823D02*
X45075542Y-54063204D01*
X45075542Y-54063204D02*
X44980304Y-54015585D01*
X44980304Y-54015585D02*
X44742209Y-54015585D01*
X44742209Y-54015585D02*
X44646971Y-54063204D01*
X44646971Y-54063204D02*
X44599352Y-54110823D01*
X44599352Y-54110823D02*
X44551733Y-54206061D01*
X44551733Y-54206061D02*
X44551733Y-54396537D01*
X44551733Y-54396537D02*
X44599352Y-54491775D01*
X44599352Y-54491775D02*
X44646971Y-54539394D01*
X44646971Y-54539394D02*
X44742209Y-54587013D01*
X108729542Y-48913142D02*
X108681923Y-48960761D01*
X108681923Y-48960761D02*
X108539066Y-49008380D01*
X108539066Y-49008380D02*
X108443828Y-49008380D01*
X108443828Y-49008380D02*
X108300971Y-48960761D01*
X108300971Y-48960761D02*
X108205733Y-48865523D01*
X108205733Y-48865523D02*
X108158114Y-48770285D01*
X108158114Y-48770285D02*
X108110495Y-48579809D01*
X108110495Y-48579809D02*
X108110495Y-48436952D01*
X108110495Y-48436952D02*
X108158114Y-48246476D01*
X108158114Y-48246476D02*
X108205733Y-48151238D01*
X108205733Y-48151238D02*
X108300971Y-48056000D01*
X108300971Y-48056000D02*
X108443828Y-48008380D01*
X108443828Y-48008380D02*
X108539066Y-48008380D01*
X108539066Y-48008380D02*
X108681923Y-48056000D01*
X108681923Y-48056000D02*
X108729542Y-48103619D01*
X109110495Y-48103619D02*
X109158114Y-48056000D01*
X109158114Y-48056000D02*
X109253352Y-48008380D01*
X109253352Y-48008380D02*
X109491447Y-48008380D01*
X109491447Y-48008380D02*
X109586685Y-48056000D01*
X109586685Y-48056000D02*
X109634304Y-48103619D01*
X109634304Y-48103619D02*
X109681923Y-48198857D01*
X109681923Y-48198857D02*
X109681923Y-48294095D01*
X109681923Y-48294095D02*
X109634304Y-48436952D01*
X109634304Y-48436952D02*
X109062876Y-49008380D01*
X109062876Y-49008380D02*
X109681923Y-49008380D01*
X110539066Y-48341714D02*
X110539066Y-49008380D01*
X110300971Y-47960761D02*
X110062876Y-48675047D01*
X110062876Y-48675047D02*
X110681923Y-48675047D01*
X68792733Y-74509980D02*
X68459400Y-74033790D01*
X68221305Y-74509980D02*
X68221305Y-73509980D01*
X68221305Y-73509980D02*
X68602257Y-73509980D01*
X68602257Y-73509980D02*
X68697495Y-73557600D01*
X68697495Y-73557600D02*
X68745114Y-73605219D01*
X68745114Y-73605219D02*
X68792733Y-73700457D01*
X68792733Y-73700457D02*
X68792733Y-73843314D01*
X68792733Y-73843314D02*
X68745114Y-73938552D01*
X68745114Y-73938552D02*
X68697495Y-73986171D01*
X68697495Y-73986171D02*
X68602257Y-74033790D01*
X68602257Y-74033790D02*
X68221305Y-74033790D01*
X69697495Y-73509980D02*
X69221305Y-73509980D01*
X69221305Y-73509980D02*
X69173686Y-73986171D01*
X69173686Y-73986171D02*
X69221305Y-73938552D01*
X69221305Y-73938552D02*
X69316543Y-73890933D01*
X69316543Y-73890933D02*
X69554638Y-73890933D01*
X69554638Y-73890933D02*
X69649876Y-73938552D01*
X69649876Y-73938552D02*
X69697495Y-73986171D01*
X69697495Y-73986171D02*
X69745114Y-74081409D01*
X69745114Y-74081409D02*
X69745114Y-74319504D01*
X69745114Y-74319504D02*
X69697495Y-74414742D01*
X69697495Y-74414742D02*
X69649876Y-74462361D01*
X69649876Y-74462361D02*
X69554638Y-74509980D01*
X69554638Y-74509980D02*
X69316543Y-74509980D01*
X69316543Y-74509980D02*
X69221305Y-74462361D01*
X69221305Y-74462361D02*
X69173686Y-74414742D01*
X55128542Y-79967057D02*
X55176161Y-80014676D01*
X55176161Y-80014676D02*
X55223780Y-80157533D01*
X55223780Y-80157533D02*
X55223780Y-80252771D01*
X55223780Y-80252771D02*
X55176161Y-80395628D01*
X55176161Y-80395628D02*
X55080923Y-80490866D01*
X55080923Y-80490866D02*
X54985685Y-80538485D01*
X54985685Y-80538485D02*
X54795209Y-80586104D01*
X54795209Y-80586104D02*
X54652352Y-80586104D01*
X54652352Y-80586104D02*
X54461876Y-80538485D01*
X54461876Y-80538485D02*
X54366638Y-80490866D01*
X54366638Y-80490866D02*
X54271400Y-80395628D01*
X54271400Y-80395628D02*
X54223780Y-80252771D01*
X54223780Y-80252771D02*
X54223780Y-80157533D01*
X54223780Y-80157533D02*
X54271400Y-80014676D01*
X54271400Y-80014676D02*
X54319019Y-79967057D01*
X55223780Y-79014676D02*
X55223780Y-79586104D01*
X55223780Y-79300390D02*
X54223780Y-79300390D01*
X54223780Y-79300390D02*
X54366638Y-79395628D01*
X54366638Y-79395628D02*
X54461876Y-79490866D01*
X54461876Y-79490866D02*
X54509495Y-79586104D01*
X54652352Y-78443247D02*
X54604733Y-78538485D01*
X54604733Y-78538485D02*
X54557114Y-78586104D01*
X54557114Y-78586104D02*
X54461876Y-78633723D01*
X54461876Y-78633723D02*
X54414257Y-78633723D01*
X54414257Y-78633723D02*
X54319019Y-78586104D01*
X54319019Y-78586104D02*
X54271400Y-78538485D01*
X54271400Y-78538485D02*
X54223780Y-78443247D01*
X54223780Y-78443247D02*
X54223780Y-78252771D01*
X54223780Y-78252771D02*
X54271400Y-78157533D01*
X54271400Y-78157533D02*
X54319019Y-78109914D01*
X54319019Y-78109914D02*
X54414257Y-78062295D01*
X54414257Y-78062295D02*
X54461876Y-78062295D01*
X54461876Y-78062295D02*
X54557114Y-78109914D01*
X54557114Y-78109914D02*
X54604733Y-78157533D01*
X54604733Y-78157533D02*
X54652352Y-78252771D01*
X54652352Y-78252771D02*
X54652352Y-78443247D01*
X54652352Y-78443247D02*
X54699971Y-78538485D01*
X54699971Y-78538485D02*
X54747590Y-78586104D01*
X54747590Y-78586104D02*
X54842828Y-78633723D01*
X54842828Y-78633723D02*
X55033304Y-78633723D01*
X55033304Y-78633723D02*
X55128542Y-78586104D01*
X55128542Y-78586104D02*
X55176161Y-78538485D01*
X55176161Y-78538485D02*
X55223780Y-78443247D01*
X55223780Y-78443247D02*
X55223780Y-78252771D01*
X55223780Y-78252771D02*
X55176161Y-78157533D01*
X55176161Y-78157533D02*
X55128542Y-78109914D01*
X55128542Y-78109914D02*
X55033304Y-78062295D01*
X55033304Y-78062295D02*
X54842828Y-78062295D01*
X54842828Y-78062295D02*
X54747590Y-78109914D01*
X54747590Y-78109914D02*
X54699971Y-78157533D01*
X54699971Y-78157533D02*
X54652352Y-78252771D01*
X59638590Y-70326190D02*
X60114780Y-70326190D01*
X59114780Y-70659523D02*
X59638590Y-70326190D01*
X59638590Y-70326190D02*
X59114780Y-69992857D01*
X59210019Y-69707142D02*
X59162400Y-69659523D01*
X59162400Y-69659523D02*
X59114780Y-69564285D01*
X59114780Y-69564285D02*
X59114780Y-69326190D01*
X59114780Y-69326190D02*
X59162400Y-69230952D01*
X59162400Y-69230952D02*
X59210019Y-69183333D01*
X59210019Y-69183333D02*
X59305257Y-69135714D01*
X59305257Y-69135714D02*
X59400495Y-69135714D01*
X59400495Y-69135714D02*
X59543352Y-69183333D01*
X59543352Y-69183333D02*
X60114780Y-69754761D01*
X60114780Y-69754761D02*
X60114780Y-69135714D01*
X45356542Y-80663142D02*
X45308923Y-80710761D01*
X45308923Y-80710761D02*
X45166066Y-80758380D01*
X45166066Y-80758380D02*
X45070828Y-80758380D01*
X45070828Y-80758380D02*
X44927971Y-80710761D01*
X44927971Y-80710761D02*
X44832733Y-80615523D01*
X44832733Y-80615523D02*
X44785114Y-80520285D01*
X44785114Y-80520285D02*
X44737495Y-80329809D01*
X44737495Y-80329809D02*
X44737495Y-80186952D01*
X44737495Y-80186952D02*
X44785114Y-79996476D01*
X44785114Y-79996476D02*
X44832733Y-79901238D01*
X44832733Y-79901238D02*
X44927971Y-79806000D01*
X44927971Y-79806000D02*
X45070828Y-79758380D01*
X45070828Y-79758380D02*
X45166066Y-79758380D01*
X45166066Y-79758380D02*
X45308923Y-79806000D01*
X45308923Y-79806000D02*
X45356542Y-79853619D01*
X45737495Y-79853619D02*
X45785114Y-79806000D01*
X45785114Y-79806000D02*
X45880352Y-79758380D01*
X45880352Y-79758380D02*
X46118447Y-79758380D01*
X46118447Y-79758380D02*
X46213685Y-79806000D01*
X46213685Y-79806000D02*
X46261304Y-79853619D01*
X46261304Y-79853619D02*
X46308923Y-79948857D01*
X46308923Y-79948857D02*
X46308923Y-80044095D01*
X46308923Y-80044095D02*
X46261304Y-80186952D01*
X46261304Y-80186952D02*
X45689876Y-80758380D01*
X45689876Y-80758380D02*
X46308923Y-80758380D01*
X47261304Y-80758380D02*
X46689876Y-80758380D01*
X46975590Y-80758380D02*
X46975590Y-79758380D01*
X46975590Y-79758380D02*
X46880352Y-79901238D01*
X46880352Y-79901238D02*
X46785114Y-79996476D01*
X46785114Y-79996476D02*
X46689876Y-80044095D01*
X75525980Y-73191666D02*
X75049790Y-73524999D01*
X75525980Y-73763094D02*
X74525980Y-73763094D01*
X74525980Y-73763094D02*
X74525980Y-73382142D01*
X74525980Y-73382142D02*
X74573600Y-73286904D01*
X74573600Y-73286904D02*
X74621219Y-73239285D01*
X74621219Y-73239285D02*
X74716457Y-73191666D01*
X74716457Y-73191666D02*
X74859314Y-73191666D01*
X74859314Y-73191666D02*
X74954552Y-73239285D01*
X74954552Y-73239285D02*
X75002171Y-73286904D01*
X75002171Y-73286904D02*
X75049790Y-73382142D01*
X75049790Y-73382142D02*
X75049790Y-73763094D01*
X74525980Y-72858332D02*
X74525980Y-72191666D01*
X74525980Y-72191666D02*
X75525980Y-72620237D01*
D11*
X64160400Y-59556400D02*
X67610400Y-59556400D01*
X64160400Y-59556400D02*
X62210400Y-59556400D01*
X64160400Y-54286400D02*
X66110400Y-54286400D01*
X64160400Y-54286400D02*
X62210400Y-54286400D01*
D12*
X67488000Y-51257000D02*
X67988000Y-51257000D01*
X67488000Y-51257000D02*
X67488000Y-50757000D01*
X67988000Y-51257000D02*
X67988000Y-51657000D01*
X70688000Y-51257000D02*
X70188000Y-51257000D01*
X70688000Y-51257000D02*
X70688000Y-50757000D01*
X67488000Y-48057000D02*
X67488000Y-48557000D01*
X67488000Y-48057000D02*
X67988000Y-48057000D01*
X70688000Y-48057000D02*
X70688000Y-48457000D01*
X70688000Y-48057000D02*
X70188000Y-48057000D01*
D11*
X47624276Y-65212700D02*
X48133724Y-65212700D01*
X47624276Y-66257700D02*
X48133724Y-66257700D01*
X112300633Y-79296800D02*
X112593167Y-79296800D01*
X112300633Y-80316800D02*
X112593167Y-80316800D01*
X66597600Y-79034000D02*
X66597600Y-80834000D01*
X69817600Y-80834000D02*
X69817600Y-77884000D01*
X42954200Y-62095000D02*
X42099200Y-62095000D01*
X38979200Y-62095000D02*
X38029200Y-62095000D01*
X38029200Y-62095000D02*
X38029200Y-71255000D01*
X42954200Y-71255000D02*
X42099200Y-71255000D01*
X38979200Y-71255000D02*
X38029200Y-71255000D01*
X62796052Y-84262800D02*
X62273548Y-84262800D01*
X62796052Y-82792800D02*
X62273548Y-82792800D01*
X70576800Y-66183533D02*
X70576800Y-66476067D01*
X69556800Y-66183533D02*
X69556800Y-66476067D01*
X57783000Y-72738367D02*
X57783000Y-72445833D01*
X58803000Y-72738367D02*
X58803000Y-72445833D01*
X59770400Y-67521600D02*
X63470400Y-67521600D01*
X63470400Y-67521600D02*
X63470400Y-62221600D01*
X53828733Y-57529000D02*
X54121267Y-57529000D01*
X53828733Y-58549000D02*
X54121267Y-58549000D01*
X70386200Y-79372867D02*
X70386200Y-79080333D01*
X71406200Y-79372867D02*
X71406200Y-79080333D01*
X73347452Y-77243800D02*
X72824948Y-77243800D01*
X73347452Y-75773800D02*
X72824948Y-75773800D01*
X47614100Y-69849276D02*
X47614100Y-70358724D01*
X46569100Y-69849276D02*
X46569100Y-70358724D01*
X70980800Y-66729800D02*
X70980800Y-68529800D01*
X70980800Y-66729800D02*
X70980800Y-65929800D01*
X74100800Y-66729800D02*
X74100800Y-67529800D01*
X74100800Y-66729800D02*
X74100800Y-65929800D01*
X65194567Y-70842600D02*
X64902033Y-70842600D01*
X65194567Y-69822600D02*
X64902033Y-69822600D01*
X54229724Y-61507900D02*
X53720276Y-61507900D01*
X54229724Y-60462900D02*
X53720276Y-60462900D01*
X59868976Y-49921900D02*
X60378424Y-49921900D01*
X59868976Y-50966900D02*
X60378424Y-50966900D01*
X62796052Y-86231400D02*
X62273548Y-86231400D01*
X62796052Y-84761400D02*
X62273548Y-84761400D01*
X48800633Y-47546800D02*
X49093167Y-47546800D01*
X48800633Y-48566800D02*
X49093167Y-48566800D01*
X68982276Y-52768500D02*
X69491724Y-52768500D01*
X68982276Y-53813500D02*
X69491724Y-53813500D01*
X50451633Y-60475400D02*
X50744167Y-60475400D01*
X50451633Y-61495400D02*
X50744167Y-61495400D01*
X69366524Y-71748100D02*
X68857076Y-71748100D01*
X69366524Y-70703100D02*
X68857076Y-70703100D01*
D13*
X72220200Y-71316400D02*
X73420200Y-71316400D01*
X72220200Y-73776400D02*
X73420200Y-73776400D01*
D14*
X71320200Y-71796400D02*
G75*
G03*
X71320200Y-71796400I-100000J0D01*
G01*
D12*
X92042000Y-69175000D02*
X82042000Y-72675000D01*
X92042000Y-69175000D02*
X98042000Y-69175000D01*
X98042000Y-69175000D02*
X98042000Y-64175000D01*
X98042000Y-64175000D02*
X92042000Y-64175000D01*
X82042000Y-60675000D02*
X92042000Y-64175000D01*
D11*
X40614600Y-75260200D02*
X41249600Y-75260200D01*
X40614600Y-75895200D02*
X40614600Y-75260200D01*
X53828733Y-59002200D02*
X54121267Y-59002200D01*
X53828733Y-60022200D02*
X54121267Y-60022200D01*
X65729067Y-66042000D02*
X65436533Y-66042000D01*
X65729067Y-65022000D02*
X65436533Y-65022000D01*
X65729067Y-64568800D02*
X65436533Y-64568800D01*
X65729067Y-63548800D02*
X65436533Y-63548800D01*
X65194567Y-69369400D02*
X64902033Y-69369400D01*
X65194567Y-68349400D02*
X64902033Y-68349400D01*
X80549533Y-79296800D02*
X80842067Y-79296800D01*
X80549533Y-80316800D02*
X80842067Y-80316800D01*
X74484400Y-67276067D02*
X74484400Y-66983533D01*
X75504400Y-67276067D02*
X75504400Y-66983533D01*
X63785533Y-60018200D02*
X64078067Y-60018200D01*
X63785533Y-61038200D02*
X64078067Y-61038200D01*
X57948100Y-63065000D02*
X57948100Y-63540000D01*
X57473100Y-70285000D02*
X57948100Y-70285000D01*
X57473100Y-63065000D02*
X57948100Y-63065000D01*
X51203100Y-70285000D02*
X50728100Y-70285000D01*
X51203100Y-63065000D02*
X50728100Y-63065000D01*
X50728100Y-70285000D02*
X50728100Y-69810000D01*
X50728100Y-63065000D02*
X50728100Y-63540000D01*
X59281600Y-72738367D02*
X59281600Y-72445833D01*
X60301600Y-72738367D02*
X60301600Y-72445833D01*
X144050633Y-47546800D02*
X144343167Y-47546800D01*
X144050633Y-48566800D02*
X144343167Y-48566800D01*
D12*
X56645600Y-91631400D02*
X56645600Y-91581400D01*
X56645600Y-91581400D02*
X57420600Y-91581400D01*
X56645600Y-88606400D02*
X56645600Y-88956400D01*
X56270600Y-91906400D02*
X56645600Y-91631400D01*
X56170600Y-88606400D02*
X56645600Y-88606400D01*
X55995600Y-91906400D02*
X56270600Y-91906400D01*
X55370600Y-91906400D02*
X54995600Y-91906400D01*
X54995600Y-91906400D02*
X54995600Y-91606400D01*
X54995600Y-88906400D02*
X54995600Y-88606400D01*
X54995600Y-88831400D02*
X54995600Y-88956400D01*
X54995600Y-88606400D02*
X55445600Y-88606400D01*
D11*
X144050633Y-79296800D02*
X144343167Y-79296800D01*
X144050633Y-80316800D02*
X144343167Y-80316800D01*
X45822776Y-59929500D02*
X46332224Y-59929500D01*
X45822776Y-60974500D02*
X46332224Y-60974500D01*
D12*
X62938000Y-51257000D02*
X63438000Y-51257000D01*
X62938000Y-51257000D02*
X62938000Y-50757000D01*
X63438000Y-51257000D02*
X63438000Y-51657000D01*
X66138000Y-51257000D02*
X65638000Y-51257000D01*
X66138000Y-51257000D02*
X66138000Y-50757000D01*
X62938000Y-48057000D02*
X62938000Y-48557000D01*
X62938000Y-48057000D02*
X63438000Y-48057000D01*
X66138000Y-48057000D02*
X66138000Y-48457000D01*
X66138000Y-48057000D02*
X65638000Y-48057000D01*
D11*
X57713800Y-77434600D02*
X57863800Y-77434600D01*
X57713800Y-77434600D02*
X57713800Y-80554600D01*
X60833800Y-78994600D02*
X60833800Y-80554600D01*
X60833800Y-80554600D02*
X60683800Y-80554600D01*
X57713800Y-80554600D02*
X57863800Y-80554600D01*
X59137333Y-75105800D02*
X59429867Y-75105800D01*
X59137333Y-76125800D02*
X59429867Y-76125800D01*
X70566200Y-85299000D02*
X74566200Y-85299000D01*
X72566200Y-81079000D02*
X74566200Y-81079000D01*
X48156400Y-70250267D02*
X48156400Y-69957733D01*
X49176400Y-70250267D02*
X49176400Y-69957733D01*
X58486200Y-48236200D02*
X58486200Y-49706200D01*
X58486200Y-49706200D02*
X60946200Y-49706200D01*
X60946200Y-48236200D02*
X58486200Y-48236200D01*
X80548433Y-47546800D02*
X80840967Y-47546800D01*
X80548433Y-48566800D02*
X80840967Y-48566800D01*
G36*
X136214271Y-64115713D02*
G01*
X137052050Y-64115713D01*
X137065455Y-64185563D01*
X137071154Y-64223912D01*
X137082190Y-64305821D01*
X137097701Y-64424429D01*
X137116823Y-64572876D01*
X137138691Y-64744300D01*
X137162443Y-64931842D01*
X137187214Y-65128641D01*
X137212140Y-65327836D01*
X137236357Y-65522568D01*
X137259002Y-65705974D01*
X137279211Y-65871196D01*
X137296120Y-66011372D01*
X137307567Y-66108410D01*
X137325100Y-66259608D01*
X137421780Y-66019510D01*
X137456656Y-65940388D01*
X137512239Y-65823635D01*
X137584994Y-65676265D01*
X137671382Y-65505288D01*
X137767867Y-65317717D01*
X137870911Y-65120563D01*
X137959292Y-64953913D01*
X138400124Y-64128413D01*
X139267668Y-64121727D01*
X139507590Y-64120216D01*
X139700891Y-64119843D01*
X139851740Y-64120733D01*
X139964307Y-64123011D01*
X140042760Y-64126803D01*
X140091269Y-64132232D01*
X140114004Y-64139424D01*
X140116111Y-64147127D01*
X140098847Y-64172528D01*
X140054669Y-64236312D01*
X139985824Y-64335262D01*
X139894557Y-64466163D01*
X139783115Y-64625799D01*
X139653744Y-64810956D01*
X139508690Y-65018418D01*
X139350199Y-65244968D01*
X139180516Y-65487393D01*
X139001889Y-65742475D01*
X138946323Y-65821800D01*
X137795635Y-67464388D01*
X137611167Y-68349100D01*
X137426700Y-69233813D01*
X136645650Y-69240530D01*
X136452347Y-69241983D01*
X136276504Y-69242902D01*
X136124247Y-69243287D01*
X136001697Y-69243139D01*
X135914978Y-69242457D01*
X135870215Y-69241240D01*
X135865389Y-69240530D01*
X135870672Y-69215022D01*
X135885343Y-69145495D01*
X135908199Y-69037614D01*
X135938038Y-68897043D01*
X135973657Y-68729446D01*
X136013855Y-68540489D01*
X136052326Y-68359788D01*
X136238475Y-67485764D01*
X135824867Y-65870588D01*
X135753350Y-65591279D01*
X135685227Y-65325167D01*
X135621598Y-65076555D01*
X135563564Y-64849747D01*
X135512226Y-64649047D01*
X135468685Y-64478758D01*
X135434042Y-64343184D01*
X135409396Y-64246629D01*
X135395850Y-64193396D01*
X135393876Y-64185562D01*
X135376492Y-64115712D01*
X136214271Y-64115713D01*
G37*
D15*
X136214271Y-64115713D02*
X137052050Y-64115713D01*
X137065455Y-64185563D01*
X137071154Y-64223912D01*
X137082190Y-64305821D01*
X137097701Y-64424429D01*
X137116823Y-64572876D01*
X137138691Y-64744300D01*
X137162443Y-64931842D01*
X137187214Y-65128641D01*
X137212140Y-65327836D01*
X137236357Y-65522568D01*
X137259002Y-65705974D01*
X137279211Y-65871196D01*
X137296120Y-66011372D01*
X137307567Y-66108410D01*
X137325100Y-66259608D01*
X137421780Y-66019510D01*
X137456656Y-65940388D01*
X137512239Y-65823635D01*
X137584994Y-65676265D01*
X137671382Y-65505288D01*
X137767867Y-65317717D01*
X137870911Y-65120563D01*
X137959292Y-64953913D01*
X138400124Y-64128413D01*
X139267668Y-64121727D01*
X139507590Y-64120216D01*
X139700891Y-64119843D01*
X139851740Y-64120733D01*
X139964307Y-64123011D01*
X140042760Y-64126803D01*
X140091269Y-64132232D01*
X140114004Y-64139424D01*
X140116111Y-64147127D01*
X140098847Y-64172528D01*
X140054669Y-64236312D01*
X139985824Y-64335262D01*
X139894557Y-64466163D01*
X139783115Y-64625799D01*
X139653744Y-64810956D01*
X139508690Y-65018418D01*
X139350199Y-65244968D01*
X139180516Y-65487393D01*
X139001889Y-65742475D01*
X138946323Y-65821800D01*
X137795635Y-67464388D01*
X137611167Y-68349100D01*
X137426700Y-69233813D01*
X136645650Y-69240530D01*
X136452347Y-69241983D01*
X136276504Y-69242902D01*
X136124247Y-69243287D01*
X136001697Y-69243139D01*
X135914978Y-69242457D01*
X135870215Y-69241240D01*
X135865389Y-69240530D01*
X135870672Y-69215022D01*
X135885343Y-69145495D01*
X135908199Y-69037614D01*
X135938038Y-68897043D01*
X135973657Y-68729446D01*
X136013855Y-68540489D01*
X136052326Y-68359788D01*
X136238475Y-67485764D01*
X135824867Y-65870588D01*
X135753350Y-65591279D01*
X135685227Y-65325167D01*
X135621598Y-65076555D01*
X135563564Y-64849747D01*
X135512226Y-64649047D01*
X135468685Y-64478758D01*
X135434042Y-64343184D01*
X135409396Y-64246629D01*
X135395850Y-64193396D01*
X135393876Y-64185562D01*
X135376492Y-64115712D01*
X136214271Y-64115713D01*
G36*
X131064584Y-66326971D02*
G01*
X132613400Y-66326971D01*
X132628274Y-66340220D01*
X132676581Y-66347614D01*
X132763846Y-66349497D01*
X132895592Y-66346214D01*
X132911850Y-66345598D01*
X133053833Y-66338278D01*
X133157970Y-66327704D01*
X133237202Y-66311725D01*
X133304471Y-66288194D01*
X133331467Y-66275927D01*
X133473284Y-66184408D01*
X133583099Y-66066067D01*
X133658946Y-65929167D01*
X133698859Y-65781971D01*
X133700868Y-65632744D01*
X133663009Y-65489749D01*
X133583312Y-65361249D01*
X133556188Y-65331924D01*
X133470695Y-65262600D01*
X133371262Y-65216929D01*
X133246553Y-65191459D01*
X133085231Y-65182738D01*
X133065961Y-65182654D01*
X132964404Y-65184344D01*
X132902854Y-65191112D01*
X132870594Y-65205238D01*
X132857489Y-65226963D01*
X132845688Y-65272562D01*
X132825863Y-65355875D01*
X132799998Y-65467962D01*
X132770078Y-65599881D01*
X132738086Y-65742690D01*
X132706007Y-65887447D01*
X132675824Y-66025212D01*
X132649522Y-66147043D01*
X132629085Y-66243998D01*
X132616497Y-66307136D01*
X132613400Y-66326971D01*
X131064584Y-66326971D01*
X131532640Y-64112764D01*
X132803270Y-64121733D01*
X133091313Y-64123847D01*
X133333405Y-64125919D01*
X133534395Y-64128162D01*
X133699132Y-64130789D01*
X133832464Y-64134015D01*
X133939241Y-64138053D01*
X134024310Y-64143117D01*
X134092521Y-64149421D01*
X134148723Y-64157178D01*
X134197763Y-64166602D01*
X134244491Y-64177906D01*
X134277100Y-64186688D01*
X134558571Y-64284057D01*
X134798296Y-64409309D01*
X134995857Y-64561953D01*
X135150839Y-64741501D01*
X135262825Y-64947461D01*
X135331399Y-65179345D01*
X135356146Y-65436662D01*
X135356224Y-65456813D01*
X135334541Y-65713233D01*
X135269304Y-65948435D01*
X135158453Y-66167168D01*
X134999929Y-66374183D01*
X134924035Y-66453462D01*
X134695744Y-66643582D01*
X134435819Y-66794017D01*
X134144142Y-66904832D01*
X134082466Y-66922119D01*
X133870700Y-66978230D01*
X133985000Y-67036536D01*
X134175715Y-67157702D01*
X134329694Y-67309812D01*
X134451737Y-67498204D01*
X134505240Y-67614898D01*
X134521476Y-67665797D01*
X134546227Y-67757286D01*
X134577719Y-67881624D01*
X134614178Y-68031070D01*
X134653830Y-68197881D01*
X134694901Y-68374317D01*
X134735616Y-68552637D01*
X134774202Y-68725098D01*
X134808884Y-68883961D01*
X134837888Y-69021483D01*
X134859441Y-69129924D01*
X134871768Y-69201542D01*
X134874000Y-69223989D01*
X134849539Y-69229583D01*
X134779912Y-69234635D01*
X134670752Y-69238991D01*
X134527691Y-69242495D01*
X134356360Y-69244992D01*
X134162393Y-69246328D01*
X134054717Y-69246513D01*
X133235434Y-69246513D01*
X133129830Y-68617863D01*
X133098153Y-68436291D01*
X133065820Y-68263465D01*
X133034660Y-68108260D01*
X133006502Y-67979552D01*
X132983174Y-67886218D01*
X132971179Y-67847950D01*
X132890659Y-67691377D01*
X132782896Y-67571943D01*
X132652761Y-67493589D01*
X132505125Y-67460258D01*
X132491397Y-67459610D01*
X132376743Y-67455813D01*
X132218430Y-68205113D01*
X132177024Y-68401231D01*
X132137607Y-68588195D01*
X132101805Y-68758266D01*
X132071246Y-68903708D01*
X132047556Y-69016785D01*
X132032363Y-69089758D01*
X132030158Y-69100463D01*
X132000198Y-69246513D01*
X130448477Y-69246513D01*
X130460034Y-69189363D01*
X130466806Y-69156984D01*
X130483365Y-69078317D01*
X130508992Y-68956771D01*
X130542966Y-68795761D01*
X130584566Y-68598696D01*
X130633072Y-68368990D01*
X130687763Y-68110054D01*
X130747920Y-67825300D01*
X130812820Y-67518140D01*
X130881744Y-67191986D01*
X130953972Y-66850249D01*
X131002116Y-66622488D01*
X131064584Y-66326971D01*
G37*
X131064584Y-66326971D02*
X132613400Y-66326971D01*
X132628274Y-66340220D01*
X132676581Y-66347614D01*
X132763846Y-66349497D01*
X132895592Y-66346214D01*
X132911850Y-66345598D01*
X133053833Y-66338278D01*
X133157970Y-66327704D01*
X133237202Y-66311725D01*
X133304471Y-66288194D01*
X133331467Y-66275927D01*
X133473284Y-66184408D01*
X133583099Y-66066067D01*
X133658946Y-65929167D01*
X133698859Y-65781971D01*
X133700868Y-65632744D01*
X133663009Y-65489749D01*
X133583312Y-65361249D01*
X133556188Y-65331924D01*
X133470695Y-65262600D01*
X133371262Y-65216929D01*
X133246553Y-65191459D01*
X133085231Y-65182738D01*
X133065961Y-65182654D01*
X132964404Y-65184344D01*
X132902854Y-65191112D01*
X132870594Y-65205238D01*
X132857489Y-65226963D01*
X132845688Y-65272562D01*
X132825863Y-65355875D01*
X132799998Y-65467962D01*
X132770078Y-65599881D01*
X132738086Y-65742690D01*
X132706007Y-65887447D01*
X132675824Y-66025212D01*
X132649522Y-66147043D01*
X132629085Y-66243998D01*
X132616497Y-66307136D01*
X132613400Y-66326971D01*
X131064584Y-66326971D01*
X131532640Y-64112764D01*
X132803270Y-64121733D01*
X133091313Y-64123847D01*
X133333405Y-64125919D01*
X133534395Y-64128162D01*
X133699132Y-64130789D01*
X133832464Y-64134015D01*
X133939241Y-64138053D01*
X134024310Y-64143117D01*
X134092521Y-64149421D01*
X134148723Y-64157178D01*
X134197763Y-64166602D01*
X134244491Y-64177906D01*
X134277100Y-64186688D01*
X134558571Y-64284057D01*
X134798296Y-64409309D01*
X134995857Y-64561953D01*
X135150839Y-64741501D01*
X135262825Y-64947461D01*
X135331399Y-65179345D01*
X135356146Y-65436662D01*
X135356224Y-65456813D01*
X135334541Y-65713233D01*
X135269304Y-65948435D01*
X135158453Y-66167168D01*
X134999929Y-66374183D01*
X134924035Y-66453462D01*
X134695744Y-66643582D01*
X134435819Y-66794017D01*
X134144142Y-66904832D01*
X134082466Y-66922119D01*
X133870700Y-66978230D01*
X133985000Y-67036536D01*
X134175715Y-67157702D01*
X134329694Y-67309812D01*
X134451737Y-67498204D01*
X134505240Y-67614898D01*
X134521476Y-67665797D01*
X134546227Y-67757286D01*
X134577719Y-67881624D01*
X134614178Y-68031070D01*
X134653830Y-68197881D01*
X134694901Y-68374317D01*
X134735616Y-68552637D01*
X134774202Y-68725098D01*
X134808884Y-68883961D01*
X134837888Y-69021483D01*
X134859441Y-69129924D01*
X134871768Y-69201542D01*
X134874000Y-69223989D01*
X134849539Y-69229583D01*
X134779912Y-69234635D01*
X134670752Y-69238991D01*
X134527691Y-69242495D01*
X134356360Y-69244992D01*
X134162393Y-69246328D01*
X134054717Y-69246513D01*
X133235434Y-69246513D01*
X133129830Y-68617863D01*
X133098153Y-68436291D01*
X133065820Y-68263465D01*
X133034660Y-68108260D01*
X133006502Y-67979552D01*
X132983174Y-67886218D01*
X132971179Y-67847950D01*
X132890659Y-67691377D01*
X132782896Y-67571943D01*
X132652761Y-67493589D01*
X132505125Y-67460258D01*
X132491397Y-67459610D01*
X132376743Y-67455813D01*
X132218430Y-68205113D01*
X132177024Y-68401231D01*
X132137607Y-68588195D01*
X132101805Y-68758266D01*
X132071246Y-68903708D01*
X132047556Y-69016785D01*
X132032363Y-69089758D01*
X132030158Y-69100463D01*
X132000198Y-69246513D01*
X130448477Y-69246513D01*
X130460034Y-69189363D01*
X130466806Y-69156984D01*
X130483365Y-69078317D01*
X130508992Y-68956771D01*
X130542966Y-68795761D01*
X130584566Y-68598696D01*
X130633072Y-68368990D01*
X130687763Y-68110054D01*
X130747920Y-67825300D01*
X130812820Y-67518140D01*
X130881744Y-67191986D01*
X130953972Y-66850249D01*
X131002116Y-66622488D01*
X131064584Y-66326971D01*
G36*
X126546800Y-66128681D02*
G01*
X128096705Y-66128681D01*
X128443702Y-66116843D01*
X128592795Y-66110562D01*
X128702334Y-66102387D01*
X128783567Y-66090653D01*
X128847741Y-66073695D01*
X128906103Y-66049846D01*
X128910605Y-66047712D01*
X129025344Y-65976256D01*
X129123884Y-65884019D01*
X129194707Y-65783618D01*
X129223923Y-65704558D01*
X129232107Y-65558036D01*
X129203349Y-65423161D01*
X129140912Y-65313301D01*
X129123779Y-65294612D01*
X129055691Y-65238657D01*
X128975169Y-65199324D01*
X128872649Y-65174233D01*
X128738565Y-65161004D01*
X128571754Y-65157254D01*
X128302009Y-65157112D01*
X128272503Y-65303163D01*
X128255740Y-65384448D01*
X128231374Y-65500447D01*
X128202560Y-65636226D01*
X128172454Y-65776853D01*
X128169851Y-65788947D01*
X128096705Y-66128681D01*
X126546800Y-66128681D01*
X126583151Y-65956450D01*
X126649289Y-65643414D01*
X126711158Y-65350909D01*
X126768026Y-65082386D01*
X126819160Y-64841298D01*
X126863828Y-64631094D01*
X126901299Y-64455228D01*
X126930839Y-64317149D01*
X126951716Y-64220310D01*
X126963198Y-64168161D01*
X126965114Y-64160163D01*
X126970686Y-64149962D01*
X126983777Y-64141447D01*
X127008616Y-64134467D01*
X127049432Y-64128870D01*
X127110454Y-64124504D01*
X127195910Y-64121220D01*
X127310030Y-64118865D01*
X127457042Y-64117288D01*
X127641175Y-64116339D01*
X127866658Y-64115865D01*
X128137720Y-64115717D01*
X128208378Y-64115713D01*
X128537712Y-64116219D01*
X128820989Y-64117939D01*
X129062941Y-64121169D01*
X129268303Y-64126208D01*
X129441809Y-64133352D01*
X129588193Y-64142901D01*
X129712189Y-64155153D01*
X129818530Y-64170404D01*
X129911951Y-64188953D01*
X129997186Y-64211098D01*
X130065590Y-64232585D01*
X130304717Y-64331809D01*
X130499757Y-64454759D01*
X130652542Y-64603435D01*
X130764906Y-64779834D01*
X130838680Y-64985956D01*
X130861714Y-65101084D01*
X130875956Y-65347345D01*
X130842008Y-65581107D01*
X130761772Y-65798335D01*
X130637148Y-65994993D01*
X130470038Y-66167047D01*
X130303295Y-66286542D01*
X130164447Y-66360859D01*
X130007548Y-66429075D01*
X129852594Y-66483315D01*
X129722967Y-66515140D01*
X129652465Y-66532597D01*
X129632264Y-66551658D01*
X129661951Y-66570907D01*
X129741117Y-66588928D01*
X129744521Y-66589478D01*
X129885991Y-66628073D01*
X130040216Y-66696134D01*
X130187816Y-66783783D01*
X130301028Y-66873161D01*
X130436609Y-67033568D01*
X130535184Y-67221949D01*
X130596352Y-67431053D01*
X130619708Y-67653629D01*
X130604849Y-67882425D01*
X130551374Y-68110190D01*
X130458878Y-68329671D01*
X130388558Y-68448265D01*
X130233584Y-68636949D01*
X130035342Y-68803308D01*
X129796907Y-68945818D01*
X129521359Y-69062956D01*
X129211773Y-69153196D01*
X128871227Y-69215017D01*
X128829466Y-69220326D01*
X128759169Y-69225704D01*
X128643172Y-69230650D01*
X128486573Y-69235078D01*
X128294468Y-69238906D01*
X128071958Y-69242047D01*
X127824138Y-69244418D01*
X127556109Y-69245934D01*
X127272967Y-69246510D01*
X127251016Y-69246513D01*
X125887799Y-69246513D01*
X125908795Y-69151263D01*
X125916937Y-69113247D01*
X125934802Y-69029069D01*
X125961642Y-68902277D01*
X125996707Y-68736415D01*
X126039248Y-68535033D01*
X126088518Y-68301675D01*
X126112734Y-68186928D01*
X127660400Y-68186928D01*
X127684908Y-68195510D01*
X127755047Y-68200909D01*
X127865738Y-68202961D01*
X128011900Y-68201507D01*
X128073150Y-68200069D01*
X128233725Y-68195015D01*
X128353561Y-68188829D01*
X128442719Y-68180230D01*
X128511258Y-68167936D01*
X128569241Y-68150667D01*
X128619037Y-68130550D01*
X128763772Y-68044286D01*
X128874169Y-67931791D01*
X128946639Y-67800631D01*
X128977591Y-67658370D01*
X128963437Y-67512573D01*
X128942131Y-67449576D01*
X128894214Y-67353704D01*
X128836338Y-67281269D01*
X128761187Y-67229249D01*
X128661445Y-67194619D01*
X128529796Y-67174355D01*
X128358924Y-67165432D01*
X128251929Y-67164270D01*
X127890958Y-67163713D01*
X127865784Y-67258963D01*
X127849681Y-67323806D01*
X127826914Y-67420640D01*
X127799631Y-67539766D01*
X127769977Y-67671484D01*
X127740101Y-67806094D01*
X127712147Y-67933896D01*
X127688265Y-68045191D01*
X127670599Y-68130279D01*
X127661297Y-68179461D01*
X127660400Y-68186928D01*
X126112734Y-68186928D01*
X126143766Y-68039890D01*
X126204245Y-67753224D01*
X126269205Y-67445223D01*
X126337898Y-67119436D01*
X126409575Y-66779408D01*
X126440998Y-66630313D01*
X126513477Y-66286567D01*
X126546800Y-66128681D01*
G37*
X126546800Y-66128681D02*
X128096705Y-66128681D01*
X128443702Y-66116843D01*
X128592795Y-66110562D01*
X128702334Y-66102387D01*
X128783567Y-66090653D01*
X128847741Y-66073695D01*
X128906103Y-66049846D01*
X128910605Y-66047712D01*
X129025344Y-65976256D01*
X129123884Y-65884019D01*
X129194707Y-65783618D01*
X129223923Y-65704558D01*
X129232107Y-65558036D01*
X129203349Y-65423161D01*
X129140912Y-65313301D01*
X129123779Y-65294612D01*
X129055691Y-65238657D01*
X128975169Y-65199324D01*
X128872649Y-65174233D01*
X128738565Y-65161004D01*
X128571754Y-65157254D01*
X128302009Y-65157112D01*
X128272503Y-65303163D01*
X128255740Y-65384448D01*
X128231374Y-65500447D01*
X128202560Y-65636226D01*
X128172454Y-65776853D01*
X128169851Y-65788947D01*
X128096705Y-66128681D01*
X126546800Y-66128681D01*
X126583151Y-65956450D01*
X126649289Y-65643414D01*
X126711158Y-65350909D01*
X126768026Y-65082386D01*
X126819160Y-64841298D01*
X126863828Y-64631094D01*
X126901299Y-64455228D01*
X126930839Y-64317149D01*
X126951716Y-64220310D01*
X126963198Y-64168161D01*
X126965114Y-64160163D01*
X126970686Y-64149962D01*
X126983777Y-64141447D01*
X127008616Y-64134467D01*
X127049432Y-64128870D01*
X127110454Y-64124504D01*
X127195910Y-64121220D01*
X127310030Y-64118865D01*
X127457042Y-64117288D01*
X127641175Y-64116339D01*
X127866658Y-64115865D01*
X128137720Y-64115717D01*
X128208378Y-64115713D01*
X128537712Y-64116219D01*
X128820989Y-64117939D01*
X129062941Y-64121169D01*
X129268303Y-64126208D01*
X129441809Y-64133352D01*
X129588193Y-64142901D01*
X129712189Y-64155153D01*
X129818530Y-64170404D01*
X129911951Y-64188953D01*
X129997186Y-64211098D01*
X130065590Y-64232585D01*
X130304717Y-64331809D01*
X130499757Y-64454759D01*
X130652542Y-64603435D01*
X130764906Y-64779834D01*
X130838680Y-64985956D01*
X130861714Y-65101084D01*
X130875956Y-65347345D01*
X130842008Y-65581107D01*
X130761772Y-65798335D01*
X130637148Y-65994993D01*
X130470038Y-66167047D01*
X130303295Y-66286542D01*
X130164447Y-66360859D01*
X130007548Y-66429075D01*
X129852594Y-66483315D01*
X129722967Y-66515140D01*
X129652465Y-66532597D01*
X129632264Y-66551658D01*
X129661951Y-66570907D01*
X129741117Y-66588928D01*
X129744521Y-66589478D01*
X129885991Y-66628073D01*
X130040216Y-66696134D01*
X130187816Y-66783783D01*
X130301028Y-66873161D01*
X130436609Y-67033568D01*
X130535184Y-67221949D01*
X130596352Y-67431053D01*
X130619708Y-67653629D01*
X130604849Y-67882425D01*
X130551374Y-68110190D01*
X130458878Y-68329671D01*
X130388558Y-68448265D01*
X130233584Y-68636949D01*
X130035342Y-68803308D01*
X129796907Y-68945818D01*
X129521359Y-69062956D01*
X129211773Y-69153196D01*
X128871227Y-69215017D01*
X128829466Y-69220326D01*
X128759169Y-69225704D01*
X128643172Y-69230650D01*
X128486573Y-69235078D01*
X128294468Y-69238906D01*
X128071958Y-69242047D01*
X127824138Y-69244418D01*
X127556109Y-69245934D01*
X127272967Y-69246510D01*
X127251016Y-69246513D01*
X125887799Y-69246513D01*
X125908795Y-69151263D01*
X125916937Y-69113247D01*
X125934802Y-69029069D01*
X125961642Y-68902277D01*
X125996707Y-68736415D01*
X126039248Y-68535033D01*
X126088518Y-68301675D01*
X126112734Y-68186928D01*
X127660400Y-68186928D01*
X127684908Y-68195510D01*
X127755047Y-68200909D01*
X127865738Y-68202961D01*
X128011900Y-68201507D01*
X128073150Y-68200069D01*
X128233725Y-68195015D01*
X128353561Y-68188829D01*
X128442719Y-68180230D01*
X128511258Y-68167936D01*
X128569241Y-68150667D01*
X128619037Y-68130550D01*
X128763772Y-68044286D01*
X128874169Y-67931791D01*
X128946639Y-67800631D01*
X128977591Y-67658370D01*
X128963437Y-67512573D01*
X128942131Y-67449576D01*
X128894214Y-67353704D01*
X128836338Y-67281269D01*
X128761187Y-67229249D01*
X128661445Y-67194619D01*
X128529796Y-67174355D01*
X128358924Y-67165432D01*
X128251929Y-67164270D01*
X127890958Y-67163713D01*
X127865784Y-67258963D01*
X127849681Y-67323806D01*
X127826914Y-67420640D01*
X127799631Y-67539766D01*
X127769977Y-67671484D01*
X127740101Y-67806094D01*
X127712147Y-67933896D01*
X127688265Y-68045191D01*
X127670599Y-68130279D01*
X127661297Y-68179461D01*
X127660400Y-68186928D01*
X126112734Y-68186928D01*
X126143766Y-68039890D01*
X126204245Y-67753224D01*
X126269205Y-67445223D01*
X126337898Y-67119436D01*
X126409575Y-66779408D01*
X126440998Y-66630313D01*
X126513477Y-66286567D01*
X126546800Y-66128681D01*
G36*
X140060902Y-65048964D02*
G01*
X140293182Y-65048964D01*
X140302763Y-65059176D01*
X140328085Y-65067092D01*
X140374492Y-65073096D01*
X140447330Y-65077572D01*
X140551946Y-65080902D01*
X140693685Y-65083473D01*
X140877892Y-65085667D01*
X141001208Y-65086870D01*
X141721391Y-65093613D01*
X141308546Y-67049413D01*
X141243721Y-67356536D01*
X141181999Y-67649001D01*
X141124175Y-67923040D01*
X141071043Y-68174886D01*
X141023398Y-68400773D01*
X140982034Y-68596935D01*
X140947746Y-68759603D01*
X140921327Y-68885011D01*
X140903572Y-68969392D01*
X140895276Y-69008980D01*
X140894750Y-69011563D01*
X140918631Y-69013437D01*
X140985954Y-69015092D01*
X141089363Y-69016441D01*
X141221499Y-69017398D01*
X141375005Y-69017875D01*
X141433862Y-69017913D01*
X141973924Y-69017913D01*
X142375972Y-67106563D01*
X142440163Y-66801465D01*
X142501526Y-66509940D01*
X142559229Y-66235936D01*
X142612438Y-65983400D01*
X142660322Y-65756279D01*
X142702047Y-65558523D01*
X142736780Y-65394079D01*
X142763690Y-65266893D01*
X142781944Y-65180915D01*
X142790709Y-65140092D01*
X142791164Y-65138062D01*
X142804307Y-65080912D01*
X143532285Y-65080912D01*
X144260264Y-65080913D01*
X144329813Y-64744363D01*
X144355438Y-64618054D01*
X144376780Y-64508452D01*
X144391916Y-64425770D01*
X144398922Y-64380221D01*
X144399181Y-64376063D01*
X144389590Y-64370007D01*
X144359027Y-64364721D01*
X144304700Y-64360160D01*
X144223815Y-64356278D01*
X144113579Y-64353031D01*
X143971197Y-64350375D01*
X143793878Y-64348264D01*
X143578827Y-64346655D01*
X143323251Y-64345501D01*
X143024356Y-64344758D01*
X142679350Y-64344382D01*
X142417800Y-64344313D01*
X142105521Y-64344466D01*
X141808381Y-64344911D01*
X141530232Y-64345624D01*
X141274922Y-64346580D01*
X141046303Y-64347756D01*
X140848224Y-64349127D01*
X140684537Y-64350671D01*
X140559091Y-64352362D01*
X140475737Y-64354178D01*
X140438326Y-64356093D01*
X140436600Y-64356608D01*
X140431618Y-64386475D01*
X140418275Y-64454535D01*
X140398975Y-64549332D01*
X140376123Y-64659413D01*
X140352122Y-64773323D01*
X140329375Y-64879607D01*
X140310288Y-64966813D01*
X140297264Y-65023485D01*
X140293994Y-65036070D01*
X140293182Y-65048964D01*
X140060902Y-65048964D01*
X140068715Y-65012169D01*
X140097950Y-64873695D01*
X140130109Y-64720676D01*
X140131799Y-64712613D01*
X140164058Y-64559085D01*
X140193488Y-64419653D01*
X140218222Y-64303113D01*
X140236394Y-64218258D01*
X140246136Y-64173883D01*
X140246373Y-64172863D01*
X140259767Y-64115713D01*
X144695456Y-64115713D01*
X144626525Y-64439563D01*
X144593314Y-64595970D01*
X144557092Y-64767164D01*
X144522757Y-64929971D01*
X144500386Y-65036463D01*
X144443178Y-65309513D01*
X143724088Y-65309513D01*
X143538133Y-65310177D01*
X143369188Y-65312054D01*
X143223786Y-65314969D01*
X143108462Y-65318746D01*
X143029753Y-65323211D01*
X142994192Y-65328190D01*
X142992905Y-65329078D01*
X142986400Y-65355490D01*
X142970409Y-65427003D01*
X142945910Y-65539011D01*
X142913882Y-65686904D01*
X142875302Y-65866073D01*
X142831150Y-66071912D01*
X142782403Y-66299810D01*
X142730039Y-66545159D01*
X142675036Y-66803352D01*
X142618374Y-67069779D01*
X142561029Y-67339832D01*
X142503981Y-67608904D01*
X142448206Y-67872384D01*
X142394685Y-68125665D01*
X142344393Y-68364139D01*
X142298311Y-68583197D01*
X142257416Y-68778230D01*
X142222686Y-68944630D01*
X142195099Y-69077789D01*
X142175634Y-69173098D01*
X142165269Y-69225949D01*
X142163800Y-69235173D01*
X142139424Y-69237987D01*
X142070395Y-69240546D01*
X141962860Y-69242761D01*
X141822964Y-69244542D01*
X141656855Y-69245800D01*
X141470679Y-69246446D01*
X141386346Y-69246513D01*
X140608892Y-69246513D01*
X140625674Y-69179648D01*
X140636549Y-69132269D01*
X140656354Y-69041729D01*
X140684111Y-68912708D01*
X140718839Y-68749890D01*
X140759560Y-68557955D01*
X140805294Y-68341586D01*
X140855062Y-68105463D01*
X140907886Y-67854269D01*
X140962785Y-67592685D01*
X141018781Y-67325393D01*
X141074895Y-67057075D01*
X141130146Y-66792411D01*
X141183557Y-66536085D01*
X141234147Y-66292777D01*
X141280938Y-66067169D01*
X141322950Y-65863943D01*
X141359204Y-65687781D01*
X141388721Y-65543364D01*
X141410522Y-65435373D01*
X141423627Y-65368492D01*
X141427200Y-65347523D01*
X141421577Y-65336239D01*
X141401190Y-65327385D01*
X141360756Y-65320680D01*
X141294996Y-65315842D01*
X141198628Y-65312590D01*
X141066373Y-65310640D01*
X140892949Y-65309710D01*
X140715516Y-65309513D01*
X140003832Y-65309513D01*
X140017226Y-65252363D01*
X140026486Y-65210297D01*
X140044271Y-65127301D01*
X140060902Y-65048964D01*
G37*
X140060902Y-65048964D02*
X140293182Y-65048964D01*
X140302763Y-65059176D01*
X140328085Y-65067092D01*
X140374492Y-65073096D01*
X140447330Y-65077572D01*
X140551946Y-65080902D01*
X140693685Y-65083473D01*
X140877892Y-65085667D01*
X141001208Y-65086870D01*
X141721391Y-65093613D01*
X141308546Y-67049413D01*
X141243721Y-67356536D01*
X141181999Y-67649001D01*
X141124175Y-67923040D01*
X141071043Y-68174886D01*
X141023398Y-68400773D01*
X140982034Y-68596935D01*
X140947746Y-68759603D01*
X140921327Y-68885011D01*
X140903572Y-68969392D01*
X140895276Y-69008980D01*
X140894750Y-69011563D01*
X140918631Y-69013437D01*
X140985954Y-69015092D01*
X141089363Y-69016441D01*
X141221499Y-69017398D01*
X141375005Y-69017875D01*
X141433862Y-69017913D01*
X141973924Y-69017913D01*
X142375972Y-67106563D01*
X142440163Y-66801465D01*
X142501526Y-66509940D01*
X142559229Y-66235936D01*
X142612438Y-65983400D01*
X142660322Y-65756279D01*
X142702047Y-65558523D01*
X142736780Y-65394079D01*
X142763690Y-65266893D01*
X142781944Y-65180915D01*
X142790709Y-65140092D01*
X142791164Y-65138062D01*
X142804307Y-65080912D01*
X143532285Y-65080912D01*
X144260264Y-65080913D01*
X144329813Y-64744363D01*
X144355438Y-64618054D01*
X144376780Y-64508452D01*
X144391916Y-64425770D01*
X144398922Y-64380221D01*
X144399181Y-64376063D01*
X144389590Y-64370007D01*
X144359027Y-64364721D01*
X144304700Y-64360160D01*
X144223815Y-64356278D01*
X144113579Y-64353031D01*
X143971197Y-64350375D01*
X143793878Y-64348264D01*
X143578827Y-64346655D01*
X143323251Y-64345501D01*
X143024356Y-64344758D01*
X142679350Y-64344382D01*
X142417800Y-64344313D01*
X142105521Y-64344466D01*
X141808381Y-64344911D01*
X141530232Y-64345624D01*
X141274922Y-64346580D01*
X141046303Y-64347756D01*
X140848224Y-64349127D01*
X140684537Y-64350671D01*
X140559091Y-64352362D01*
X140475737Y-64354178D01*
X140438326Y-64356093D01*
X140436600Y-64356608D01*
X140431618Y-64386475D01*
X140418275Y-64454535D01*
X140398975Y-64549332D01*
X140376123Y-64659413D01*
X140352122Y-64773323D01*
X140329375Y-64879607D01*
X140310288Y-64966813D01*
X140297264Y-65023485D01*
X140293994Y-65036070D01*
X140293182Y-65048964D01*
X140060902Y-65048964D01*
X140068715Y-65012169D01*
X140097950Y-64873695D01*
X140130109Y-64720676D01*
X140131799Y-64712613D01*
X140164058Y-64559085D01*
X140193488Y-64419653D01*
X140218222Y-64303113D01*
X140236394Y-64218258D01*
X140246136Y-64173883D01*
X140246373Y-64172863D01*
X140259767Y-64115713D01*
X144695456Y-64115713D01*
X144626525Y-64439563D01*
X144593314Y-64595970D01*
X144557092Y-64767164D01*
X144522757Y-64929971D01*
X144500386Y-65036463D01*
X144443178Y-65309513D01*
X143724088Y-65309513D01*
X143538133Y-65310177D01*
X143369188Y-65312054D01*
X143223786Y-65314969D01*
X143108462Y-65318746D01*
X143029753Y-65323211D01*
X142994192Y-65328190D01*
X142992905Y-65329078D01*
X142986400Y-65355490D01*
X142970409Y-65427003D01*
X142945910Y-65539011D01*
X142913882Y-65686904D01*
X142875302Y-65866073D01*
X142831150Y-66071912D01*
X142782403Y-66299810D01*
X142730039Y-66545159D01*
X142675036Y-66803352D01*
X142618374Y-67069779D01*
X142561029Y-67339832D01*
X142503981Y-67608904D01*
X142448206Y-67872384D01*
X142394685Y-68125665D01*
X142344393Y-68364139D01*
X142298311Y-68583197D01*
X142257416Y-68778230D01*
X142222686Y-68944630D01*
X142195099Y-69077789D01*
X142175634Y-69173098D01*
X142165269Y-69225949D01*
X142163800Y-69235173D01*
X142139424Y-69237987D01*
X142070395Y-69240546D01*
X141962860Y-69242761D01*
X141822964Y-69244542D01*
X141656855Y-69245800D01*
X141470679Y-69246446D01*
X141386346Y-69246513D01*
X140608892Y-69246513D01*
X140625674Y-69179648D01*
X140636549Y-69132269D01*
X140656354Y-69041729D01*
X140684111Y-68912708D01*
X140718839Y-68749890D01*
X140759560Y-68557955D01*
X140805294Y-68341586D01*
X140855062Y-68105463D01*
X140907886Y-67854269D01*
X140962785Y-67592685D01*
X141018781Y-67325393D01*
X141074895Y-67057075D01*
X141130146Y-66792411D01*
X141183557Y-66536085D01*
X141234147Y-66292777D01*
X141280938Y-66067169D01*
X141322950Y-65863943D01*
X141359204Y-65687781D01*
X141388721Y-65543364D01*
X141410522Y-65435373D01*
X141423627Y-65368492D01*
X141427200Y-65347523D01*
X141421577Y-65336239D01*
X141401190Y-65327385D01*
X141360756Y-65320680D01*
X141294996Y-65315842D01*
X141198628Y-65312590D01*
X141066373Y-65310640D01*
X140892949Y-65309710D01*
X140715516Y-65309513D01*
X140003832Y-65309513D01*
X140017226Y-65252363D01*
X140026486Y-65210297D01*
X140044271Y-65127301D01*
X140060902Y-65048964D01*
G36*
X147751419Y-67204378D02*
G01*
X147978941Y-67204378D01*
X147983180Y-67372874D01*
X147993433Y-67514811D01*
X148004536Y-67592205D01*
X148086514Y-67901370D01*
X148205490Y-68175733D01*
X148361376Y-68415207D01*
X148554081Y-68619707D01*
X148783518Y-68789144D01*
X149049597Y-68923434D01*
X149352229Y-69022489D01*
X149513075Y-69057993D01*
X149647960Y-69075427D01*
X149820209Y-69085554D01*
X150016964Y-69088731D01*
X150225373Y-69085318D01*
X150432579Y-69075671D01*
X150625726Y-69060149D01*
X150791961Y-69039109D01*
X150892733Y-69019568D01*
X151005028Y-68990824D01*
X151076766Y-68967024D01*
X151117351Y-68943913D01*
X151136189Y-68917239D01*
X151138929Y-68908220D01*
X151160377Y-68817041D01*
X151185642Y-68704145D01*
X151212692Y-68579327D01*
X151239491Y-68452381D01*
X151264007Y-68333103D01*
X151284206Y-68231288D01*
X151298054Y-68156731D01*
X151303517Y-68119227D01*
X151303266Y-68116698D01*
X151276843Y-68119509D01*
X151212301Y-68133038D01*
X151120592Y-68154866D01*
X151053800Y-68171789D01*
X150857250Y-68210391D01*
X150640075Y-68232514D01*
X150420775Y-68237494D01*
X150217848Y-68224667D01*
X150101300Y-68206002D01*
X149883978Y-68138321D01*
X149682640Y-68034256D01*
X149506261Y-67900268D01*
X149363817Y-67742818D01*
X149288487Y-67620887D01*
X149215166Y-67429736D01*
X149169685Y-67207578D01*
X149152812Y-66966390D01*
X149165313Y-66718153D01*
X149207958Y-66474844D01*
X149213581Y-66452513D01*
X149306732Y-66183259D01*
X149439263Y-65934293D01*
X149606177Y-65711972D01*
X149802479Y-65522657D01*
X150023172Y-65372709D01*
X150088600Y-65338671D01*
X150255754Y-65262725D01*
X150405283Y-65209045D01*
X150552836Y-65174272D01*
X150714066Y-65155045D01*
X150904625Y-65148002D01*
X150977600Y-65147783D01*
X151226478Y-65154585D01*
X151438509Y-65174413D01*
X151626350Y-65208890D01*
X151772995Y-65249809D01*
X151844457Y-65270615D01*
X151893111Y-65280536D01*
X151904804Y-65279775D01*
X151914110Y-65252014D01*
X151931454Y-65184503D01*
X151954630Y-65087248D01*
X151981430Y-64970255D01*
X152009647Y-64843530D01*
X152037072Y-64717079D01*
X152061499Y-64600908D01*
X152080720Y-64505022D01*
X152092527Y-64439427D01*
X152095200Y-64416763D01*
X152072856Y-64374275D01*
X152038050Y-64358172D01*
X151812299Y-64318988D01*
X151552614Y-64290874D01*
X151274751Y-64274352D01*
X150994470Y-64269941D01*
X150727526Y-64278161D01*
X150489679Y-64299532D01*
X150445728Y-64305617D01*
X150056171Y-64381149D01*
X149704488Y-64487000D01*
X149386797Y-64624560D01*
X149123055Y-64779077D01*
X148852513Y-64990197D01*
X148613259Y-65239107D01*
X148407873Y-65521686D01*
X148238936Y-65833811D01*
X148109030Y-66171362D01*
X148020734Y-66530217D01*
X148018438Y-66543062D01*
X148000465Y-66678666D01*
X147987768Y-66843362D01*
X147980532Y-67023237D01*
X147978941Y-67204378D01*
X147751419Y-67204378D01*
X147750112Y-67096252D01*
X147772962Y-66684857D01*
X147839655Y-66295506D01*
X147948698Y-65930246D01*
X148098595Y-65591122D01*
X148287854Y-65280180D01*
X148514980Y-64999465D01*
X148778480Y-64751022D01*
X149076860Y-64536897D01*
X149408625Y-64359136D01*
X149772283Y-64219785D01*
X149872700Y-64189865D01*
X150249604Y-64105533D01*
X150654097Y-64054824D01*
X151075488Y-64037962D01*
X151503085Y-64055174D01*
X151926198Y-64106685D01*
X152118532Y-64142406D01*
X152222611Y-64164957D01*
X152306594Y-64184978D01*
X152358954Y-64199624D01*
X152370285Y-64204531D01*
X152368698Y-64231913D01*
X152357159Y-64300920D01*
X152337391Y-64403736D01*
X152311118Y-64532547D01*
X152280065Y-64679537D01*
X152245957Y-64836890D01*
X152210518Y-64996793D01*
X152175471Y-65151429D01*
X152142543Y-65292984D01*
X152113457Y-65413643D01*
X152089937Y-65505590D01*
X152073708Y-65561011D01*
X152068237Y-65573427D01*
X152034242Y-65577354D01*
X151968151Y-65561797D01*
X151912565Y-65541805D01*
X151630477Y-65449045D01*
X151338307Y-65391233D01*
X151045125Y-65368462D01*
X150760003Y-65380827D01*
X150492010Y-65428422D01*
X150250216Y-65511343D01*
X150222286Y-65524196D01*
X150051206Y-65626127D01*
X149883057Y-65763483D01*
X149731076Y-65923144D01*
X149608501Y-66091994D01*
X149560176Y-66180325D01*
X149470155Y-66409521D01*
X149410643Y-66651433D01*
X149382593Y-66894909D01*
X149386953Y-67128795D01*
X149424675Y-67341938D01*
X149453670Y-67430413D01*
X149537323Y-67584996D01*
X149658917Y-67727410D01*
X149805595Y-67844987D01*
X149950439Y-67919874D01*
X150186101Y-67984663D01*
X150446805Y-68010602D01*
X150725496Y-67998217D01*
X151015117Y-67948032D01*
X151308613Y-67860572D01*
X151440412Y-67809050D01*
X151520184Y-67778183D01*
X151580065Y-67760059D01*
X151606170Y-67758416D01*
X151604532Y-67785782D01*
X151593154Y-67856256D01*
X151573288Y-67963353D01*
X151546184Y-68100583D01*
X151513093Y-68261460D01*
X151475265Y-68439494D01*
X151471688Y-68456057D01*
X151323741Y-69140234D01*
X151118920Y-69193530D01*
X151005492Y-69222719D01*
X150894871Y-69250644D01*
X150808699Y-69271848D01*
X150799800Y-69273974D01*
X150715307Y-69287141D01*
X150590874Y-69297631D01*
X150437294Y-69305345D01*
X150265363Y-69310181D01*
X150085874Y-69312038D01*
X149909621Y-69310816D01*
X149747400Y-69306413D01*
X149610003Y-69298727D01*
X149508226Y-69287659D01*
X149499182Y-69286146D01*
X149182724Y-69213005D01*
X148903074Y-69110242D01*
X148653630Y-68974619D01*
X148427787Y-68802897D01*
X148333700Y-68714578D01*
X148153442Y-68513197D01*
X148009591Y-68301700D01*
X147899819Y-68073628D01*
X147821794Y-67822521D01*
X147773188Y-67541919D01*
X147751672Y-67225362D01*
X147751419Y-67204378D01*
G37*
X147751419Y-67204378D02*
X147978941Y-67204378D01*
X147983180Y-67372874D01*
X147993433Y-67514811D01*
X148004536Y-67592205D01*
X148086514Y-67901370D01*
X148205490Y-68175733D01*
X148361376Y-68415207D01*
X148554081Y-68619707D01*
X148783518Y-68789144D01*
X149049597Y-68923434D01*
X149352229Y-69022489D01*
X149513075Y-69057993D01*
X149647960Y-69075427D01*
X149820209Y-69085554D01*
X150016964Y-69088731D01*
X150225373Y-69085318D01*
X150432579Y-69075671D01*
X150625726Y-69060149D01*
X150791961Y-69039109D01*
X150892733Y-69019568D01*
X151005028Y-68990824D01*
X151076766Y-68967024D01*
X151117351Y-68943913D01*
X151136189Y-68917239D01*
X151138929Y-68908220D01*
X151160377Y-68817041D01*
X151185642Y-68704145D01*
X151212692Y-68579327D01*
X151239491Y-68452381D01*
X151264007Y-68333103D01*
X151284206Y-68231288D01*
X151298054Y-68156731D01*
X151303517Y-68119227D01*
X151303266Y-68116698D01*
X151276843Y-68119509D01*
X151212301Y-68133038D01*
X151120592Y-68154866D01*
X151053800Y-68171789D01*
X150857250Y-68210391D01*
X150640075Y-68232514D01*
X150420775Y-68237494D01*
X150217848Y-68224667D01*
X150101300Y-68206002D01*
X149883978Y-68138321D01*
X149682640Y-68034256D01*
X149506261Y-67900268D01*
X149363817Y-67742818D01*
X149288487Y-67620887D01*
X149215166Y-67429736D01*
X149169685Y-67207578D01*
X149152812Y-66966390D01*
X149165313Y-66718153D01*
X149207958Y-66474844D01*
X149213581Y-66452513D01*
X149306732Y-66183259D01*
X149439263Y-65934293D01*
X149606177Y-65711972D01*
X149802479Y-65522657D01*
X150023172Y-65372709D01*
X150088600Y-65338671D01*
X150255754Y-65262725D01*
X150405283Y-65209045D01*
X150552836Y-65174272D01*
X150714066Y-65155045D01*
X150904625Y-65148002D01*
X150977600Y-65147783D01*
X151226478Y-65154585D01*
X151438509Y-65174413D01*
X151626350Y-65208890D01*
X151772995Y-65249809D01*
X151844457Y-65270615D01*
X151893111Y-65280536D01*
X151904804Y-65279775D01*
X151914110Y-65252014D01*
X151931454Y-65184503D01*
X151954630Y-65087248D01*
X151981430Y-64970255D01*
X152009647Y-64843530D01*
X152037072Y-64717079D01*
X152061499Y-64600908D01*
X152080720Y-64505022D01*
X152092527Y-64439427D01*
X152095200Y-64416763D01*
X152072856Y-64374275D01*
X152038050Y-64358172D01*
X151812299Y-64318988D01*
X151552614Y-64290874D01*
X151274751Y-64274352D01*
X150994470Y-64269941D01*
X150727526Y-64278161D01*
X150489679Y-64299532D01*
X150445728Y-64305617D01*
X150056171Y-64381149D01*
X149704488Y-64487000D01*
X149386797Y-64624560D01*
X149123055Y-64779077D01*
X148852513Y-64990197D01*
X148613259Y-65239107D01*
X148407873Y-65521686D01*
X148238936Y-65833811D01*
X148109030Y-66171362D01*
X148020734Y-66530217D01*
X148018438Y-66543062D01*
X148000465Y-66678666D01*
X147987768Y-66843362D01*
X147980532Y-67023237D01*
X147978941Y-67204378D01*
X147751419Y-67204378D01*
X147750112Y-67096252D01*
X147772962Y-66684857D01*
X147839655Y-66295506D01*
X147948698Y-65930246D01*
X148098595Y-65591122D01*
X148287854Y-65280180D01*
X148514980Y-64999465D01*
X148778480Y-64751022D01*
X149076860Y-64536897D01*
X149408625Y-64359136D01*
X149772283Y-64219785D01*
X149872700Y-64189865D01*
X150249604Y-64105533D01*
X150654097Y-64054824D01*
X151075488Y-64037962D01*
X151503085Y-64055174D01*
X151926198Y-64106685D01*
X152118532Y-64142406D01*
X152222611Y-64164957D01*
X152306594Y-64184978D01*
X152358954Y-64199624D01*
X152370285Y-64204531D01*
X152368698Y-64231913D01*
X152357159Y-64300920D01*
X152337391Y-64403736D01*
X152311118Y-64532547D01*
X152280065Y-64679537D01*
X152245957Y-64836890D01*
X152210518Y-64996793D01*
X152175471Y-65151429D01*
X152142543Y-65292984D01*
X152113457Y-65413643D01*
X152089937Y-65505590D01*
X152073708Y-65561011D01*
X152068237Y-65573427D01*
X152034242Y-65577354D01*
X151968151Y-65561797D01*
X151912565Y-65541805D01*
X151630477Y-65449045D01*
X151338307Y-65391233D01*
X151045125Y-65368462D01*
X150760003Y-65380827D01*
X150492010Y-65428422D01*
X150250216Y-65511343D01*
X150222286Y-65524196D01*
X150051206Y-65626127D01*
X149883057Y-65763483D01*
X149731076Y-65923144D01*
X149608501Y-66091994D01*
X149560176Y-66180325D01*
X149470155Y-66409521D01*
X149410643Y-66651433D01*
X149382593Y-66894909D01*
X149386953Y-67128795D01*
X149424675Y-67341938D01*
X149453670Y-67430413D01*
X149537323Y-67584996D01*
X149658917Y-67727410D01*
X149805595Y-67844987D01*
X149950439Y-67919874D01*
X150186101Y-67984663D01*
X150446805Y-68010602D01*
X150725496Y-67998217D01*
X151015117Y-67948032D01*
X151308613Y-67860572D01*
X151440412Y-67809050D01*
X151520184Y-67778183D01*
X151580065Y-67760059D01*
X151606170Y-67758416D01*
X151604532Y-67785782D01*
X151593154Y-67856256D01*
X151573288Y-67963353D01*
X151546184Y-68100583D01*
X151513093Y-68261460D01*
X151475265Y-68439494D01*
X151471688Y-68456057D01*
X151323741Y-69140234D01*
X151118920Y-69193530D01*
X151005492Y-69222719D01*
X150894871Y-69250644D01*
X150808699Y-69271848D01*
X150799800Y-69273974D01*
X150715307Y-69287141D01*
X150590874Y-69297631D01*
X150437294Y-69305345D01*
X150265363Y-69310181D01*
X150085874Y-69312038D01*
X149909621Y-69310816D01*
X149747400Y-69306413D01*
X149610003Y-69298727D01*
X149508226Y-69287659D01*
X149499182Y-69286146D01*
X149182724Y-69213005D01*
X148903074Y-69110242D01*
X148653630Y-68974619D01*
X148427787Y-68802897D01*
X148333700Y-68714578D01*
X148153442Y-68513197D01*
X148009591Y-68301700D01*
X147899819Y-68073628D01*
X147821794Y-67822521D01*
X147773188Y-67541919D01*
X147751672Y-67225362D01*
X147751419Y-67204378D01*
G36*
X143928709Y-68981202D02*
G01*
X144170400Y-68981202D01*
X144175960Y-68989212D01*
X144195134Y-68995994D01*
X144231662Y-69001647D01*
X144289283Y-69006268D01*
X144371739Y-69009955D01*
X144482767Y-69012805D01*
X144626109Y-69014915D01*
X144805504Y-69016383D01*
X145024691Y-69017307D01*
X145287412Y-69017784D01*
X145578388Y-69017913D01*
X145882060Y-69017834D01*
X146138884Y-69017515D01*
X146352811Y-69016833D01*
X146527792Y-69015664D01*
X146667777Y-69013884D01*
X146776720Y-69011371D01*
X146858570Y-69007999D01*
X146917280Y-69003647D01*
X146956800Y-68998190D01*
X146981081Y-68991504D01*
X146994076Y-68983467D01*
X146999735Y-68973954D01*
X146999888Y-68973463D01*
X147011341Y-68928566D01*
X147029602Y-68849175D01*
X147052171Y-68747047D01*
X147076545Y-68633936D01*
X147100225Y-68521598D01*
X147120707Y-68421790D01*
X147135490Y-68346266D01*
X147142074Y-68306783D01*
X147142200Y-68304680D01*
X147117535Y-68298657D01*
X147046473Y-68293341D01*
X146933415Y-68288849D01*
X146782760Y-68285299D01*
X146598909Y-68282808D01*
X146386262Y-68281493D01*
X146265900Y-68281313D01*
X146060644Y-68281005D01*
X145872466Y-68280130D01*
X145707157Y-68278760D01*
X145570504Y-68276970D01*
X145468299Y-68274831D01*
X145406330Y-68272417D01*
X145389600Y-68270271D01*
X145394638Y-68243384D01*
X145408793Y-68173741D01*
X145430624Y-68068277D01*
X145458689Y-67933925D01*
X145491549Y-67777621D01*
X145516600Y-67659012D01*
X145551955Y-67491480D01*
X145583524Y-67341051D01*
X145609865Y-67214662D01*
X145629538Y-67119246D01*
X145641102Y-67061738D01*
X145643600Y-67047754D01*
X145667972Y-67045007D01*
X145736980Y-67042509D01*
X145844459Y-67040349D01*
X145984246Y-67038614D01*
X146150175Y-67037392D01*
X146336082Y-67036772D01*
X146416588Y-67036713D01*
X146635800Y-67036530D01*
X146809573Y-67035782D01*
X146943268Y-67034165D01*
X147042245Y-67031376D01*
X147111865Y-67027113D01*
X147157489Y-67021071D01*
X147184477Y-67012949D01*
X147198190Y-67002443D01*
X147203160Y-66992263D01*
X147213662Y-66950481D01*
X147231155Y-66873398D01*
X147253173Y-66772691D01*
X147277251Y-66660037D01*
X147300924Y-66547113D01*
X147321726Y-66445596D01*
X147337192Y-66367164D01*
X147344857Y-66323493D01*
X147345269Y-66319163D01*
X147320931Y-66314417D01*
X147251965Y-66310104D01*
X147144540Y-66306374D01*
X147004828Y-66303380D01*
X146838998Y-66301276D01*
X146653221Y-66300212D01*
X146574341Y-66300113D01*
X145803283Y-66300113D01*
X145873425Y-65963563D01*
X145906243Y-65805943D01*
X145941842Y-65634719D01*
X145975637Y-65471952D01*
X146000022Y-65354305D01*
X146056477Y-65081598D01*
X146883554Y-65074905D01*
X147710632Y-65068213D01*
X147780640Y-64750713D01*
X147807346Y-64626712D01*
X147829584Y-64517990D01*
X147845171Y-64435620D01*
X147851922Y-64390674D01*
X147852024Y-64388763D01*
X147849940Y-64379025D01*
X147840382Y-64370818D01*
X147819371Y-64364013D01*
X147782930Y-64358478D01*
X147727077Y-64354084D01*
X147647836Y-64350700D01*
X147541226Y-64348196D01*
X147403269Y-64346441D01*
X147229987Y-64345306D01*
X147017399Y-64344660D01*
X146761528Y-64344372D01*
X146494500Y-64344313D01*
X146237087Y-64344602D01*
X145995613Y-64345433D01*
X145774725Y-64346752D01*
X145579075Y-64348504D01*
X145413309Y-64350635D01*
X145282078Y-64353089D01*
X145190031Y-64355812D01*
X145141817Y-64358750D01*
X145135600Y-64360277D01*
X145130463Y-64386910D01*
X145115545Y-64459739D01*
X145091580Y-64575263D01*
X145059302Y-64729979D01*
X145019447Y-64920384D01*
X144972749Y-65142976D01*
X144919943Y-65394253D01*
X144861764Y-65670711D01*
X144798948Y-65968849D01*
X144732228Y-66285163D01*
X144662341Y-66616153D01*
X144653000Y-66660367D01*
X144582685Y-66993554D01*
X144515449Y-67312916D01*
X144452029Y-67614908D01*
X144393161Y-67895985D01*
X144339584Y-68152603D01*
X144292033Y-68381218D01*
X144251245Y-68578285D01*
X144217959Y-68740260D01*
X144192911Y-68863599D01*
X144176837Y-68944758D01*
X144170475Y-68980191D01*
X144170400Y-68981202D01*
X143928709Y-68981202D01*
X143945581Y-68901727D01*
X143980730Y-68735852D01*
X144023350Y-68534502D01*
X144072687Y-68301234D01*
X144127990Y-68039606D01*
X144188506Y-67753176D01*
X144253483Y-67445502D01*
X144322167Y-67120142D01*
X144393808Y-66780653D01*
X144422919Y-66642667D01*
X144495316Y-66299546D01*
X144564912Y-65969829D01*
X144630970Y-65657003D01*
X144692753Y-65364552D01*
X144749523Y-65095960D01*
X144800544Y-64854713D01*
X144845078Y-64644294D01*
X144882388Y-64468189D01*
X144911738Y-64329882D01*
X144932391Y-64232858D01*
X144943608Y-64180602D01*
X144945324Y-64172862D01*
X144958767Y-64115712D01*
X146545783Y-64115712D01*
X146881774Y-64115908D01*
X147170067Y-64116536D01*
X147413766Y-64117659D01*
X147615971Y-64119338D01*
X147779784Y-64121635D01*
X147908308Y-64124613D01*
X148004643Y-64128334D01*
X148071893Y-64132860D01*
X148113158Y-64138252D01*
X148131540Y-64144573D01*
X148133182Y-64147463D01*
X148128232Y-64180564D01*
X148114148Y-64255836D01*
X148092426Y-64365772D01*
X148064562Y-64502868D01*
X148032051Y-64659617D01*
X148014308Y-64744021D01*
X147895051Y-65308830D01*
X147067866Y-65315521D01*
X146240682Y-65322213D01*
X146086178Y-66058813D01*
X147630580Y-66072255D01*
X147619462Y-66129034D01*
X147611125Y-66170052D01*
X147594104Y-66252613D01*
X147570096Y-66368532D01*
X147540795Y-66509625D01*
X147507900Y-66667705D01*
X147495922Y-66725191D01*
X147383500Y-67264569D01*
X145834100Y-67278013D01*
X145766201Y-67582813D01*
X145738254Y-67709207D01*
X145713035Y-67824969D01*
X145693395Y-67916904D01*
X145682500Y-67970163D01*
X145666698Y-68052713D01*
X146544149Y-68052713D01*
X146749568Y-68053243D01*
X146937936Y-68054751D01*
X147103461Y-68057111D01*
X147240354Y-68060197D01*
X147342826Y-68063883D01*
X147405086Y-68068044D01*
X147422075Y-68071763D01*
X147417214Y-68101045D01*
X147403320Y-68172827D01*
X147381847Y-68279900D01*
X147354249Y-68415058D01*
X147321981Y-68571094D01*
X147301627Y-68668663D01*
X147180704Y-69246513D01*
X143870999Y-69246513D01*
X143892478Y-69150917D01*
X143900702Y-69112817D01*
X143918654Y-69028568D01*
X143928709Y-68981202D01*
G37*
X143928709Y-68981202D02*
X144170400Y-68981202D01*
X144175960Y-68989212D01*
X144195134Y-68995994D01*
X144231662Y-69001647D01*
X144289283Y-69006268D01*
X144371739Y-69009955D01*
X144482767Y-69012805D01*
X144626109Y-69014915D01*
X144805504Y-69016383D01*
X145024691Y-69017307D01*
X145287412Y-69017784D01*
X145578388Y-69017913D01*
X145882060Y-69017834D01*
X146138884Y-69017515D01*
X146352811Y-69016833D01*
X146527792Y-69015664D01*
X146667777Y-69013884D01*
X146776720Y-69011371D01*
X146858570Y-69007999D01*
X146917280Y-69003647D01*
X146956800Y-68998190D01*
X146981081Y-68991504D01*
X146994076Y-68983467D01*
X146999735Y-68973954D01*
X146999888Y-68973463D01*
X147011341Y-68928566D01*
X147029602Y-68849175D01*
X147052171Y-68747047D01*
X147076545Y-68633936D01*
X147100225Y-68521598D01*
X147120707Y-68421790D01*
X147135490Y-68346266D01*
X147142074Y-68306783D01*
X147142200Y-68304680D01*
X147117535Y-68298657D01*
X147046473Y-68293341D01*
X146933415Y-68288849D01*
X146782760Y-68285299D01*
X146598909Y-68282808D01*
X146386262Y-68281493D01*
X146265900Y-68281313D01*
X146060644Y-68281005D01*
X145872466Y-68280130D01*
X145707157Y-68278760D01*
X145570504Y-68276970D01*
X145468299Y-68274831D01*
X145406330Y-68272417D01*
X145389600Y-68270271D01*
X145394638Y-68243384D01*
X145408793Y-68173741D01*
X145430624Y-68068277D01*
X145458689Y-67933925D01*
X145491549Y-67777621D01*
X145516600Y-67659012D01*
X145551955Y-67491480D01*
X145583524Y-67341051D01*
X145609865Y-67214662D01*
X145629538Y-67119246D01*
X145641102Y-67061738D01*
X145643600Y-67047754D01*
X145667972Y-67045007D01*
X145736980Y-67042509D01*
X145844459Y-67040349D01*
X145984246Y-67038614D01*
X146150175Y-67037392D01*
X146336082Y-67036772D01*
X146416588Y-67036713D01*
X146635800Y-67036530D01*
X146809573Y-67035782D01*
X146943268Y-67034165D01*
X147042245Y-67031376D01*
X147111865Y-67027113D01*
X147157489Y-67021071D01*
X147184477Y-67012949D01*
X147198190Y-67002443D01*
X147203160Y-66992263D01*
X147213662Y-66950481D01*
X147231155Y-66873398D01*
X147253173Y-66772691D01*
X147277251Y-66660037D01*
X147300924Y-66547113D01*
X147321726Y-66445596D01*
X147337192Y-66367164D01*
X147344857Y-66323493D01*
X147345269Y-66319163D01*
X147320931Y-66314417D01*
X147251965Y-66310104D01*
X147144540Y-66306374D01*
X147004828Y-66303380D01*
X146838998Y-66301276D01*
X146653221Y-66300212D01*
X146574341Y-66300113D01*
X145803283Y-66300113D01*
X145873425Y-65963563D01*
X145906243Y-65805943D01*
X145941842Y-65634719D01*
X145975637Y-65471952D01*
X146000022Y-65354305D01*
X146056477Y-65081598D01*
X146883554Y-65074905D01*
X147710632Y-65068213D01*
X147780640Y-64750713D01*
X147807346Y-64626712D01*
X147829584Y-64517990D01*
X147845171Y-64435620D01*
X147851922Y-64390674D01*
X147852024Y-64388763D01*
X147849940Y-64379025D01*
X147840382Y-64370818D01*
X147819371Y-64364013D01*
X147782930Y-64358478D01*
X147727077Y-64354084D01*
X147647836Y-64350700D01*
X147541226Y-64348196D01*
X147403269Y-64346441D01*
X147229987Y-64345306D01*
X147017399Y-64344660D01*
X146761528Y-64344372D01*
X146494500Y-64344313D01*
X146237087Y-64344602D01*
X145995613Y-64345433D01*
X145774725Y-64346752D01*
X145579075Y-64348504D01*
X145413309Y-64350635D01*
X145282078Y-64353089D01*
X145190031Y-64355812D01*
X145141817Y-64358750D01*
X145135600Y-64360277D01*
X145130463Y-64386910D01*
X145115545Y-64459739D01*
X145091580Y-64575263D01*
X145059302Y-64729979D01*
X145019447Y-64920384D01*
X144972749Y-65142976D01*
X144919943Y-65394253D01*
X144861764Y-65670711D01*
X144798948Y-65968849D01*
X144732228Y-66285163D01*
X144662341Y-66616153D01*
X144653000Y-66660367D01*
X144582685Y-66993554D01*
X144515449Y-67312916D01*
X144452029Y-67614908D01*
X144393161Y-67895985D01*
X144339584Y-68152603D01*
X144292033Y-68381218D01*
X144251245Y-68578285D01*
X144217959Y-68740260D01*
X144192911Y-68863599D01*
X144176837Y-68944758D01*
X144170475Y-68980191D01*
X144170400Y-68981202D01*
X143928709Y-68981202D01*
X143945581Y-68901727D01*
X143980730Y-68735852D01*
X144023350Y-68534502D01*
X144072687Y-68301234D01*
X144127990Y-68039606D01*
X144188506Y-67753176D01*
X144253483Y-67445502D01*
X144322167Y-67120142D01*
X144393808Y-66780653D01*
X144422919Y-66642667D01*
X144495316Y-66299546D01*
X144564912Y-65969829D01*
X144630970Y-65657003D01*
X144692753Y-65364552D01*
X144749523Y-65095960D01*
X144800544Y-64854713D01*
X144845078Y-64644294D01*
X144882388Y-64468189D01*
X144911738Y-64329882D01*
X144932391Y-64232858D01*
X144943608Y-64180602D01*
X144945324Y-64172862D01*
X144958767Y-64115712D01*
X146545783Y-64115712D01*
X146881774Y-64115908D01*
X147170067Y-64116536D01*
X147413766Y-64117659D01*
X147615971Y-64119338D01*
X147779784Y-64121635D01*
X147908308Y-64124613D01*
X148004643Y-64128334D01*
X148071893Y-64132860D01*
X148113158Y-64138252D01*
X148131540Y-64144573D01*
X148133182Y-64147463D01*
X148128232Y-64180564D01*
X148114148Y-64255836D01*
X148092426Y-64365772D01*
X148064562Y-64502868D01*
X148032051Y-64659617D01*
X148014308Y-64744021D01*
X147895051Y-65308830D01*
X147067866Y-65315521D01*
X146240682Y-65322213D01*
X146086178Y-66058813D01*
X147630580Y-66072255D01*
X147619462Y-66129034D01*
X147611125Y-66170052D01*
X147594104Y-66252613D01*
X147570096Y-66368532D01*
X147540795Y-66509625D01*
X147507900Y-66667705D01*
X147495922Y-66725191D01*
X147383500Y-67264569D01*
X145834100Y-67278013D01*
X145766201Y-67582813D01*
X145738254Y-67709207D01*
X145713035Y-67824969D01*
X145693395Y-67916904D01*
X145682500Y-67970163D01*
X145666698Y-68052713D01*
X146544149Y-68052713D01*
X146749568Y-68053243D01*
X146937936Y-68054751D01*
X147103461Y-68057111D01*
X147240354Y-68060197D01*
X147342826Y-68063883D01*
X147405086Y-68068044D01*
X147422075Y-68071763D01*
X147417214Y-68101045D01*
X147403320Y-68172827D01*
X147381847Y-68279900D01*
X147354249Y-68415058D01*
X147321981Y-68571094D01*
X147301627Y-68668663D01*
X147180704Y-69246513D01*
X143870999Y-69246513D01*
X143892478Y-69150917D01*
X143900702Y-69112817D01*
X143918654Y-69028568D01*
X143928709Y-68981202D01*
D11*
X45643400Y-55301300D02*
X45643400Y-57101300D01*
X45643400Y-55301300D02*
X45643400Y-54501300D01*
X48763400Y-55301300D02*
X48763400Y-56101300D01*
X48763400Y-55301300D02*
X48763400Y-54501300D01*
X112300633Y-47546800D02*
X112593167Y-47546800D01*
X112300633Y-48566800D02*
X112593167Y-48566800D01*
X68857076Y-72201700D02*
X69366524Y-72201700D01*
X68857076Y-73246700D02*
X69366524Y-73246700D01*
X55776400Y-79470467D02*
X55776400Y-79177933D01*
X56796400Y-79470467D02*
X56796400Y-79177933D01*
X60872400Y-70525000D02*
X60872400Y-69175000D01*
X62622400Y-70525000D02*
X62622400Y-69175000D01*
X48800633Y-79296800D02*
X49093167Y-79296800D01*
X48800633Y-80316800D02*
X49093167Y-80316800D01*
X75527100Y-70210776D02*
X75527100Y-70720224D01*
X74482100Y-70210776D02*
X74482100Y-70720224D01*
D12*
X84646330Y-44342670D02*
X84116000Y-44873000D01*
X83208763Y-43940363D01*
X83739093Y-43410033D01*
X84646330Y-44342670D01*
X116396330Y-76092670D02*
X115866000Y-76623000D01*
X114958763Y-75690363D01*
X115489093Y-75160033D01*
X116396330Y-76092670D01*
X148146330Y-44342670D02*
X147616000Y-44873000D01*
X146708763Y-43940363D01*
X147239093Y-43410033D01*
X148146330Y-44342670D01*
X148146330Y-76092670D02*
X147616000Y-76623000D01*
X146708763Y-75690363D01*
X147239093Y-75160033D01*
X148146330Y-76092670D01*
X116396330Y-44342670D02*
X115866000Y-44873000D01*
X114958763Y-43940363D01*
X115489093Y-43410033D01*
X116396330Y-44342670D01*
X52896330Y-44342670D02*
X52366000Y-44873000D01*
X51458763Y-43940363D01*
X51989093Y-43410033D01*
X52896330Y-44342670D01*
X52896330Y-76092670D02*
X52366000Y-76623000D01*
X51458763Y-75690363D01*
X51989093Y-75160033D01*
X52896330Y-76092670D01*
X84646330Y-76092670D02*
X84116000Y-76623000D01*
X83208763Y-75690363D01*
X83739093Y-75160033D01*
X84646330Y-76092670D01*
%LPC*%
D16*
X66835400Y-58826400D03*
X66835400Y-57556400D03*
X66835400Y-56286400D03*
X66835400Y-55016400D03*
X61485400Y-55016400D03*
X61485400Y-56286400D03*
X61485400Y-57556400D03*
X61485400Y-58826400D03*
D17*
X69087999Y-51356999D03*
X69087999Y-47956999D03*
D18*
X46966500Y-65735200D03*
X48791500Y-65735200D03*
D19*
X111584400Y-79806800D03*
X113309400Y-79806800D03*
D20*
X69157599Y-78583999D03*
X68207599Y-78583999D03*
X67257599Y-78583999D03*
X67257599Y-81283999D03*
X68207599Y-81283999D03*
X69157599Y-81283999D03*
D21*
X43689200Y-63675000D03*
D22*
X40589199Y-65274999D03*
X40589199Y-68074999D03*
D23*
X43689199Y-69674999D03*
D24*
X44789199Y-63574999D03*
X44789199Y-64324999D03*
D25*
X44789199Y-64924999D03*
X44789199Y-66424999D03*
X44789199Y-67424999D03*
X44789199Y-68424999D03*
D24*
X44789199Y-69024999D03*
X44789199Y-69774999D03*
X44789199Y-69774999D03*
X44789199Y-69024999D03*
D25*
X44789199Y-67924999D03*
X44789199Y-66924999D03*
X44789199Y-65924999D03*
X44789199Y-65424999D03*
D24*
X44789199Y-64324999D03*
X44789199Y-63574999D03*
D26*
X44414199Y-62354999D03*
D27*
X40589199Y-62354999D03*
D26*
X44414199Y-70994999D03*
D27*
X40589199Y-70994999D03*
D28*
X63572300Y-83527800D03*
X61497300Y-83527800D03*
D29*
X70066800Y-65467300D03*
X70066800Y-67192300D03*
D30*
X58293000Y-73454600D03*
X58293000Y-71729600D03*
D31*
X62620399Y-66521599D03*
X62620399Y-63221599D03*
X60620399Y-63221599D03*
X60620399Y-66521599D03*
D19*
X53112500Y-58039000D03*
X54837500Y-58039000D03*
D30*
X70896200Y-80089100D03*
X70896200Y-78364100D03*
D28*
X74123700Y-76508800D03*
X72048700Y-76508800D03*
D32*
X47091600Y-69191500D03*
X47091600Y-71016500D03*
D33*
X71590800Y-67867300D03*
X72540800Y-67867300D03*
X73490800Y-67867300D03*
X73490800Y-65592300D03*
X71590800Y-65592300D03*
D34*
X65910800Y-70332600D03*
X64185800Y-70332600D03*
D35*
X54887500Y-60985400D03*
X53062500Y-60985400D03*
D18*
X59211200Y-50444400D03*
X61036200Y-50444400D03*
D36*
X130175000Y-92075000D03*
D28*
X63572300Y-85496400D03*
X61497300Y-85496400D03*
D19*
X48084400Y-48056800D03*
X49809400Y-48056800D03*
D18*
X68324500Y-53291000D03*
X70149500Y-53291000D03*
D19*
X49735400Y-60985400D03*
X51460400Y-60985400D03*
D35*
X70024300Y-71225600D03*
X68199300Y-71225600D03*
D37*
X72085200Y-71796400D03*
X72085200Y-72296400D03*
X72085200Y-72796400D03*
X72085200Y-73296400D03*
X73555200Y-73296400D03*
X73555200Y-72796400D03*
X73555200Y-72296400D03*
X73555200Y-71796400D03*
D38*
X92042000Y-73675000D03*
X92042000Y-59675000D03*
D39*
X82042000Y-71175000D03*
X82042000Y-68175000D03*
X82042000Y-65175000D03*
X82042000Y-62175000D03*
D40*
X41884600Y-74625200D03*
X42900600Y-79705200D03*
X40868600Y-79705200D03*
D41*
X41249600Y-75895200D03*
X42519600Y-75895200D03*
X41249600Y-77165200D03*
X42519600Y-77165200D03*
X41249600Y-78435200D03*
X42519600Y-78435200D03*
D19*
X53112500Y-59512200D03*
X54837500Y-59512200D03*
D34*
X66445300Y-65532000D03*
X64720300Y-65532000D03*
X66445300Y-64058800D03*
X64720300Y-64058800D03*
X65910800Y-68859400D03*
X64185800Y-68859400D03*
D19*
X79833300Y-79806800D03*
X81558300Y-79806800D03*
D30*
X74994400Y-67992300D03*
X74994400Y-66267300D03*
D19*
X63069300Y-60528200D03*
X64794300Y-60528200D03*
D42*
X57775600Y-69425000D03*
X57775600Y-68925000D03*
X57775600Y-68425000D03*
X57775600Y-67925000D03*
X57775600Y-67425000D03*
X57775600Y-66925000D03*
X57775600Y-66425000D03*
X57775600Y-65925000D03*
X57775600Y-65425000D03*
X57775600Y-64925000D03*
X57775600Y-64425000D03*
X57775600Y-63925000D03*
D43*
X57088100Y-63237500D03*
X56588100Y-63237500D03*
X56088100Y-63237500D03*
X55588100Y-63237500D03*
X55088100Y-63237500D03*
X54588100Y-63237500D03*
X54088100Y-63237500D03*
X53588100Y-63237500D03*
X53088100Y-63237500D03*
X52588100Y-63237500D03*
X52088100Y-63237500D03*
X51588100Y-63237500D03*
D42*
X50900600Y-63925000D03*
X50900600Y-64425000D03*
X50900600Y-64925000D03*
X50900600Y-65425000D03*
X50900600Y-65925000D03*
X50900600Y-66425000D03*
X50900600Y-66925000D03*
X50900600Y-67425000D03*
X50900600Y-67925000D03*
X50900600Y-68425000D03*
X50900600Y-68925000D03*
X50900600Y-69425000D03*
D43*
X51588100Y-70112500D03*
X52088100Y-70112500D03*
X52588100Y-70112500D03*
X53088100Y-70112500D03*
X53588100Y-70112500D03*
X54088100Y-70112500D03*
X54588100Y-70112500D03*
X55088100Y-70112500D03*
X55588100Y-70112500D03*
X56088100Y-70112500D03*
X56588100Y-70112500D03*
X57088100Y-70112500D03*
D44*
X54338099Y-66674999D03*
D30*
X59791600Y-73454600D03*
X59791600Y-71729600D03*
D19*
X143334400Y-48056800D03*
X145059400Y-48056800D03*
D45*
X56870600Y-91206400D03*
X56870600Y-89306400D03*
X54770600Y-90256400D03*
D36*
X66675000Y-92075000D03*
D19*
X143334400Y-79806800D03*
X145059400Y-79806800D03*
D36*
X98425000Y-41275000D03*
X130175000Y-41275000D03*
D18*
X45165000Y-60452000D03*
X46990000Y-60452000D03*
D17*
X64537999Y-51356999D03*
X64537999Y-47956999D03*
D46*
X60248799Y-77444599D03*
X59598799Y-77444599D03*
X58948799Y-77444599D03*
X58298799Y-77444599D03*
X58298799Y-80544599D03*
X58948799Y-80544599D03*
X59598799Y-80544599D03*
X60248799Y-80544599D03*
D47*
X59273799Y-78994599D03*
D19*
X58421100Y-75615800D03*
X60146100Y-75615800D03*
D36*
X66675000Y-41275000D03*
X98425000Y-92075000D03*
D48*
X71016199Y-83188999D03*
X74116199Y-83188999D03*
D30*
X48666400Y-70966500D03*
X48666400Y-69241500D03*
D49*
X59271200Y-48971200D03*
X61021200Y-48971200D03*
D19*
X79832200Y-48056800D03*
X81557200Y-48056800D03*
D33*
X46253400Y-56438800D03*
X47203400Y-56438800D03*
X48153400Y-56438800D03*
X48153400Y-54163800D03*
X46253400Y-54163800D03*
D19*
X111584400Y-48056800D03*
X113309400Y-48056800D03*
D18*
X68199300Y-72724200D03*
X70024300Y-72724200D03*
D30*
X56286400Y-80186700D03*
X56286400Y-78461700D03*
D50*
X61747399Y-68599999D03*
X61747399Y-71099999D03*
D19*
X48084400Y-79806800D03*
X49809400Y-79806800D03*
D32*
X75004600Y-69553000D03*
X75004600Y-71378000D03*
D51*
X88050000Y-50800000D03*
D52*
X82550000Y-50800000D03*
D51*
X77050000Y-50800000D03*
D53*
X80009999Y-46596999D03*
X80009999Y-45096999D03*
X85089999Y-45096999D03*
X85089999Y-46596999D03*
D54*
X82550000Y-56700000D03*
X87550000Y-54600000D03*
D51*
X119800000Y-82550000D03*
D52*
X114300000Y-82550000D03*
D51*
X108800000Y-82550000D03*
D53*
X111759999Y-78346999D03*
X111759999Y-76846999D03*
X116839999Y-76846999D03*
X116839999Y-78346999D03*
D54*
X114300000Y-88450000D03*
X119300000Y-86350000D03*
D51*
X151550000Y-50800000D03*
D52*
X146050000Y-50800000D03*
D51*
X140550000Y-50800000D03*
D53*
X143509999Y-46596999D03*
X143509999Y-45096999D03*
X148589999Y-45096999D03*
X148589999Y-46596999D03*
D54*
X146050000Y-56700000D03*
X151050000Y-54600000D03*
D51*
X151550000Y-82550000D03*
D52*
X146050000Y-82550000D03*
D51*
X140550000Y-82550000D03*
D53*
X143509999Y-78346999D03*
X143509999Y-76846999D03*
X148589999Y-76846999D03*
X148589999Y-78346999D03*
D54*
X146050000Y-88450000D03*
X151050000Y-86350000D03*
D51*
X119800000Y-50800000D03*
D52*
X114300000Y-50800000D03*
D51*
X108800000Y-50800000D03*
D53*
X111759999Y-46596999D03*
X111759999Y-45096999D03*
X116839999Y-45096999D03*
X116839999Y-46596999D03*
D54*
X114300000Y-56700000D03*
X119300000Y-54600000D03*
D51*
X56300000Y-50800000D03*
D52*
X50800000Y-50800000D03*
D51*
X45300000Y-50800000D03*
D53*
X48259999Y-46596999D03*
X48259999Y-45096999D03*
X53339999Y-45096999D03*
X53339999Y-46596999D03*
D54*
X50800000Y-56700000D03*
X55800000Y-54600000D03*
D51*
X56300000Y-82550000D03*
D52*
X50800000Y-82550000D03*
D51*
X45300000Y-82550000D03*
D53*
X48259999Y-78346999D03*
X48259999Y-76846999D03*
X53339999Y-76846999D03*
X53339999Y-78346999D03*
D54*
X50800000Y-88450000D03*
X55800000Y-86350000D03*
D51*
X88050000Y-82550000D03*
D52*
X82550000Y-82550000D03*
D51*
X77050000Y-82550000D03*
D53*
X80009999Y-78346999D03*
X80009999Y-76846999D03*
X85089999Y-76846999D03*
X85089999Y-78346999D03*
D54*
X82550000Y-88450000D03*
X87550000Y-86350000D03*
M02*
