G04 #@! TF.GenerationSoftware,KiCad,Pcbnew,(7.0.0)*
G04 #@! TF.CreationDate,2023-09-26T17:08:46-04:00*
G04 #@! TF.ProjectId,Switch Panel Rev 1,53776974-6368-4205-9061-6e656c205265,rev?*
G04 #@! TF.SameCoordinates,Original*
G04 #@! TF.FileFunction,Legend,Bot*
G04 #@! TF.FilePolarity,Positive*
%FSLAX46Y46*%
G04 Gerber Fmt 4.6, Leading zero omitted, Abs format (unit mm)*
G04 Created by KiCad (PCBNEW (7.0.0)) date 2023-09-26 17:08:46*
%MOMM*%
%LPD*%
G01*
G04 APERTURE LIST*
%ADD10C,0.100000*%
%ADD11C,0.600000*%
%ADD12O,0.600000X0.850000*%
%ADD13O,2.300000X1.300000*%
%ADD14O,2.600000X1.300000*%
%ADD15C,3.200000*%
%ADD16C,4.000000*%
%ADD17C,2.100000*%
%ADD18C,0.990600*%
%ADD19C,1.900000*%
%ADD20C,3.400000*%
%ADD21C,2.200000*%
G04 APERTURE END LIST*
D10*
X90042000Y-71175000D02*
X94042000Y-71175000D01*
X94042000Y-71175000D02*
X94042000Y-62175000D01*
X90042000Y-62175000D02*
X90042000Y-71175000D01*
X94042000Y-62175000D02*
X90042000Y-62175000D01*
X90050000Y-43300000D02*
X75050000Y-43300000D01*
X75050000Y-43300000D02*
X75050000Y-58300000D01*
X75050000Y-58300000D02*
X90050000Y-58300000D01*
X90050000Y-58300000D02*
X90050000Y-43300000D01*
X121800000Y-75050000D02*
X106800000Y-75050000D01*
X106800000Y-75050000D02*
X106800000Y-90050000D01*
X106800000Y-90050000D02*
X121800000Y-90050000D01*
X121800000Y-90050000D02*
X121800000Y-75050000D01*
X153550000Y-43300000D02*
X138550000Y-43300000D01*
X138550000Y-43300000D02*
X138550000Y-58300000D01*
X138550000Y-58300000D02*
X153550000Y-58300000D01*
X153550000Y-58300000D02*
X153550000Y-43300000D01*
X153550000Y-75050000D02*
X138550000Y-75050000D01*
X138550000Y-75050000D02*
X138550000Y-90050000D01*
X138550000Y-90050000D02*
X153550000Y-90050000D01*
X153550000Y-90050000D02*
X153550000Y-75050000D01*
X121800000Y-43300000D02*
X106800000Y-43300000D01*
X106800000Y-43300000D02*
X106800000Y-58300000D01*
X106800000Y-58300000D02*
X121800000Y-58300000D01*
X121800000Y-58300000D02*
X121800000Y-43300000D01*
X58300000Y-43300000D02*
X43300000Y-43300000D01*
X43300000Y-43300000D02*
X43300000Y-58300000D01*
X43300000Y-58300000D02*
X58300000Y-58300000D01*
X58300000Y-58300000D02*
X58300000Y-43300000D01*
X58300000Y-75050000D02*
X43300000Y-75050000D01*
X43300000Y-75050000D02*
X43300000Y-90050000D01*
X43300000Y-90050000D02*
X58300000Y-90050000D01*
X58300000Y-90050000D02*
X58300000Y-75050000D01*
X90050000Y-75050000D02*
X75050000Y-75050000D01*
X75050000Y-75050000D02*
X75050000Y-90050000D01*
X75050000Y-90050000D02*
X90050000Y-90050000D01*
X90050000Y-90050000D02*
X90050000Y-75050000D01*
%LPC*%
D11*
X43689200Y-63675000D03*
D12*
X43689199Y-69674999D03*
D13*
X44414199Y-62354999D03*
D14*
X40589199Y-62354999D03*
D13*
X44414199Y-70994999D03*
D14*
X40589199Y-70994999D03*
D15*
X130175000Y-92075000D03*
D16*
X92042000Y-73675000D03*
X92042000Y-59675000D03*
D17*
X82042000Y-71175000D03*
X82042000Y-68175000D03*
X82042000Y-65175000D03*
X82042000Y-62175000D03*
D18*
X41884600Y-74625200D03*
X42900600Y-79705200D03*
X40868600Y-79705200D03*
D15*
X66675000Y-92075000D03*
X98425000Y-41275000D03*
X130175000Y-41275000D03*
X66675000Y-41275000D03*
X98425000Y-92075000D03*
D19*
X88050000Y-50800000D03*
D20*
X82550000Y-50800000D03*
D19*
X77050000Y-50800000D03*
D21*
X82550000Y-56700000D03*
X87550000Y-54600000D03*
D19*
X119800000Y-82550000D03*
D20*
X114300000Y-82550000D03*
D19*
X108800000Y-82550000D03*
D21*
X114300000Y-88450000D03*
X119300000Y-86350000D03*
D19*
X151550000Y-50800000D03*
D20*
X146050000Y-50800000D03*
D19*
X140550000Y-50800000D03*
D21*
X146050000Y-56700000D03*
X151050000Y-54600000D03*
D19*
X151550000Y-82550000D03*
D20*
X146050000Y-82550000D03*
D19*
X140550000Y-82550000D03*
D21*
X146050000Y-88450000D03*
X151050000Y-86350000D03*
D19*
X119800000Y-50800000D03*
D20*
X114300000Y-50800000D03*
D19*
X108800000Y-50800000D03*
D21*
X114300000Y-56700000D03*
X119300000Y-54600000D03*
D19*
X56300000Y-50800000D03*
D20*
X50800000Y-50800000D03*
D19*
X45300000Y-50800000D03*
D21*
X50800000Y-56700000D03*
X55800000Y-54600000D03*
D19*
X56300000Y-82550000D03*
D20*
X50800000Y-82550000D03*
D19*
X45300000Y-82550000D03*
D21*
X50800000Y-88450000D03*
X55800000Y-86350000D03*
D19*
X88050000Y-82550000D03*
D20*
X82550000Y-82550000D03*
D19*
X77050000Y-82550000D03*
D21*
X82550000Y-88450000D03*
X87550000Y-86350000D03*
M02*
